<?xml version="1.0" standalone="no" ?>
<!DOCTYPE svg PUBLIC "-//W3C//DTD SVG 1.1//EN" "http://www.w3.org/Graphics/SVG/1.1/DTD/svg11.dtd">
<svg width="313px" height="72px" viewBox="0 0 313 72" style="background-color: #ffffff00" xmlns="http://www.w3.org/2000/svg" xmlns:xlink="http://www.w3.org/1999/xlink" version="1.1" >
<text x="0" y="0" stroke="none" fill="#000000" transform="matrix(0.1 0 0 0.1 4.62832 67.8)" font-style="normal" font-weight="normal" font-size="200px" font-family="Arial" >
R</text>
<text x="0" y="0" stroke="none" fill="#000000" transform="matrix(0.1 0 0 0.1 19.0717 60)" font-style="normal" font-weight="normal" font-size="150px" font-family="Arial" >
1</text>
<path stroke="none" fill="#000000" transform="matrix(0.1 0 0 0.1 -24.65 -361)" d="M 538.63,4119.24 L 532.748,4108.78 L 668.643,4032.66 L 674.415,4036 L 674.033,4042.78 L 538.63,4119.24 Z " />
<text x="0" y="0" stroke="none" fill="#000000" transform="matrix(0.1 0 0 0.1 35.0132 21.6)" font-style="normal" font-weight="normal" font-size="200px" font-family="Arial" >
OH</text>
<path stroke="none" fill="#000000" transform="matrix(0.1 0 0 0.1 -24.65 -361)" d="M 680.213,4033.03 L 674.415,4036 L 668.643,4032.66 L 668.415,3859.67 L 680.415,3859.67 L 680.213,4033.03 Z " />
<text x="0" y="0" stroke="none" fill="#000000" transform="matrix(0.1 0 0 0.1 58.5114 66.8)" font-style="normal" font-weight="normal" font-size="200px" font-family="Arial" >
R</text>
<text x="0" y="0" stroke="none" fill="#000000" transform="matrix(0.1 0 0 0.1 72.9547 59)" font-style="normal" font-weight="normal" font-size="150px" font-family="Arial" >
2</text>
<path stroke="none" fill="#000000" transform="matrix(0.1 0 0 0.1 -24.65 -361)" d="M 674.033,4042.78 L 674.415,4036 L 680.213,4033.03 L 814.278,4128.61 L 807.299,4138.37 L 674.033,4042.78 Z " />
<path stroke="none" fill="#000000" transform="matrix(0.1 0 0 0.1 -24.65 -361)" d="M 2089.75,3986 L 1375,3986 L 1375,3974 L 2089.75,3974 Z " />
<path stroke="none" fill="#000000" transform="matrix(0.1 0 0 0.1 -24.65 -361)" d="M 2325,3980 C 2325,3980 2055,4048.5 2055,4048.5 C 2055,4048.5 2088.75,4009.97 2088.75,3980 C 2088.75,3949.59 2055,3910.5 2055,3910.5 C 2055,3910.5 2325,3980 2325,3980 C 2325,3980 2325,3980 2325,3980 " />
<path stroke="#000000" stroke-width="1" fill="none" transform="matrix(0.1 0 0 0.1 -24.65 -361)" d="M 2325,3980 C 2325,3980 2055,4048.5 2055,4048.5 C 2055,4048.5 2088.75,4009.97 2088.75,3980 C 2088.75,3949.59 2055,3910.5 2055,3910.5 C 2055,3910.5 2325,3980 2325,3980 C 2325,3980 2325,3980 2325,3980 " />
<text x="0" y="0" stroke="none" fill="#000000" transform="matrix(0.1 0 0 0.1 142.85 27)" font-style="normal" font-weight="normal" font-size="200px" font-family="Arial" >
[O]</text>
<text x="0" y="0" stroke="none" fill="#000000" transform="matrix(0.1 0 0 0.1 231.628 67.8)" font-style="normal" font-weight="normal" font-size="200px" font-family="Arial" >
R</text>
<text x="0" y="0" stroke="none" fill="#000000" transform="matrix(0.1 0 0 0.1 246.072 60)" font-style="normal" font-weight="normal" font-size="150px" font-family="Arial" >
1</text>
<path stroke="none" fill="#000000" transform="matrix(0.1 0 0 0.1 -24.65 -361)" d="M 2808.63,4119.24 L 2802.75,4108.78 L 2944.81,4028.55 L 2944.03,4042.78 L 2808.63,4119.24 Z " />
<text x="0" y="0" stroke="none" fill="#000000" transform="matrix(0.1 0 0 0.1 262.013 21.6)" font-style="normal" font-weight="normal" font-size="200px" font-family="Arial" >
O</text>
<path stroke="none" fill="#000000" transform="matrix(0.1 0 0 0.1 -24.65 -361)" d="M 2924.49,4050.58 L 2912.5,4050.58 L 2912.5,3859.67 L 2924.49,3859.67 L 2924.49,4050.58 Z " />
<path stroke="none" fill="#000000" transform="matrix(0.1 0 0 0.1 -24.65 -361)" d="M 2976.33,4054.53 L 2964.34,4054.53 L 2964.34,3859.67 L 2976.33,3859.67 L 2976.33,4054.53 Z " />
<text x="0" y="0" stroke="none" fill="#000000" transform="matrix(0.1 0 0 0.1 285.511 66.8)" font-style="normal" font-weight="normal" font-size="200px" font-family="Arial" >
R</text>
<text x="0" y="0" stroke="none" fill="#000000" transform="matrix(0.1 0 0 0.1 299.955 59)" font-style="normal" font-weight="normal" font-size="150px" font-family="Arial" >
2</text>
<path stroke="none" fill="#000000" transform="matrix(0.1 0 0 0.1 -24.65 -361)" d="M 2944.03,4042.78 L 2944.81,4028.55 L 3084.28,4128.61 L 3077.3,4138.37 L 2944.03,4042.78 Z " />
</svg>
