<?xml version="1.0" standalone="no" ?>
<!DOCTYPE svg PUBLIC "-//W3C//DTD SVG 1.1//EN" "http://www.w3.org/Graphics/SVG/1.1/DTD/svg11.dtd">
<svg width="466px" height="111px" viewBox="0 0 466 111" style="background-color: #ffffff00" xmlns="http://www.w3.org/2000/svg" xmlns:xlink="http://www.w3.org/1999/xlink" version="1.1" >
<text x="0" y="0" stroke="none" fill="#000000" transform="matrix(0.1 0 0 0.1 4.62832 79.8)" font-style="normal" font-weight="normal" font-size="200px" font-family="Arial" >
R</text>
<path stroke="none" fill="#000000" transform="matrix(0.1 0 0 0.1 -38.65 -343)" d="M 594.396,4105.32 L 588.397,4094.92 L 748.643,4002.65 L 760.659,4009.59 L 594.396,4105.32 Z " />
<text x="0" y="0" stroke="none" fill="#000000" transform="matrix(0.1 0 0 0.1 29.0132 36.6)" font-style="normal" font-weight="normal" font-size="200px" font-family="Arial" >
OH</text>
<path stroke="none" fill="#000000" transform="matrix(0.1 0 0 0.1 -38.65 -343)" d="M 760.659,4009.59 L 748.643,4002.65 L 748.415,3829.67 L 760.415,3829.67 L 760.659,4009.59 Z " />
<text x="0" y="0" stroke="none" fill="#000000" transform="matrix(0.1 0 0 0.1 58.85 67)" font-style="normal" font-weight="normal" font-size="200px" font-family="Arial" >
+</text>
<text x="0" y="0" stroke="none" fill="#000000" transform="matrix(0.1 0 0 0.1 132.628 70.6)" font-style="normal" font-weight="normal" font-size="200px" font-family="Arial" >
N</text>
<path stroke="none" fill="#000000" transform="matrix(0.1 0 0 0.1 -38.65 -343)" d="M 1529.44,3622.45 L 1541.44,3629.38 L 1541.45,3910.73 L 1535.58,3914 L 1529.77,3909.54 L 1529.44,3622.45 Z " />
<path stroke="none" fill="#000000" transform="matrix(0.1 0 0 0.1 -38.65 -343)" d="M 1537.78,3921.74 L 1535.58,3914 L 1541.45,3910.73 L 1690.92,3996.75 L 1684.92,4007.15 L 1537.78,3921.74 Z " />
<path stroke="none" fill="#000000" transform="matrix(0.1 0 0 0.1 -38.65 -343)" d="M 1884.76,4007.33 L 1878.76,3996.94 L 2028.55,3910.73 L 2034.42,3914 L 2033.37,3921.18 L 1884.76,4007.33 Z " />
<path stroke="none" fill="#000000" transform="matrix(0.1 0 0 0.1 -38.65 -343)" d="M 2040.18,3908.24 L 2034.42,3914 L 2028.55,3910.73 L 2028.56,3629.38 L 2040.56,3622.45 L 2040.18,3908.24 Z " />
<path stroke="none" fill="#000000" transform="matrix(0.1 0 0 0.1 -38.65 -343)" d="M 2040.56,3622.45 L 2028.56,3629.38 L 1785,3488.77 L 1785,3474.9 L 2040.56,3622.45 Z " />
<path stroke="none" fill="#000000" transform="matrix(0.1 0 0 0.1 -38.65 -343)" d="M 1785,3474.9 L 1785,3488.77 L 1541.44,3629.38 L 1529.44,3622.45 L 1785,3474.9 Z " />
<path stroke="none" fill="#000000" transform="matrix(0.1 0 0 0.1 -38.65 -343)" d="M 1529.77,3909.54 L 1535.58,3914 L 1524.28,3922.67 L 1258.95,3994.34 L 1255.85,3982.74 L 1529.77,3909.54 Z " />
<path stroke="none" fill="#000000" transform="matrix(0.1 0 0 0.1 -38.65 -343)" d="M 1524.28,3922.67 L 1535.58,3914 L 1537.78,3921.74 L 1396.78,4166.42 L 1386.39,4160.42 L 1524.28,3922.67 Z " />
<path stroke="none" fill="#000000" transform="matrix(0.1 0 0 0.1 -38.65 -343)" d="M 2033.37,3921.18 L 2034.42,3914 L 2047.58,3919.45 L 2242.3,4113.4 L 2233.82,4121.89 L 2033.37,3921.18 Z " />
<path stroke="none" fill="#000000" transform="matrix(0.1 0 0 0.1 -38.65 -343)" d="M 2047.58,3919.45 L 2034.42,3914 L 2040.18,3908.24 L 2322.42,3908 L 2322.42,3920 L 2047.58,3919.45 Z " />
<text x="0" y="0" stroke="none" fill="#000000" transform="matrix(0.1 0 0 0.1 132.072 99.4)" font-style="normal" font-weight="normal" font-size="200px" font-family="Arial" >
O</text>
<path stroke="none" fill="#000000" transform="matrix(0.1 0 0 0.1 -38.65 -343)" d="M 1779,4167.17 L 1791,4167.17 L 1791,4248.67 L 1779,4248.67 L 1779,4167.17 Z " />
<path stroke="none" fill="#000000" transform="matrix(0.1 0 0 0.1 -38.65 -343)" d="M 1768.33,4479.5 A 16.6667,16.6667 0 1 0 1801.67,4479.5A 16.6667,16.6667 0 1 0 1768.33,4479.5Z " />
<path stroke="none" fill="#000000" transform="matrix(0.1 0 0 0.1 -38.65 -343)" d="M 3909.75,3916 L 2575,3916 L 2575,3904 L 3909.75,3904 Z " />
<path stroke="none" fill="#000000" transform="matrix(0.1 0 0 0.1 -38.65 -343)" d="M 4145,3910 C 4145,3910 3875,3978.5 3875,3978.5 C 3875,3978.5 3908.75,3939.97 3908.75,3910 C 3908.75,3879.59 3875,3840.5 3875,3840.5 C 3875,3840.5 4145,3910 4145,3910 C 4145,3910 4145,3910 4145,3910 " />
<path stroke="#000000" stroke-width="1" fill="none" transform="matrix(0.1 0 0 0.1 -38.65 -343)" d="M 4145,3910 C 4145,3910 3875,3978.5 3875,3978.5 C 3875,3978.5 3908.75,3939.97 3908.75,3910 C 3908.75,3879.59 3875,3840.5 3875,3840.5 C 3875,3840.5 4145,3910 4145,3910 C 4145,3910 4145,3910 4145,3910 " />
<text x="0" y="0" stroke="none" fill="#000000" transform="matrix(0.1 0 0 0.1 235.85 41)" font-style="normal" font-weight="normal" font-size="200px" font-family="Arial" >
NaOCl </text>
<text x="0" y="0" stroke="none" fill="#000000" transform="matrix(0.1 0 0 0.1 301.416 41)" font-style="normal" font-weight="normal" font-size="200px" font-family="Arial" >
(aq)</text>
<text x="0" y="0" stroke="none" fill="#000000" transform="matrix(0.1 0 0 0.1 232.85 73)" font-style="normal" font-weight="normal" font-size="200px" font-family="Arial" >
H</text>
<text x="0" y="0" stroke="none" fill="#000000" transform="matrix(0.1 0 0 0.1 247.293 77.4)" font-style="normal" font-weight="normal" font-size="150px" font-family="Arial" >
2</text>
<text x="0" y="0" stroke="none" fill="#000000" transform="matrix(0.1 0 0 0.1 255.636 73)" font-style="normal" font-weight="normal" font-size="200px" font-family="Arial" >
O: </text>
<text x="0" y="0" stroke="none" fill="#000000" transform="matrix(0.1 0 0 0.1 282.306 73)" font-style="normal" font-weight="normal" font-size="200px" font-family="Arial" >
Solvent</text>
<text x="0" y="0" stroke="none" fill="#000000" transform="matrix(0.1 0 0 0.1 397.628 76.8)" font-style="normal" font-weight="normal" font-size="200px" font-family="Arial" >
R</text>
<path stroke="none" fill="#000000" transform="matrix(0.1 0 0 0.1 -38.65 -343)" d="M 4524.4,4075.32 L 4518.4,4064.92 L 4684.43,3968.8 L 4684.43,3982.67 L 4524.4,4075.32 Z " />
<text x="0" y="0" stroke="none" fill="#000000" transform="matrix(0.1 0 0 0.1 422.013 33.6)" font-style="normal" font-weight="normal" font-size="200px" font-family="Arial" >
O</text>
<path stroke="none" fill="#000000" transform="matrix(0.1 0 0 0.1 -38.65 -343)" d="M 4664.49,3990.96 L 4652.5,3990.96 L 4652.5,3799.67 L 4664.49,3799.67 L 4664.49,3990.96 Z " />
<path stroke="none" fill="#000000" transform="matrix(0.1 0 0 0.1 -38.65 -343)" d="M 4716.33,3990.96 L 4704.34,3990.96 L 4704.34,3799.67 L 4716.33,3799.67 L 4716.33,3990.96 Z " />
<text x="0" y="0" stroke="none" fill="#000000" transform="matrix(0.1 0 0 0.1 447.511 76.8)" font-style="normal" font-weight="normal" font-size="200px" font-family="Arial" >
H</text>
<path stroke="none" fill="#000000" transform="matrix(0.1 0 0 0.1 -38.65 -343)" d="M 4684.43,3982.67 L 4684.43,3968.8 L 4840.5,4059.19 L 4834.5,4069.58 L 4684.43,3982.67 Z " />
</svg>
