<?xml version="1.0" standalone="no" ?>
<!DOCTYPE svg PUBLIC "-//W3C//DTD SVG 1.1//EN" "http://www.w3.org/Graphics/SVG/1.1/DTD/svg11.dtd">
<svg width="818px" height="114px" viewBox="0 0 818 114" style="background-color: #ffffff00" xmlns="http://www.w3.org/2000/svg" xmlns:xlink="http://www.w3.org/1999/xlink" version="1.1" >
<text x="0" y="0" stroke="none" fill="#000000" transform="matrix(0.1 0 0 0.1 4.94863 64.8)" font-style="normal" font-weight="normal" font-size="200px" font-family="Arial" >
Ph</text>
<path stroke="none" fill="#000000" transform="matrix(0.1 0 0 0.1 -40.65 -176)" d="M 708.259,2300.41 L 702.259,2290.01 L 894.372,2178.87 L 894.366,2192.74 L 708.259,2300.41 Z " />
<path stroke="none" fill="#000000" transform="matrix(0.1 0 0 0.1 -40.65 -176)" d="M 894.366,2192.74 L 894.372,2178.87 L 1143.92,2323.28 L 1143.91,2337.15 L 894.366,2192.74 Z " />
<text x="0" y="0" stroke="none" fill="#000000" transform="matrix(0.1 0 0 0.1 90.8962 50.4)" font-style="normal" font-weight="normal" font-size="200px" font-family="Arial" >
OH</text>
<path stroke="none" fill="#000000" transform="matrix(0.1 0 0 0.1 -40.65 -176)" d="M 1143.91,2337.15 L 1143.92,2323.28 L 1297.69,2234.24 L 1303.69,2244.63 L 1143.91,2337.15 Z " />
<text x="0" y="0" stroke="none" fill="#000000" transform="matrix(0.1 0 0 0.1 65.9547 93.6)" font-style="normal" font-weight="normal" font-size="200px" font-family="Arial" >
O</text>
<path stroke="none" fill="#000000" transform="matrix(0.1 0 0 0.1 -40.65 -176)" d="M 1163.75,2315.04 L 1175.75,2315.04 L 1175.75,2520.67 L 1163.75,2520.67 L 1163.75,2315.04 Z " />
<path stroke="none" fill="#000000" transform="matrix(0.1 0 0 0.1 -40.65 -176)" d="M 1111.91,2315.04 L 1123.91,2315.04 L 1123.91,2520.67 L 1111.91,2520.67 L 1111.91,2315.04 Z " />
<text x="0" y="0" stroke="none" fill="#000000" transform="matrix(0.1 0 0 0.1 123.85 79)" font-style="normal" font-weight="normal" font-size="200px" font-family="Arial" >
+</text>
<path stroke="none" fill="#000000" transform="matrix(0.1 0 0 0.1 -40.65 -176)" d="M 2524.91,2647.16 L 2524.89,2633.29 L 2768.56,2492.62 L 2774.42,2496 L 2774.42,2502.77 L 2524.91,2647.16 Z " />
<text x="0" y="0" stroke="none" fill="#000000" transform="matrix(0.1 0 0 0.1 156.901 81.4)" font-style="normal" font-weight="normal" font-size="200px" font-family="Arial" >
H</text>
<text x="0" y="0" stroke="none" fill="#000000" transform="matrix(0.1 0 0 0.1 171.345 85.8)" font-style="normal" font-weight="normal" font-size="150px" font-family="Arial" >
2</text>
<text x="0" y="0" stroke="none" fill="#000000" transform="matrix(0.1 0 0 0.1 179.687 81.4)" font-style="normal" font-weight="normal" font-size="200px" font-family="Arial" >
N</text>
<path stroke="none" fill="#000000" transform="matrix(0.1 0 0 0.1 -40.65 -176)" d="M 2524.89,2633.29 L 2524.91,2647.16 L 2374.04,2559.77 L 2380.04,2549.38 L 2524.89,2633.29 Z " />
<path stroke="none" fill="#000000" transform="matrix(0.1 0 0 0.1 -40.65 -176)" d="M 2774.42,2502.77 L 2774.42,2496 L 2780.27,2492.62 L 3023.83,2633.23 L 3023.83,2647.1 L 2774.42,2502.77 Z " />
<path stroke="none" fill="#000000" transform="matrix(0.1 0 0 0.1 -40.65 -176)" d="M 2823.26,2471.27 L 2829.26,2460.87 L 3026.83,2574.94 L 3020.83,2585.34 L 2823.26,2471.27 Z " />
<path stroke="none" fill="#000000" transform="matrix(0.1 0 0 0.1 -40.65 -176)" d="M 3023.83,2647.1 L 3023.83,2633.23 L 3267.39,2492.62 L 3279.39,2499.55 L 3023.83,2647.1 Z " />
<path stroke="none" fill="#000000" transform="matrix(0.1 0 0 0.1 -40.65 -176)" d="M 3279.39,2499.55 L 3267.39,2492.62 L 3267.39,2211.38 L 3273.25,2208 L 3279.11,2211.28 L 3279.39,2499.55 Z " />
<path stroke="none" fill="#000000" transform="matrix(0.1 0 0 0.1 -40.65 -176)" d="M 3227.41,2466.07 L 3215.41,2466.07 L 3215.41,2237.93 L 3227.41,2237.93 L 3227.41,2466.07 Z " />
<path stroke="none" fill="#000000" transform="matrix(0.1 0 0 0.1 -40.65 -176)" d="M 3273.34,2201.28 L 3273.25,2208 L 3267.39,2211.38 L 3023.83,2070.77 L 3023.83,2056.9 L 3273.34,2201.28 Z " />
<path stroke="none" fill="#000000" transform="matrix(0.1 0 0 0.1 -40.65 -176)" d="M 3023.83,2056.9 L 3023.83,2070.77 L 2780.27,2211.38 L 2768.27,2204.45 L 3023.83,2056.9 Z " />
<path stroke="none" fill="#000000" transform="matrix(0.1 0 0 0.1 -40.65 -176)" d="M 3020.83,2118.66 L 3026.83,2129.06 L 2829.26,2243.13 L 2823.26,2232.73 L 3020.83,2118.66 Z " />
<path stroke="none" fill="#000000" transform="matrix(0.1 0 0 0.1 -40.65 -176)" d="M 2768.27,2204.45 L 2780.27,2211.38 L 2780.27,2492.62 L 2774.42,2496 L 2768.56,2492.62 L 2768.27,2204.45 Z " />
<text x="0" y="0" stroke="none" fill="#000000" transform="matrix(0.1 0 0 0.1 303.838 38.2)" font-style="normal" font-weight="normal" font-size="200px" font-family="Arial" >
OMe</text>
<path stroke="none" fill="#000000" transform="matrix(0.1 0 0 0.1 -40.65 -176)" d="M 3279.11,2211.28 L 3273.25,2208 L 3273.34,2201.28 L 3427.1,2112.24 L 3433.1,2122.63 L 3279.11,2211.28 Z " />
<path stroke="none" fill="#000000" transform="matrix(0.1 0 0 0.1 -40.65 -176)" d="M 5499.75,2436 L 4005,2436 L 4005,2424 L 5499.75,2424 Z " />
<path stroke="none" fill="#000000" transform="matrix(0.1 0 0 0.1 -40.65 -176)" d="M 5735,2430 C 5735,2430 5465,2498.5 5465,2498.5 C 5465,2498.5 5498.75,2459.97 5498.75,2430 C 5498.75,2399.59 5465,2360.5 5465,2360.5 C 5465,2360.5 5735,2430 5735,2430 C 5735,2430 5735,2430 5735,2430 " />
<path stroke="#000000" stroke-width="1" fill="none" transform="matrix(0.1 0 0 0.1 -40.65 -176)" d="M 5735,2430 C 5735,2430 5465,2498.5 5465,2498.5 C 5465,2498.5 5498.75,2459.97 5498.75,2430 C 5498.75,2399.59 5465,2360.5 5465,2360.5 C 5465,2360.5 5735,2430 5735,2430 C 5735,2430 5735,2430 5735,2430 " />
<text x="0" y="0" stroke="none" fill="#000000" transform="matrix(0.1 0 0 0.1 367.85 28)" font-style="normal" font-weight="normal" font-size="200px" font-family="Arial" >
HATU </text>
<text x="0" y="0" stroke="none" fill="#000000" transform="matrix(0.1 0 0 0.1 427.85 28)" font-style="normal" font-weight="normal" font-size="200px" font-family="Arial" >
(1.2 </text>
<text x="0" y="0" stroke="none" fill="#000000" transform="matrix(0.1 0 0 0.1 467.87 28)" font-style="normal" font-weight="normal" font-size="200px" font-family="Arial" >
eq.)</text>
<text x="0" y="0" stroke="none" fill="#000000" transform="matrix(0.1 0 0 0.1 367.85 48.5)" font-style="normal" font-weight="normal" font-size="150px" font-family="Arial" >
i</text>
<text x="0" y="0" stroke="none" fill="#000000" transform="matrix(0.1 0 0 0.1 371.183 56.3)" font-style="normal" font-weight="normal" font-size="200px" font-family="Arial" >
Pr</text>
<text x="0" y="0" stroke="none" fill="#000000" transform="matrix(0.1 0 0 0.1 391.183 60.7)" font-style="normal" font-weight="normal" font-size="150px" font-family="Arial" >
2</text>
<text x="0" y="0" stroke="none" fill="#000000" transform="matrix(0.1 0 0 0.1 399.525 56.3)" font-style="normal" font-weight="normal" font-size="200px" font-family="Arial" >
NEt </text>
<text x="0" y="0" stroke="none" fill="#000000" transform="matrix(0.1 0 0 0.1 438.421 56.3)" font-style="normal" font-weight="normal" font-size="200px" font-family="Arial" >
(2 </text>
<text x="0" y="0" stroke="none" fill="#000000" transform="matrix(0.1 0 0 0.1 461.761 56.3)" font-style="normal" font-weight="normal" font-size="200px" font-family="Arial" >
eq.)</text>
<text x="0" y="0" stroke="none" fill="#000000" transform="matrix(0.1 0 0 0.1 377.85 90)" font-style="normal" font-weight="normal" font-size="200px" font-family="Arial" >
Solvent, </text>
<text x="0" y="0" stroke="none" fill="#000000" transform="matrix(0.1 0 0 0.1 455.672 90)" font-style="normal" font-weight="normal" font-size="200px" font-family="Arial" >
rT</text>
<text x="0" y="0" stroke="none" fill="#000000" transform="matrix(0.1 0 0 0.1 559.949 80.8)" font-style="normal" font-weight="normal" font-size="200px" font-family="Arial" >
Ph</text>
<path stroke="none" fill="#000000" transform="matrix(0.1 0 0 0.1 -40.65 -176)" d="M 6258.26,2460.41 L 6252.26,2450.01 L 6444.37,2338.87 L 6444.37,2352.74 L 6258.26,2460.41 Z " />
<path stroke="none" fill="#000000" transform="matrix(0.1 0 0 0.1 -40.65 -176)" d="M 6444.37,2352.74 L 6444.37,2338.87 L 6693.94,2483.29 L 6693.93,2497.16 L 6444.37,2352.74 Z " />
<text x="0" y="0" stroke="none" fill="#000000" transform="matrix(0.1 0 0 0.1 646.453 49.7167)" font-style="normal" font-weight="normal" font-size="200px" font-family="Arial" >
H</text>
<text x="0" y="0" stroke="none" fill="#000000" transform="matrix(0.1 0 0 0.1 646.453 66.4)" font-style="normal" font-weight="normal" font-size="200px" font-family="Arial" >
N</text>
<path stroke="none" fill="#000000" transform="matrix(0.1 0 0 0.1 -40.65 -176)" d="M 6693.93,2497.16 L 6693.94,2483.29 L 6837.32,2400.23 L 6843.32,2410.62 L 6693.93,2497.16 Z " />
<text x="0" y="0" stroke="none" fill="#000000" transform="matrix(0.1 0 0 0.1 620.955 109.6)" font-style="normal" font-weight="normal" font-size="200px" font-family="Arial" >
O</text>
<path stroke="none" fill="#000000" transform="matrix(0.1 0 0 0.1 -40.65 -176)" d="M 6713.75,2475.04 L 6725.75,2475.04 L 6725.75,2680.67 L 6713.75,2680.67 L 6713.75,2475.04 Z " />
<path stroke="none" fill="#000000" transform="matrix(0.1 0 0 0.1 -40.65 -176)" d="M 6661.91,2475.04 L 6673.91,2475.04 L 6673.91,2680.67 L 6661.91,2680.67 L 6661.91,2475.04 Z " />
<path stroke="none" fill="#000000" transform="matrix(0.1 0 0 0.1 -40.65 -176)" d="M 7042.42,2410.18 L 7048.42,2399.79 L 7192.55,2483.29 L 7192.57,2497.16 L 7042.42,2410.18 Z " />
<path stroke="none" fill="#000000" transform="matrix(0.1 0 0 0.1 -40.65 -176)" d="M 7192.57,2497.16 L 7192.55,2483.29 L 7436.22,2342.62 L 7442.08,2346 L 7442.08,2352.77 L 7192.57,2497.16 Z " />
<path stroke="none" fill="#000000" transform="matrix(0.1 0 0 0.1 -40.65 -176)" d="M 7442.08,2352.77 L 7442.08,2346 L 7447.93,2342.62 L 7691.49,2483.23 L 7691.49,2497.1 L 7442.08,2352.77 Z " />
<path stroke="none" fill="#000000" transform="matrix(0.1 0 0 0.1 -40.65 -176)" d="M 7490.92,2321.27 L 7496.92,2310.87 L 7694.49,2424.94 L 7688.49,2435.34 L 7490.92,2321.27 Z " />
<path stroke="none" fill="#000000" transform="matrix(0.1 0 0 0.1 -40.65 -176)" d="M 7691.49,2497.1 L 7691.49,2483.23 L 7935.05,2342.62 L 7947.05,2349.55 L 7691.49,2497.1 Z " />
<path stroke="none" fill="#000000" transform="matrix(0.1 0 0 0.1 -40.65 -176)" d="M 7947.05,2349.55 L 7935.05,2342.62 L 7935.05,2061.38 L 7940.91,2058 L 7946.77,2061.28 L 7947.05,2349.55 Z " />
<path stroke="none" fill="#000000" transform="matrix(0.1 0 0 0.1 -40.65 -176)" d="M 7895.07,2316.07 L 7883.07,2316.07 L 7883.07,2087.93 L 7895.07,2087.93 L 7895.07,2316.07 Z " />
<path stroke="none" fill="#000000" transform="matrix(0.1 0 0 0.1 -40.65 -176)" d="M 7941,2051.28 L 7940.91,2058 L 7935.05,2061.38 L 7691.49,1920.77 L 7691.49,1906.9 L 7941,2051.28 Z " />
<path stroke="none" fill="#000000" transform="matrix(0.1 0 0 0.1 -40.65 -176)" d="M 7691.49,1906.9 L 7691.49,1920.77 L 7447.93,2061.38 L 7435.93,2054.45 L 7691.49,1906.9 Z " />
<path stroke="none" fill="#000000" transform="matrix(0.1 0 0 0.1 -40.65 -176)" d="M 7688.49,1968.66 L 7694.49,1979.06 L 7496.92,2093.13 L 7490.92,2082.73 L 7688.49,1968.66 Z " />
<path stroke="none" fill="#000000" transform="matrix(0.1 0 0 0.1 -40.65 -176)" d="M 7435.93,2054.45 L 7447.93,2061.38 L 7447.93,2342.62 L 7442.08,2346 L 7436.22,2342.62 L 7435.93,2054.45 Z " />
<text x="0" y="0" stroke="none" fill="#000000" transform="matrix(0.1 0 0 0.1 770.604 23.2)" font-style="normal" font-weight="normal" font-size="200px" font-family="Arial" >
OMe</text>
<path stroke="none" fill="#000000" transform="matrix(0.1 0 0 0.1 -40.65 -176)" d="M 7946.77,2061.28 L 7940.91,2058 L 7941,2051.28 L 8094.77,1962.24 L 8100.77,1972.63 L 7946.77,2061.28 Z " />
</svg>
