<?xml version="1.0" standalone="no" ?>
<!DOCTYPE svg PUBLIC "-//W3C//DTD SVG 1.1//EN" "http://www.w3.org/Graphics/SVG/1.1/DTD/svg11.dtd">
<svg width="662px" height="332px" viewBox="0 0 662 332" style="background-color: #ffffff00" xmlns="http://www.w3.org/2000/svg" xmlns:xlink="http://www.w3.org/1999/xlink" version="1.1" >
<text x="0" y="0" stroke="none" fill="#000000" transform="matrix(0.1 0 0 0.1 4.62832 79.8)" font-style="normal" font-weight="normal" font-size="200px" font-family="Arial" >
R</text>
<text x="0" y="0" stroke="none" fill="#000000" transform="matrix(0.1 0 0 0.1 19.0717 72)" font-style="normal" font-weight="normal" font-size="150px" font-family="Arial" >
1</text>
<path stroke="none" fill="#000000" transform="matrix(0.1 0 0 0.1 -171.65 -226)" d="M 2009.46,2891.8 L 2003.72,2881.26 L 2154.48,2798.85 L 2154.3,2812.63 L 2009.46,2891.8 Z " />
<text x="0" y="0" stroke="none" fill="#000000" transform="matrix(0.1 0 0 0.1 60.9547 76.8)" font-style="normal" font-weight="normal" font-size="200px" font-family="Arial" >
OH</text>
<path stroke="none" fill="#000000" transform="matrix(0.1 0 0 0.1 -171.65 -226)" d="M 2154.3,2812.63 L 2154.48,2798.85 L 2321.35,2895.45 L 2315.35,2905.84 L 2154.3,2812.63 Z " />
<text x="0" y="0" stroke="none" fill="#000000" transform="matrix(0.1 0 0 0.1 36.0132 33.6)" font-style="normal" font-weight="normal" font-size="200px" font-family="Arial" >
O</text>
<path stroke="none" fill="#000000" transform="matrix(0.1 0 0 0.1 -171.65 -226)" d="M 2134.5,2820.12 L 2122.5,2820.12 L 2122.5,2629.67 L 2134.5,2629.67 L 2134.5,2820.12 Z " />
<path stroke="none" fill="#000000" transform="matrix(0.1 0 0 0.1 -171.65 -226)" d="M 2186.34,2820.96 L 2174.34,2820.96 L 2174.34,2629.67 L 2186.34,2629.67 L 2186.34,2820.96 Z " />
<text x="0" y="0" stroke="none" fill="#000000" transform="matrix(0.1 0 0 0.1 107.85 59)" font-style="normal" font-weight="normal" font-size="200px" font-family="Arial" >
+</text>
<text x="0" y="0" stroke="none" fill="#000000" transform="matrix(0.1 0 0 0.1 137.843 67.8)" font-style="normal" font-weight="normal" font-size="200px" font-family="Arial" >
H</text>
<text x="0" y="0" stroke="none" fill="#000000" transform="matrix(0.1 0 0 0.1 152.286 72.2)" font-style="normal" font-weight="normal" font-size="150px" font-family="Arial" >
2</text>
<text x="0" y="0" stroke="none" fill="#000000" transform="matrix(0.1 0 0 0.1 160.628 67.8)" font-style="normal" font-weight="normal" font-size="200px" font-family="Arial" >
N</text>
<text x="0" y="0" stroke="none" fill="#000000" transform="matrix(0.1 0 0 0.1 195.57 49.4)" font-style="normal" font-weight="normal" font-size="200px" font-family="Arial" >
R</text>
<text x="0" y="0" stroke="none" fill="#000000" transform="matrix(0.1 0 0 0.1 210.013 41.6)" font-style="normal" font-weight="normal" font-size="150px" font-family="Arial" >
2</text>
<path stroke="none" fill="#000000" transform="matrix(0.1 0 0 0.1 -171.65 -226)" d="M 3495.02,2814.11 L 3489.42,2803.5 L 3639.61,2724.41 L 3645.2,2735.03 L 3495.02,2814.11 Z " />
<path stroke="none" fill="#000000" transform="matrix(0.1 0 0 0.1 -171.65 -226)" d="M 5919.75,2766 L 4185,2766 L 4185,2754 L 5919.75,2754 Z " />
<path stroke="none" fill="#000000" transform="matrix(0.1 0 0 0.1 -171.65 -226)" d="M 6155,2760 C 6155,2760 5885,2828.5 5885,2828.5 C 5885,2828.5 5918.75,2789.97 5918.75,2760 C 5918.75,2729.59 5885,2690.5 5885,2690.5 C 5885,2690.5 6155,2760 6155,2760 C 6155,2760 6155,2760 6155,2760 " />
<path stroke="#000000" stroke-width="1" fill="none" transform="matrix(0.1 0 0 0.1 -171.65 -226)" d="M 6155,2760 C 6155,2760 5885,2828.5 5885,2828.5 C 5885,2828.5 5918.75,2789.97 5918.75,2760 C 5918.75,2729.59 5885,2690.5 5885,2690.5 C 5885,2690.5 6155,2760 6155,2760 C 6155,2760 6155,2760 6155,2760 " />
<text x="0" y="0" stroke="none" fill="#000000" transform="matrix(0.1 0 0 0.1 249.85 40)" font-style="normal" font-weight="normal" font-size="200px" font-family="Arial" >
Coupling </text>
<text x="0" y="0" stroke="none" fill="#000000" transform="matrix(0.1 0 0 0.1 334.352 40)" font-style="normal" font-weight="normal" font-size="200px" font-family="Arial" >
Reagent</text>
<text x="0" y="0" stroke="none" fill="#000000" transform="matrix(0.1 0 0 0.1 307.85 75)" font-style="normal" font-weight="normal" font-size="200px" font-family="Arial" >
Base</text>
<text x="0" y="0" stroke="none" fill="#000000" transform="matrix(0.1 0 0 0.1 465.57 35.4)" font-style="normal" font-weight="normal" font-size="200px" font-family="Arial" >
R</text>
<text x="0" y="0" stroke="none" fill="#000000" transform="matrix(0.1 0 0 0.1 480.013 27.6)" font-style="normal" font-weight="normal" font-size="150px" font-family="Arial" >
1</text>
<path stroke="none" fill="#000000" transform="matrix(0.1 0 0 0.1 -171.65 -226)" d="M 6552.88,2604.36 L 6558.79,2593.92 L 6733.85,2693.34 L 6733.9,2707.18 L 6552.88,2604.36 Z " />
<text x="0" y="0" stroke="none" fill="#000000" transform="matrix(0.1 0 0 0.1 519.453 20.7167)" font-style="normal" font-weight="normal" font-size="200px" font-family="Arial" >
H</text>
<text x="0" y="0" stroke="none" fill="#000000" transform="matrix(0.1 0 0 0.1 519.453 37.4)" font-style="normal" font-weight="normal" font-size="200px" font-family="Arial" >
N</text>
<path stroke="none" fill="#000000" transform="matrix(0.1 0 0 0.1 -171.65 -226)" d="M 6733.9,2707.18 L 6733.85,2693.34 L 6877.32,2610.23 L 6883.32,2620.62 L 6733.9,2707.18 Z " />
<text x="0" y="0" stroke="none" fill="#000000" transform="matrix(0.1 0 0 0.1 493.955 80.6)" font-style="normal" font-weight="normal" font-size="200px" font-family="Arial" >
O</text>
<path stroke="none" fill="#000000" transform="matrix(0.1 0 0 0.1 -171.65 -226)" d="M 6753.75,2685.04 L 6765.75,2685.04 L 6765.75,2890.67 L 6753.75,2890.67 L 6753.75,2685.04 Z " />
<path stroke="none" fill="#000000" transform="matrix(0.1 0 0 0.1 -171.65 -226)" d="M 6701.91,2685.31 L 6713.91,2685.31 L 6713.91,2890.67 L 6701.91,2890.67 L 6701.91,2685.31 Z " />
<text x="0" y="0" stroke="none" fill="#000000" transform="matrix(0.1 0 0 0.1 552.394 55.8)" font-style="normal" font-weight="normal" font-size="200px" font-family="Arial" >
R</text>
<text x="0" y="0" stroke="none" fill="#000000" transform="matrix(0.1 0 0 0.1 566.838 48)" font-style="normal" font-weight="normal" font-size="150px" font-family="Arial" >
2</text>
<path stroke="none" fill="#000000" transform="matrix(0.1 0 0 0.1 -171.65 -226)" d="M 7082.42,2618.27 L 7088.27,2607.79 L 7217.98,2680.24 L 7212.13,2690.72 L 7082.42,2618.27 Z " />
<text x="0" y="0" stroke="none" fill="#000000" transform="matrix(0.1 0 0 0.1 587.85 57)" font-style="normal" font-weight="normal" font-size="200px" font-family="Arial" >
+</text>
<text x="0" y="0" stroke="none" fill="#000000" transform="matrix(0.1 0 0 0.1 618.85 56)" font-style="normal" font-weight="normal" font-size="200px" font-family="Arial" >
H</text>
<text x="0" y="0" stroke="none" fill="#000000" transform="matrix(0.1 0 0 0.1 633.293 60.4)" font-style="normal" font-weight="normal" font-size="150px" font-family="Arial" >
2</text>
<text x="0" y="0" stroke="none" fill="#000000" transform="matrix(0.1 0 0 0.1 641.636 56)" font-style="normal" font-weight="normal" font-size="200px" font-family="Arial" >
O</text>
<text x="0" y="0" stroke="none" fill="#000000" transform="matrix(0.1 0 0 0.1 208.85 135)" font-style="normal" font-weight="bold" font-size="200px" font-family="Arial" >
Common </text>
<text x="0" y="0" stroke="none" fill="#000000" transform="matrix(0.1 0 0 0.1 301.067 135)" font-style="normal" font-weight="bold" font-size="200px" font-family="Arial" >
coupling </text>
<text x="0" y="0" stroke="none" fill="#000000" transform="matrix(0.1 0 0 0.1 389.944 135)" font-style="normal" font-weight="bold" font-size="200px" font-family="Arial" >
reagents</text>
<text x="0" y="0" stroke="none" fill="#000000" transform="matrix(0.1 0 0 0.1 95.349 215.8)" font-style="normal" font-weight="normal" font-size="200px" font-family="Arial" >
•</text>
<text x="0" y="0" stroke="none" fill="#000000" transform="matrix(0.1 0 0 0.1 112.867 196.349)" font-style="normal" font-weight="normal" font-size="200px" font-family="Arial" >
N</text>
<path stroke="none" fill="#000000" transform="matrix(0.1 0 0 0.1 -171.65 -226)" d="M 2728.47,4291.49 L 2720.37,4282.64 L 2803.23,4206.76 L 2811.33,4215.61 L 2728.47,4291.49 Z " />
<path stroke="none" fill="#000000" transform="matrix(0.1 0 0 0.1 -171.65 -226)" d="M 2763.48,4329.72 L 2755.38,4320.88 L 2838.24,4244.99 L 2846.34,4253.84 L 2763.48,4329.72 Z " />
<text x="0" y="0" stroke="none" fill="#000000" transform="matrix(0.1 0 0 0.1 70.3892 235.251)" font-style="normal" font-weight="normal" font-size="200px" font-family="Arial" >
N</text>
<path stroke="none" fill="#000000" transform="matrix(0.1 0 0 0.1 -171.65 -226)" d="M 2672.03,4397.21 L 2680.13,4406.06 L 2599.4,4479.99 L 2591.3,4471.14 L 2672.03,4397.21 Z " />
<path stroke="none" fill="#000000" transform="matrix(0.1 0 0 0.1 -171.65 -226)" d="M 2637.02,4358.98 L 2645.12,4367.83 L 2564.39,4441.76 L 2556.28,4432.91 L 2637.02,4358.98 Z " />
<path stroke="none" fill="#000000" transform="matrix(0.1 0 0 0.1 -171.65 -226)" d="M 2395.95,4614.9 L 2404.05,4623.75 L 2286.65,4730.92 L 2280.22,4729.02 L 2278.89,4722.45 L 2395.95,4614.9 Z " />
<path stroke="none" fill="#000000" transform="matrix(0.1 0 0 0.1 -171.65 -226)" d="M 2275.23,4733.59 L 2280.22,4729.02 L 2286.65,4730.92 L 2348.33,5008.91 L 2336.62,5011.51 L 2275.23,4733.59 Z " />
<path stroke="none" fill="#000000" transform="matrix(0.1 0 0 0.1 -171.65 -226)" d="M 2278.89,4722.45 L 2280.22,4729.02 L 2275.23,4733.59 L 2003.77,4648.06 L 2007.38,4636.62 L 2278.89,4722.45 Z " />
<path stroke="none" fill="#000000" transform="matrix(0.1 0 0 0.1 -171.65 -226)" d="M 3006.68,4071.86 L 2998.57,4063.01 L 3122.22,3950.25 L 3129.78,3950.98 L 3131.13,3957.56 L 3006.68,4071.86 Z " />
<path stroke="none" fill="#000000" transform="matrix(0.1 0 0 0.1 -171.65 -226)" d="M 3131.13,3957.56 L 3129.78,3950.98 L 3133.53,3945.96 L 3406.23,4031.94 L 3402.62,4043.38 L 3131.13,3957.56 Z " />
<path stroke="none" fill="#000000" transform="matrix(0.1 0 0 0.1 -171.65 -226)" d="M 3133.53,3945.96 L 3129.78,3950.98 L 3122.22,3950.25 L 2932.57,3673.18 L 2942.48,3666.4 L 3133.53,3945.96 Z " />
<text x="0" y="0" stroke="none" fill="#000000" transform="matrix(0.1 0 0 0.1 98.85 295)" font-style="normal" font-weight="normal" font-size="200px" font-family="Arial" >
DIC/HOBt</text>
<text x="0" y="0" stroke="none" fill="#000000" transform="matrix(0.1 0 0 0.1 109.85 248)" font-style="normal" font-weight="normal" font-size="200px" font-family="Arial" >
+</text>
<path stroke="none" fill="#000000" transform="matrix(0.1 0 0 0.1 -171.65 -226)" d="M 3109.44,4492.45 L 3121.44,4499.38 L 3121.44,4780.62 L 3109.44,4787.55 L 3109.44,4492.45 Z " />
<path stroke="none" fill="#000000" transform="matrix(0.1 0 0 0.1 -171.65 -226)" d="M 3161.42,4525.93 L 3173.42,4525.93 L 3173.42,4754.07 L 3161.42,4754.07 L 3161.42,4525.93 Z " />
<path stroke="none" fill="#000000" transform="matrix(0.1 0 0 0.1 -171.65 -226)" d="M 3109.44,4787.55 L 3121.44,4780.62 L 3365,4921.23 L 3365,4935.1 L 3109.44,4787.55 Z " />
<path stroke="none" fill="#000000" transform="matrix(0.1 0 0 0.1 -171.65 -226)" d="M 3365,4935.1 L 3365,4921.23 L 3608.56,4780.62 L 3614.42,4784 L 3615.17,4790.37 L 3365,4935.1 Z " />
<path stroke="none" fill="#000000" transform="matrix(0.1 0 0 0.1 -171.65 -226)" d="M 3368,4873.34 L 3362,4862.94 L 3559.58,4748.87 L 3565.58,4759.27 L 3368,4873.34 Z " />
<path stroke="none" fill="#000000" transform="matrix(0.1 0 0 0.1 -171.65 -226)" d="M 3620.24,4779.88 L 3614.42,4784 L 3608.56,4780.62 L 3608.56,4499.38 L 3614.42,4496 L 3620.24,4500.12 L 3620.24,4779.88 Z " />
<path stroke="none" fill="#000000" transform="matrix(0.1 0 0 0.1 -171.65 -226)" d="M 3615.17,4489.63 L 3614.42,4496 L 3608.56,4499.38 L 3365,4358.77 L 3365,4344.9 L 3615.17,4489.63 Z " />
<path stroke="none" fill="#000000" transform="matrix(0.1 0 0 0.1 -171.65 -226)" d="M 3565.58,4520.73 L 3559.58,4531.13 L 3362,4417.06 L 3368,4406.66 L 3565.58,4520.73 Z " />
<path stroke="none" fill="#000000" transform="matrix(0.1 0 0 0.1 -171.65 -226)" d="M 3365,4344.9 L 3365,4358.77 L 3121.44,4499.38 L 3109.44,4492.45 L 3365,4344.9 Z " />
<text x="0" y="0" stroke="none" fill="#000000" transform="matrix(0.1 0 0 0.1 209.96 269.1)" font-style="normal" font-weight="normal" font-size="200px" font-family="Arial" >
N</text>
<text x="0" y="0" stroke="none" fill="#000000" transform="matrix(0.1 0 0 0.1 226.888 245.8)" font-style="normal" font-weight="normal" font-size="200px" font-family="Arial" >
N</text>
<text x="0" y="0" stroke="none" fill="#000000" transform="matrix(0.1 0 0 0.1 209.96 222.5)" font-style="normal" font-weight="normal" font-size="200px" font-family="Arial" >
N</text>
<path stroke="none" fill="#000000" transform="matrix(0.1 0 0 0.1 -171.65 -226)" d="M 3615.17,4790.37 L 3614.42,4784 L 3620.24,4779.88 L 3791.89,4835.36 L 3788.19,4846.77 L 3615.17,4790.37 Z " />
<path stroke="none" fill="#000000" transform="matrix(0.1 0 0 0.1 -171.65 -226)" d="M 3961.13,4782.98 L 3951.43,4775.93 L 3977.82,4739.6 L 3987.53,4746.65 L 3961.13,4782.98 Z " />
<path stroke="none" fill="#000000" transform="matrix(0.1 0 0 0.1 -171.65 -226)" d="M 3919.19,4752.51 L 3909.49,4745.46 L 3935.88,4709.13 L 3945.59,4716.18 L 3919.19,4752.51 Z " />
<path stroke="none" fill="#000000" transform="matrix(0.1 0 0 0.1 -171.65 -226)" d="M 3994.35,4542.73 L 3984.64,4549.78 L 3958.24,4513.45 L 3967.95,4506.4 L 3994.35,4542.73 Z " />
<path stroke="none" fill="#000000" transform="matrix(0.1 0 0 0.1 -171.65 -226)" d="M 3788.09,4433.26 L 3791.8,4444.67 L 3620.24,4500.12 L 3614.42,4496 L 3615.17,4489.63 L 3788.09,4433.26 Z " />
<text x="0" y="0" stroke="none" fill="#000000" transform="matrix(0.1 0 0 0.1 218.303 195.11)" font-style="normal" font-weight="normal" font-size="200px" font-family="Arial" >
OH</text>
<path stroke="none" fill="#000000" transform="matrix(0.1 0 0 0.1 -171.65 -226)" d="M 3927.71,4305.2 L 3916.29,4301.49 L 3936.42,4239.55 L 3947.83,4243.26 L 3927.71,4305.2 Z " />
<path stroke="none" fill="#000000" transform="matrix(0.1 0 0 0.1 -171.65 -226)" d="M 6279.44,4502.45 L 6291.44,4509.38 L 6291.44,4790.62 L 6279.44,4797.55 L 6279.44,4502.45 Z " />
<path stroke="none" fill="#000000" transform="matrix(0.1 0 0 0.1 -171.65 -226)" d="M 6331.42,4535.93 L 6343.42,4535.93 L 6343.42,4764.07 L 6331.42,4764.07 L 6331.42,4535.93 Z " />
<path stroke="none" fill="#000000" transform="matrix(0.1 0 0 0.1 -171.65 -226)" d="M 6279.44,4797.55 L 6291.44,4790.62 L 6535,4931.23 L 6535,4945.1 L 6279.44,4797.55 Z " />
<path stroke="none" fill="#000000" transform="matrix(0.1 0 0 0.1 -171.65 -226)" d="M 6535,4945.1 L 6535,4931.23 L 6778.56,4790.62 L 6784.41,4794 L 6785.17,4800.37 L 6535,4945.1 Z " />
<path stroke="none" fill="#000000" transform="matrix(0.1 0 0 0.1 -171.65 -226)" d="M 6538,4883.34 L 6532,4872.94 L 6729.58,4758.87 L 6735.57,4769.27 L 6538,4883.34 Z " />
<path stroke="none" fill="#000000" transform="matrix(0.1 0 0 0.1 -171.65 -226)" d="M 6790.24,4789.88 L 6784.41,4794 L 6778.56,4790.62 L 6778.56,4509.38 L 6784.41,4506 L 6790.24,4510.12 L 6790.24,4789.88 Z " />
<path stroke="none" fill="#000000" transform="matrix(0.1 0 0 0.1 -171.65 -226)" d="M 6785.17,4499.63 L 6784.41,4506 L 6778.56,4509.38 L 6535,4368.77 L 6535,4354.9 L 6785.17,4499.63 Z " />
<path stroke="none" fill="#000000" transform="matrix(0.1 0 0 0.1 -171.65 -226)" d="M 6735.57,4530.73 L 6729.58,4541.13 L 6532,4427.06 L 6538,4416.66 L 6735.57,4530.73 Z " />
<path stroke="none" fill="#000000" transform="matrix(0.1 0 0 0.1 -171.65 -226)" d="M 6535,4354.9 L 6535,4368.77 L 6291.44,4509.38 L 6279.44,4502.45 L 6535,4354.9 Z " />
<text x="0" y="0" stroke="none" fill="#000000" transform="matrix(0.1 0 0 0.1 526.96 270.1)" font-style="normal" font-weight="normal" font-size="200px" font-family="Arial" >
N</text>
<text x="0" y="0" stroke="none" fill="#000000" transform="matrix(0.1 0 0 0.1 543.888 246.8)" font-style="normal" font-weight="normal" font-size="200px" font-family="Arial" >
N</text>
<text x="0" y="0" stroke="none" fill="#000000" transform="matrix(0.1 0 0 0.1 526.96 223.5)" font-style="normal" font-weight="normal" font-size="200px" font-family="Arial" >
N</text>
<path stroke="none" fill="#000000" transform="matrix(0.1 0 0 0.1 -171.65 -226)" d="M 6785.17,4800.37 L 6784.41,4794 L 6790.24,4789.88 L 6961.89,4845.36 L 6958.19,4856.77 L 6785.17,4800.37 Z " />
<path stroke="none" fill="#000000" transform="matrix(0.1 0 0 0.1 -171.65 -226)" d="M 7131.13,4792.98 L 7121.43,4785.93 L 7147.82,4749.6 L 7157.53,4756.65 L 7131.13,4792.98 Z " />
<path stroke="none" fill="#000000" transform="matrix(0.1 0 0 0.1 -171.65 -226)" d="M 7089.19,4762.51 L 7079.49,4755.46 L 7105.88,4719.13 L 7115.59,4726.18 L 7089.19,4762.51 Z " />
<path stroke="none" fill="#000000" transform="matrix(0.1 0 0 0.1 -171.65 -226)" d="M 7164.34,4552.73 L 7154.64,4559.78 L 7128.24,4523.45 L 7137.95,4516.4 L 7164.34,4552.73 Z " />
<path stroke="none" fill="#000000" transform="matrix(0.1 0 0 0.1 -171.65 -226)" d="M 6958.09,4443.26 L 6961.8,4454.67 L 6790.24,4510.12 L 6784.41,4506 L 6785.17,4499.63 L 6958.09,4443.26 Z " />
<path stroke="none" fill="#000000" transform="matrix(0.1 0 0 0.1 -171.65 -226)" d="M 7097.71,4315.2 L 7086.29,4311.49 L 7140.8,4144.45 L 7147.32,4143.1 L 7151.77,4148.07 L 7097.71,4315.2 Z " />
<text x="0" y="0" stroke="none" fill="#000000" transform="matrix(0.1 0 0 0.1 535.303 297.49)" font-style="normal" font-weight="normal" font-size="200px" font-family="Arial" >
O</text>
<path stroke="none" fill="#000000" transform="matrix(0.1 0 0 0.1 -171.65 -226)" d="M 7090.51,5001.48 L 7101.92,4997.77 L 7122.73,5061.83 L 7111.32,5065.54 L 7090.51,5001.48 Z " />
<text x="0" y="0" stroke="none" fill="#000000" transform="matrix(0.1 0 0 0.1 480.463 174.707)" font-style="normal" font-weight="normal" font-size="200px" font-family="Arial" >
Me</text>
<text x="0" y="0" stroke="none" fill="#000000" transform="matrix(0.1 0 0 0.1 508.247 179.107)" font-style="normal" font-weight="normal" font-size="150px" font-family="Arial" >
2</text>
<text x="0" y="0" stroke="none" fill="#000000" transform="matrix(0.1 0 0 0.1 516.589 174.707)" font-style="normal" font-weight="normal" font-size="200px" font-family="Arial" >
N</text>
<path stroke="none" fill="#000000" transform="matrix(0.1 0 0 0.1 -171.65 -226)" d="M 7149.33,4136.75 L 7147.32,4143.1 L 7140.8,4144.45 L 7035.79,4028.2 L 7044.71,4020.17 L 7149.33,4136.75 Z " />
<text x="0" y="0" stroke="none" fill="#000000" transform="matrix(0.1 0 0 0.1 564.031 190.122)" font-style="normal" font-weight="normal" font-size="200px" font-family="Arial" >
NMe</text>
<text x="0" y="0" stroke="none" fill="#000000" transform="matrix(0.1 0 0 0.1 606.257 194.522)" font-style="normal" font-weight="normal" font-size="150px" font-family="Arial" >
2</text>
<path stroke="none" fill="#000000" transform="matrix(0.1 0 0 0.1 -171.65 -226)" d="M 7151.77,4148.07 L 7147.32,4143.1 L 7149.33,4136.75 L 7332.49,4097.61 L 7334.98,4109.34 L 7151.77,4148.07 Z " />
<path stroke="#000000" stroke-width="10" fill="none" transform="matrix(0.1 0 0 0.1 -171.65 -226)" d="M 7180.74,4893.74 A 71.7999,71.7999 0 1 0 7324.34,4893.74A 71.7999,71.7999 0 1 0 7180.74,4893.74Z " />
<path stroke="none" fill="#000000" transform="matrix(0.1 0 0 0.1 -171.65 -226)" d="M 7212.87,4888.41 L 7291.54,4888.41 L 7291.54,4898.41 L 7212.87,4898.41 Z " />
<path stroke="none" fill="#000000" transform="matrix(0.1 0 0 0.1 -171.65 -226)" d="M 7257.21,4854.07 L 7257.21,4932.74 L 7247.21,4932.74 L 7247.21,4854.07 Z " />
<path stroke="#000000" stroke-width="10" fill="none" transform="matrix(0.1 0 0 0.1 -171.65 -226)" d="M 7088.81,5366.96 A 71.7999,71.7999 0 1 0 7232.41,5366.96A 71.7999,71.7999 0 1 0 7088.81,5366.96Z " />
<path stroke="none" fill="#000000" transform="matrix(0.1 0 0 0.1 -171.65 -226)" d="M 7120.94,5361.63 L 7199.61,5361.63 L 7199.61,5371.63 L 7120.94,5371.63 Z " />
<text x="0" y="0" stroke="none" fill="#000000" transform="matrix(0.1 0 0 0.1 477.85 297)" font-style="normal" font-weight="normal" font-size="200px" font-family="Arial" >
HATU</text>
<path stroke="#000000" stroke-width="12" fill="none" transform="matrix(0.1 0 0 0.1 -171.65 -226)" d="M 1955,5458 C 1955,5458 1955,3362 1955,3362 C 1955,3322.26 1987.26,3290 2027,3290 C 2027,3290 7833,3290 7833,3290 C 7872.74,3290 7905,3322.26 7905,3362 C 7905,3362 7905,5458 7905,5458 C 7905,5497.74 7872.74,5530 7833,5530 C 7833,5530 2027,5530 2027,5530 C 1987.26,5530 1955,5497.74 1955,5458 " />
<text x="0" y="0" stroke="none" fill="#000000" transform="matrix(0.1 0 0 0.1 322.687 227.4)" font-style="normal" font-weight="normal" font-size="200px" font-family="Arial" >
N</text>
<text x="0" y="0" stroke="none" fill="#000000" transform="matrix(0.1 0 0 0.1 347.628 270.6)" font-style="normal" font-weight="normal" font-size="200px" font-family="Arial" >
N</text>
<text x="0" y="0" stroke="none" fill="#000000" transform="matrix(0.1 0 0 0.1 372.57 227.4)" font-style="normal" font-weight="normal" font-size="200px" font-family="Arial" >
N</text>
<path stroke="none" fill="#000000" transform="matrix(0.1 0 0 0.1 -171.65 -226)" d="M 5009.58,4565.17 L 5021.58,4565.17 L 5021.36,4740.67 L 5015.58,4744 L 5009.81,4740.65 L 5009.58,4565.17 Z " />
<path stroke="none" fill="#000000" transform="matrix(0.1 0 0 0.1 -171.65 -226)" d="M 5061.42,4565.17 L 5073.42,4565.17 L 5073.42,4714.07 L 5061.42,4714.07 L 5061.42,4565.17 Z " />
<path stroke="none" fill="#000000" transform="matrix(0.1 0 0 0.1 -171.65 -226)" d="M 5015.6,4750.67 L 5015.58,4744 L 5021.36,4740.67 L 5170.92,4826.75 L 5164.92,4837.15 L 5015.6,4750.67 Z " />
<path stroke="none" fill="#000000" transform="matrix(0.1 0 0 0.1 -171.65 -226)" d="M 5364.76,4837.33 L 5358.76,4826.94 L 5508.64,4740.67 L 5514.42,4744 L 5514.39,4750.68 L 5364.76,4837.33 Z " />
<path stroke="none" fill="#000000" transform="matrix(0.1 0 0 0.1 -171.65 -226)" d="M 5338.84,4792.44 L 5332.84,4782.05 L 5459.58,4708.87 L 5465.58,4719.27 L 5338.84,4792.44 Z " />
<path stroke="none" fill="#000000" transform="matrix(0.1 0 0 0.1 -171.65 -226)" d="M 5520.19,4740.64 L 5514.42,4744 L 5508.64,4740.67 L 5508.42,4565.17 L 5520.42,4565.17 L 5520.19,4740.64 Z " />
<path stroke="none" fill="#000000" transform="matrix(0.1 0 0 0.1 -171.65 -226)" d="M 5420.33,4394.75 L 5414.33,4405.15 L 5265,4318.67 L 5265,4312 L 5270.77,4308.67 L 5420.33,4394.75 Z " />
<path stroke="none" fill="#000000" transform="matrix(0.1 0 0 0.1 -171.65 -226)" d="M 5394.41,4439.65 L 5388.41,4450.04 L 5262,4377.06 L 5268,4366.66 L 5394.41,4439.65 Z " />
<path stroke="none" fill="#000000" transform="matrix(0.1 0 0 0.1 -171.65 -226)" d="M 5259.23,4308.67 L 5265,4312 L 5265,4318.67 L 5115.34,4405.33 L 5109.34,4394.94 L 5259.23,4308.67 Z " />
<text x="0" y="0" stroke="none" fill="#000000" transform="matrix(0.1 0 0 0.1 397.511 270.6)" font-style="normal" font-weight="normal" font-size="200px" font-family="Arial" >
Cl</text>
<path stroke="none" fill="#000000" transform="matrix(0.1 0 0 0.1 -171.65 -226)" d="M 5514.39,4750.68 L 5514.42,4744 L 5520.19,4740.64 L 5685.41,4835.79 L 5679.41,4846.19 L 5514.39,4750.68 Z " />
<text x="0" y="0" stroke="none" fill="#000000" transform="matrix(0.1 0 0 0.1 347.072 184.2)" font-style="normal" font-weight="normal" font-size="200px" font-family="Arial" >
OMe</text>
<path stroke="none" fill="#000000" transform="matrix(0.1 0 0 0.1 -171.65 -226)" d="M 5270.77,4308.67 L 5265,4312 L 5259.23,4308.67 L 5259,4135.67 L 5271,4135.67 L 5270.77,4308.67 Z " />
<text x="0" y="0" stroke="none" fill="#000000" transform="matrix(0.1 0 0 0.1 269.405 270.6)" font-style="normal" font-weight="normal" font-size="200px" font-family="Arial" >
MeO</text>
<path stroke="none" fill="#000000" transform="matrix(0.1 0 0 0.1 -171.65 -226)" d="M 5009.81,4740.65 L 5015.58,4744 L 5015.6,4750.67 L 4855.1,4843.58 L 4849.1,4833.19 L 5009.81,4740.65 Z " />
<text x="0" y="0" stroke="none" fill="#000000" transform="matrix(0.1 0 0 0.1 327.85 297)" font-style="normal" font-weight="normal" font-size="200px" font-family="Arial" >
CDMT</text>
</svg>
