<?xml version="1.0" standalone="no" ?>
<!DOCTYPE svg PUBLIC "-//W3C//DTD SVG 1.1//EN" "http://www.w3.org/Graphics/SVG/1.1/DTD/svg11.dtd">
<svg width="772px" height="153px" viewBox="0 0 772 153" style="background-color: #ffffff00" xmlns="http://www.w3.org/2000/svg" xmlns:xlink="http://www.w3.org/1999/xlink" version="1.1" >
<text x="0" y="0" stroke="none" fill="#000000" transform="matrix(0.1 0 0 0.1 4.94863 74.8)" font-style="normal" font-weight="normal" font-size="200px" font-family="Arial" >
Ph</text>
<path stroke="none" fill="#000000" transform="matrix(0.1 0 0 0.1 -37.65 -205)" d="M 678.259,2690.41 L 672.259,2680.01 L 864.372,2568.87 L 864.366,2582.74 L 678.259,2690.41 Z " />
<path stroke="none" fill="#000000" transform="matrix(0.1 0 0 0.1 -37.65 -205)" d="M 864.366,2582.74 L 864.372,2568.87 L 1113.92,2713.28 L 1113.91,2727.15 L 864.366,2582.74 Z " />
<text x="0" y="0" stroke="none" fill="#000000" transform="matrix(0.1 0 0 0.1 90.8962 60.4)" font-style="normal" font-weight="normal" font-size="200px" font-family="Arial" >
OH</text>
<path stroke="none" fill="#000000" transform="matrix(0.1 0 0 0.1 -37.65 -205)" d="M 1113.91,2727.15 L 1113.92,2713.28 L 1267.69,2624.24 L 1273.69,2634.63 L 1113.91,2727.15 Z " />
<text x="0" y="0" stroke="none" fill="#000000" transform="matrix(0.1 0 0 0.1 65.9547 103.6)" font-style="normal" font-weight="normal" font-size="200px" font-family="Arial" >
O</text>
<path stroke="none" fill="#000000" transform="matrix(0.1 0 0 0.1 -37.65 -205)" d="M 1133.75,2705.04 L 1145.75,2705.04 L 1145.75,2910.67 L 1133.75,2910.67 L 1133.75,2705.04 Z " />
<path stroke="none" fill="#000000" transform="matrix(0.1 0 0 0.1 -37.65 -205)" d="M 1081.91,2705.04 L 1093.91,2705.04 L 1093.91,2910.67 L 1081.91,2910.67 L 1081.91,2705.04 Z " />
<text x="0" y="0" stroke="none" fill="#000000" transform="matrix(0.1 0 0 0.1 123.85 89)" font-style="normal" font-weight="normal" font-size="200px" font-family="Arial" >
+</text>
<path stroke="none" fill="#000000" transform="matrix(0.1 0 0 0.1 -37.65 -205)" d="M 2745,2877.1 L 2745,2863.23 L 2988.56,2722.62 L 2994.42,2726 L 2994.42,2732.77 L 2745,2877.1 Z " />
<path stroke="none" fill="#000000" transform="matrix(0.1 0 0 0.1 -37.65 -205)" d="M 2745,2863.23 L 2745,2877.1 L 2495.49,2732.71 L 2495.5,2718.85 L 2745,2863.23 Z " />
<path stroke="none" fill="#000000" transform="matrix(0.1 0 0 0.1 -37.65 -205)" d="M 2994.42,2732.77 L 2994.42,2726 L 3000.27,2722.62 L 3243.83,2863.23 L 3243.83,2877.1 L 2994.42,2732.77 Z " />
<path stroke="none" fill="#000000" transform="matrix(0.1 0 0 0.1 -37.65 -205)" d="M 3043.26,2701.27 L 3049.26,2690.87 L 3246.83,2804.94 L 3240.83,2815.34 L 3043.26,2701.27 Z " />
<path stroke="none" fill="#000000" transform="matrix(0.1 0 0 0.1 -37.65 -205)" d="M 3243.83,2877.1 L 3243.83,2863.23 L 3487.39,2722.62 L 3499.39,2729.55 L 3243.83,2877.1 Z " />
<path stroke="none" fill="#000000" transform="matrix(0.1 0 0 0.1 -37.65 -205)" d="M 3499.39,2729.55 L 3487.39,2722.62 L 3487.39,2441.38 L 3499.39,2434.45 L 3499.39,2729.55 Z " />
<path stroke="none" fill="#000000" transform="matrix(0.1 0 0 0.1 -37.65 -205)" d="M 3447.41,2696.07 L 3435.41,2696.07 L 3435.41,2467.93 L 3447.41,2467.93 L 3447.41,2696.07 Z " />
<path stroke="none" fill="#000000" transform="matrix(0.1 0 0 0.1 -37.65 -205)" d="M 3499.39,2434.45 L 3487.39,2441.38 L 3243.83,2300.77 L 3243.83,2286.9 L 3499.39,2434.45 Z " />
<path stroke="none" fill="#000000" transform="matrix(0.1 0 0 0.1 -37.65 -205)" d="M 3243.83,2286.9 L 3243.83,2300.77 L 3000.27,2441.38 L 2988.27,2434.45 L 3243.83,2286.9 Z " />
<path stroke="none" fill="#000000" transform="matrix(0.1 0 0 0.1 -37.65 -205)" d="M 3240.83,2348.66 L 3246.83,2359.06 L 3049.26,2473.13 L 3043.26,2462.73 L 3240.83,2348.66 Z " />
<path stroke="none" fill="#000000" transform="matrix(0.1 0 0 0.1 -37.65 -205)" d="M 2988.27,2434.45 L 3000.27,2441.38 L 3000.27,2722.62 L 2994.42,2726 L 2988.56,2722.62 L 2988.27,2434.45 Z " />
<path stroke="none" fill="#000000" transform="matrix(0.1 0 0 0.1 -37.65 -205)" d="M 5439.75,2586 L 3725,2586 L 3725,2574 L 5439.75,2574 Z " />
<path stroke="none" fill="#000000" transform="matrix(0.1 0 0 0.1 -37.65 -205)" d="M 5675,2580 C 5675,2580 5405,2648.5 5405,2648.5 C 5405,2648.5 5438.75,2609.97 5438.75,2580 C 5438.75,2549.59 5405,2510.5 5405,2510.5 C 5405,2510.5 5675,2580 5675,2580 C 5675,2580 5675,2580 5675,2580 " />
<path stroke="#000000" stroke-width="1" fill="none" transform="matrix(0.1 0 0 0.1 -37.65 -205)" d="M 5675,2580 C 5675,2580 5405,2648.5 5405,2648.5 C 5405,2648.5 5438.75,2609.97 5438.75,2580 C 5438.75,2549.59 5405,2510.5 5405,2510.5 C 5405,2510.5 5675,2580 5675,2580 C 5675,2580 5675,2580 5675,2580 " />
<text x="0" y="0" stroke="none" fill="#000000" transform="matrix(0.1 0 0 0.1 352.963 22)" font-style="normal" font-weight="normal" font-size="200px" font-family="Arial" >
CDMT </text>
<text x="0" y="0" stroke="none" fill="#000000" transform="matrix(0.1 0 0 0.1 416.284 22)" font-style="normal" font-weight="normal" font-size="200px" font-family="Arial" >
(1.1 </text>
<text x="0" y="0" stroke="none" fill="#000000" transform="matrix(0.1 0 0 0.1 456.303 22)" font-style="normal" font-weight="normal" font-size="200px" font-family="Arial" >
eq.)</text>
<text x="0" y="0" stroke="none" fill="#000000" transform="matrix(0.1 0 0 0.1 351.85 45)" font-style="normal" font-weight="normal" font-size="200px" font-family="Arial" >
NCHM </text>
<text x="0" y="0" stroke="none" fill="#000000" transform="matrix(0.1 0 0 0.1 417.397 45)" font-style="normal" font-weight="normal" font-size="200px" font-family="Arial" >
(1.0 </text>
<text x="0" y="0" stroke="none" fill="#000000" transform="matrix(0.1 0 0 0.1 457.416 45)" font-style="normal" font-weight="normal" font-size="200px" font-family="Arial" >
eq.)</text>
<text x="0" y="0" stroke="none" fill="#000000" transform="matrix(0.1 0 0 0.1 344.315 80)" font-style="normal" font-weight="normal" font-size="200px" font-family="Arial" >
Me</text>
<text x="0" y="0" stroke="none" fill="#000000" transform="matrix(0.1 0 0 0.1 372.098 84.4)" font-style="normal" font-weight="normal" font-size="150px" font-family="Arial" >
2</text>
<text x="0" y="0" stroke="none" fill="#000000" transform="matrix(0.1 0 0 0.1 380.44 80)" font-style="normal" font-weight="normal" font-size="200px" font-family="Arial" >
NBu </text>
<text x="0" y="0" stroke="none" fill="#000000" transform="matrix(0.1 0 0 0.1 424.903 80)" font-style="normal" font-weight="normal" font-size="200px" font-family="Arial" >
(1.0 </text>
<text x="0" y="0" stroke="none" fill="#000000" transform="matrix(0.1 0 0 0.1 464.923 80)" font-style="normal" font-weight="normal" font-size="200px" font-family="Arial" >
eq.)</text>
<text x="0" y="0" stroke="none" fill="#000000" transform="matrix(0.1 0 0 0.1 373.5 106.3)" font-style="normal" font-weight="normal" font-size="200px" font-family="Arial" >
Solvent, </text>
<text x="0" y="0" stroke="none" fill="#000000" transform="matrix(0.1 0 0 0.1 451.323 106.3)" font-style="normal" font-weight="normal" font-size="200px" font-family="Arial" >
rT</text>
<text x="0" y="0" stroke="none" fill="#000000" transform="matrix(0.1 0 0 0.1 548.949 63.8)" font-style="normal" font-weight="normal" font-size="200px" font-family="Arial" >
Ph</text>
<path stroke="none" fill="#000000" transform="matrix(0.1 0 0 0.1 -37.65 -205)" d="M 6118.26,2580.41 L 6112.26,2570.01 L 6304.37,2458.87 L 6304.37,2472.74 L 6118.26,2580.41 Z " />
<path stroke="none" fill="#000000" transform="matrix(0.1 0 0 0.1 -37.65 -205)" d="M 6304.37,2472.74 L 6304.37,2458.87 L 6553.94,2603.29 L 6553.93,2617.16 L 6304.37,2472.74 Z " />
<text x="0" y="0" stroke="none" fill="#000000" transform="matrix(0.1 0 0 0.1 635.453 32.7167)" font-style="normal" font-weight="normal" font-size="200px" font-family="Arial" >
H</text>
<text x="0" y="0" stroke="none" fill="#000000" transform="matrix(0.1 0 0 0.1 635.453 49.4)" font-style="normal" font-weight="normal" font-size="200px" font-family="Arial" >
N</text>
<path stroke="none" fill="#000000" transform="matrix(0.1 0 0 0.1 -37.65 -205)" d="M 6553.93,2617.16 L 6553.94,2603.29 L 6697.32,2520.23 L 6703.32,2530.62 L 6553.93,2617.16 Z " />
<text x="0" y="0" stroke="none" fill="#000000" transform="matrix(0.1 0 0 0.1 609.955 92.6)" font-style="normal" font-weight="normal" font-size="200px" font-family="Arial" >
O</text>
<path stroke="none" fill="#000000" transform="matrix(0.1 0 0 0.1 -37.65 -205)" d="M 6573.75,2595.04 L 6585.75,2595.04 L 6585.75,2800.67 L 6573.75,2800.67 L 6573.75,2595.04 Z " />
<path stroke="none" fill="#000000" transform="matrix(0.1 0 0 0.1 -37.65 -205)" d="M 6521.91,2595.04 L 6533.91,2595.04 L 6533.91,2800.67 L 6521.91,2800.67 L 6521.91,2595.04 Z " />
<path stroke="none" fill="#000000" transform="matrix(0.1 0 0 0.1 -37.65 -205)" d="M 6902.42,2530.18 L 6908.42,2519.79 L 7052.55,2603.29 L 7052.57,2617.16 L 6902.42,2530.18 Z " />
<path stroke="none" fill="#000000" transform="matrix(0.1 0 0 0.1 -37.65 -205)" d="M 7052.57,2617.16 L 7052.55,2603.29 L 7302.08,2458.9 L 7302.08,2472.77 L 7052.57,2617.16 Z " />
<text x="0" y="0" stroke="none" fill="#000000" transform="matrix(0.1 0 0 0.1 156.96 89.8)" font-style="normal" font-weight="normal" font-size="200px" font-family="Arial" >
H</text>
<text x="0" y="0" stroke="none" fill="#000000" transform="matrix(0.1 0 0 0.1 171.403 94.2)" font-style="normal" font-weight="normal" font-size="150px" font-family="Arial" >
2</text>
<text x="0" y="0" stroke="none" fill="#000000" transform="matrix(0.1 0 0 0.1 179.745 89.8)" font-style="normal" font-weight="normal" font-size="200px" font-family="Arial" >
N</text>
<path stroke="none" fill="#000000" transform="matrix(0.1 0 0 0.1 -37.65 -205)" d="M 2495.5,2718.85 L 2495.49,2732.71 L 2345.28,2819.7 L 2339.28,2809.31 L 2495.5,2718.85 Z " />
<path stroke="none" fill="#000000" transform="matrix(0.1 0 0 0.1 -37.65 -205)" d="M 7302.08,2472.77 L 7302.08,2458.9 L 7551.49,2603.23 L 7551.49,2610 L 7545.63,2613.38 L 7302.08,2472.77 Z " />
<path stroke="none" fill="#000000" transform="matrix(0.1 0 0 0.1 -37.65 -205)" d="M 7545.63,2613.38 L 7551.49,2610 L 7557.35,2613.38 L 7557.35,2894.62 L 7545.34,2901.55 L 7545.63,2613.38 Z " />
<path stroke="none" fill="#000000" transform="matrix(0.1 0 0 0.1 -37.65 -205)" d="M 7597.33,2639.93 L 7609.33,2639.93 L 7609.33,2868.07 L 7597.33,2868.07 L 7597.33,2639.93 Z " />
<path stroke="none" fill="#000000" transform="matrix(0.1 0 0 0.1 -37.65 -205)" d="M 7545.34,2901.55 L 7557.35,2894.62 L 7800.91,3035.23 L 7800.91,3049.1 L 7545.34,2901.55 Z " />
<path stroke="none" fill="#000000" transform="matrix(0.1 0 0 0.1 -37.65 -205)" d="M 7800.91,3049.1 L 7800.91,3035.23 L 8044.46,2894.62 L 8056.47,2901.55 L 7800.91,3049.1 Z " />
<path stroke="none" fill="#000000" transform="matrix(0.1 0 0 0.1 -37.65 -205)" d="M 7803.91,2987.34 L 7797.91,2976.94 L 7995.48,2862.87 L 8001.48,2873.27 L 7803.91,2987.34 Z " />
<path stroke="none" fill="#000000" transform="matrix(0.1 0 0 0.1 -37.65 -205)" d="M 8056.47,2901.55 L 8044.46,2894.62 L 8044.46,2613.38 L 8056.47,2606.45 L 8056.47,2901.55 Z " />
<path stroke="none" fill="#000000" transform="matrix(0.1 0 0 0.1 -37.65 -205)" d="M 8056.47,2606.45 L 8044.46,2613.38 L 7800.91,2472.77 L 7800.91,2458.9 L 8056.47,2606.45 Z " />
<path stroke="none" fill="#000000" transform="matrix(0.1 0 0 0.1 -37.65 -205)" d="M 8001.48,2634.73 L 7995.48,2645.13 L 7797.91,2531.06 L 7803.91,2520.66 L 8001.48,2634.73 Z " />
<path stroke="none" fill="#000000" transform="matrix(0.1 0 0 0.1 -37.65 -205)" d="M 7800.91,2458.9 L 7800.91,2472.77 L 7557.35,2613.38 L 7551.49,2610 L 7551.49,2603.23 L 7800.91,2458.9 Z " />
<text x="0" y="0" stroke="none" fill="#000000" transform="matrix(0.1 0 0 0.1 267.85 144)" font-style="normal" font-weight="bold" font-size="200px" font-family="Arial" >
NCHM </text>
<text x="0" y="0" stroke="none" fill="#000000" transform="matrix(0.1 0 0 0.1 333.397 144)" font-style="normal" font-weight="bold" font-size="200px" font-family="Arial" >
= </text>
<text x="0" y="0" stroke="none" fill="#000000" transform="matrix(0.1 0 0 0.1 350.633 144)" font-style="italic" font-weight="bold" font-size="200px" font-family="Arial" >
N</text>
<text x="0" y="0" stroke="none" fill="#000000" transform="matrix(0.1 0 0 0.1 365.077 144)" font-style="normal" font-weight="bold" font-size="200px" font-family="Arial" >
-cyclohexyl </text>
<text x="0" y="0" stroke="none" fill="#000000" transform="matrix(0.1 0 0 0.1 479.579 144)" font-style="normal" font-weight="bold" font-size="200px" font-family="Arial" >
morpholine</text>
</svg>
