<?xml version="1.0" standalone="no" ?>
<!DOCTYPE svg PUBLIC "-//W3C//DTD SVG 1.1//EN" "http://www.w3.org/Graphics/SVG/1.1/DTD/svg11.dtd">
<svg width="1008px" height="239px" viewBox="0 0 1008 239" style="background-color: #ffffff00" xmlns="http://www.w3.org/2000/svg" xmlns:xlink="http://www.w3.org/1999/xlink" version="1.1" >
<path stroke="none" fill="#000000" transform="matrix(0.1 0 0 0.1 -10.65 -383)" d="M 149.452,4912.45 L 161.459,4919.38 L 161.459,5200.62 L 149.452,5207.55 L 149.452,4912.45 Z " />
<path stroke="none" fill="#000000" transform="matrix(0.1 0 0 0.1 -10.65 -383)" d="M 201.44,4945.93 L 213.44,4945.93 L 213.44,5174.07 L 201.44,5174.07 L 201.44,4945.93 Z " />
<path stroke="none" fill="#000000" transform="matrix(0.1 0 0 0.1 -10.65 -383)" d="M 149.452,5207.55 L 161.459,5200.62 L 405,5341.23 L 405,5355.1 L 149.452,5207.55 Z " />
<path stroke="none" fill="#000000" transform="matrix(0.1 0 0 0.1 -10.65 -383)" d="M 405,5355.1 L 405,5341.23 L 648.541,5200.62 L 660.548,5207.55 L 405,5355.1 Z " />
<path stroke="none" fill="#000000" transform="matrix(0.1 0 0 0.1 -10.65 -383)" d="M 408,5293.34 L 402,5282.95 L 599.562,5168.88 L 605.562,5179.27 L 408,5293.34 Z " />
<path stroke="none" fill="#000000" transform="matrix(0.1 0 0 0.1 -10.65 -383)" d="M 660.548,5207.55 L 648.541,5200.62 L 648.541,4919.38 L 654.4,4916 L 660.259,4919.38 L 660.548,5207.55 Z " />
<path stroke="none" fill="#000000" transform="matrix(0.1 0 0 0.1 -10.65 -383)" d="M 654.4,4909.23 L 654.4,4916 L 648.541,4919.38 L 405,4778.77 L 405,4764.9 L 654.4,4909.23 Z " />
<path stroke="none" fill="#000000" transform="matrix(0.1 0 0 0.1 -10.65 -383)" d="M 605.562,4940.73 L 599.562,4951.12 L 402,4837.05 L 408,4826.66 L 605.562,4940.73 Z " />
<path stroke="none" fill="#000000" transform="matrix(0.1 0 0 0.1 -10.65 -383)" d="M 405,4764.9 L 405,4778.77 L 161.459,4919.38 L 149.452,4912.45 L 405,4764.9 Z " />
<path stroke="none" fill="#000000" transform="matrix(0.1 0 0 0.1 -10.65 -383)" d="M 660.259,4919.38 L 654.4,4916 L 654.4,4909.23 L 903.886,4764.85 L 903.898,4778.71 L 660.259,4919.38 Z " />
<text x="0" y="0" stroke="none" fill="#000000" transform="matrix(0.1 0 0 0.1 97.4483 116.4)" font-style="normal" font-weight="normal" font-size="200px" font-family="Arial" >
N</text>
<path stroke="none" fill="#000000" transform="matrix(0.1 0 0 0.1 -10.65 -383)" d="M 903.898,4778.71 L 903.886,4764.85 L 1059.12,4854.75 L 1053.12,4865.14 L 903.898,4778.71 Z " />
<text x="0" y="0" stroke="none" fill="#000000" transform="matrix(0.1 0 0 0.1 71.9517 73.2)" font-style="normal" font-weight="normal" font-size="200px" font-family="Arial" >
O</text>
<path stroke="none" fill="#000000" transform="matrix(0.1 0 0 0.1 -10.65 -383)" d="M 883.88,4786.97 L 871.88,4786.97 L 871.88,4595.67 L 883.88,4595.67 L 883.88,4786.97 Z " />
<path stroke="none" fill="#000000" transform="matrix(0.1 0 0 0.1 -10.65 -383)" d="M 935.72,4786.97 L 923.72,4786.97 L 923.72,4595.67 L 935.72,4595.67 L 935.72,4786.97 Z " />
<text x="0" y="0" stroke="none" fill="#000000" transform="matrix(0.1 0 0 0.1 98.0001 145.2)" font-style="normal" font-weight="normal" font-size="200px" font-family="Arial" >
Ph</text>
<path stroke="none" fill="#000000" transform="matrix(0.1 0 0 0.1 -10.65 -383)" d="M 1147.2,5025.17 L 1159.2,5025.17 L 1159.2,5109.17 L 1147.2,5109.17 L 1147.2,5025.17 Z " />
<text x="0" y="0" stroke="none" fill="#000000" transform="matrix(0.1 0 0 0.1 122.94 102)" font-style="normal" font-weight="normal" font-size="200px" font-family="Arial" >
Boc</text>
<path stroke="none" fill="#000000" transform="matrix(0.1 0 0 0.1 -10.65 -383)" d="M 1252.96,4865.33 L 1246.96,4854.94 L 1301.43,4823.48 L 1307.43,4833.88 L 1252.96,4865.33 Z " />
<text x="0" y="0" stroke="none" fill="#000000" transform="matrix(0.1 0 0 0.1 153.85 136)" font-style="normal" font-weight="normal" font-size="200px" font-family="Arial" >
+</text>
<path stroke="none" fill="#000000" transform="matrix(0.1 0 0 0.1 -10.65 -383)" d="M 2319.74,4939.29 L 2325.6,4936 L 2331.46,4939.38 L 2331.46,5220.62 L 2319.45,5227.55 L 2319.74,4939.29 Z " />
<path stroke="none" fill="#000000" transform="matrix(0.1 0 0 0.1 -10.65 -383)" d="M 2371.44,4965.93 L 2383.44,4965.93 L 2383.44,5194.07 L 2371.44,5194.07 L 2371.44,4965.93 Z " />
<path stroke="none" fill="#000000" transform="matrix(0.1 0 0 0.1 -10.65 -383)" d="M 2319.45,5227.55 L 2331.46,5220.62 L 2575,5361.23 L 2575,5375.1 L 2319.45,5227.55 Z " />
<path stroke="none" fill="#000000" transform="matrix(0.1 0 0 0.1 -10.65 -383)" d="M 2575,5375.1 L 2575,5361.23 L 2818.54,5220.62 L 2830.55,5227.55 L 2575,5375.1 Z " />
<path stroke="none" fill="#000000" transform="matrix(0.1 0 0 0.1 -10.65 -383)" d="M 2578,5313.34 L 2572,5302.95 L 2769.56,5188.88 L 2775.56,5199.27 L 2578,5313.34 Z " />
<path stroke="none" fill="#000000" transform="matrix(0.1 0 0 0.1 -10.65 -383)" d="M 2830.55,5227.55 L 2818.54,5220.62 L 2818.54,4939.38 L 2824.4,4936 L 2830.26,4939.24 L 2830.55,5227.55 Z " />
<path stroke="none" fill="#000000" transform="matrix(0.1 0 0 0.1 -10.65 -383)" d="M 2824.53,4929.3 L 2824.4,4936 L 2818.54,4939.38 L 2575,4798.77 L 2575,4792 L 2580.77,4788.56 L 2824.53,4929.3 Z " />
<path stroke="none" fill="#000000" transform="matrix(0.1 0 0 0.1 -10.65 -383)" d="M 2775.56,4960.73 L 2769.56,4971.12 L 2572,4857.05 L 2578,4846.66 L 2775.56,4960.73 Z " />
<path stroke="none" fill="#000000" transform="matrix(0.1 0 0 0.1 -10.65 -383)" d="M 2569.23,4788.56 L 2575,4792 L 2575,4798.77 L 2331.46,4939.38 L 2325.6,4936 L 2325.52,4929.28 L 2569.23,4788.56 Z " />
<path stroke="none" fill="#000000" transform="matrix(0.1 0 0 0.1 -10.65 -383)" d="M 5193.12,5086 L 3355,5086 L 3355,5074 L 5193.12,5074 Z " />
<path stroke="none" fill="#000000" transform="matrix(0.1 0 0 0.1 -10.65 -383)" d="M 5428.4,5080 C 5428.4,5080 5158.4,5148.56 5158.4,5148.56 C 5158.4,5148.56 5192.12,5110 5192.12,5080 C 5192.12,5049.56 5158.4,5010.44 5158.4,5010.44 C 5158.4,5010.44 5428.4,5080 5428.4,5080 C 5428.4,5080 5428.4,5080 5428.4,5080 " />
<path stroke="#000000" stroke-width="1" fill="none" transform="matrix(0.1 0 0 0.1 -10.65 -383)" d="M 5428.4,5080 C 5428.4,5080 5158.4,5148.56 5158.4,5148.56 C 5158.4,5148.56 5192.12,5110 5192.12,5080 C 5192.12,5049.56 5158.4,5010.44 5158.4,5010.44 C 5158.4,5010.44 5428.4,5080 5428.4,5080 C 5428.4,5080 5428.4,5080 5428.4,5080 " />
<text x="0" y="0" stroke="none" fill="#000000" transform="matrix(0.1 0 0 0.1 338.284 92)" font-style="normal" font-weight="normal" font-size="200px" font-family="Arial" >
[Pd-NHC] </text>
<text x="0" y="0" stroke="none" fill="#000000" transform="matrix(0.1 0 0 0.1 429.407 92)" font-style="normal" font-weight="normal" font-size="200px" font-family="Arial" >
(3 </text>
<text x="0" y="0" stroke="none" fill="#000000" transform="matrix(0.1 0 0 0.1 452.746 92)" font-style="normal" font-weight="normal" font-size="200px" font-family="Arial" >
mol%)</text>
<text x="0" y="0" stroke="none" fill="#000000" transform="matrix(0.1 0 0 0.1 362.158 115)" font-style="normal" font-weight="normal" font-size="200px" font-family="Arial" >
K</text>
<text x="0" y="0" stroke="none" fill="#000000" transform="matrix(0.1 0 0 0.1 375.498 119.4)" font-style="normal" font-weight="normal" font-size="150px" font-family="Arial" >
2</text>
<text x="0" y="0" stroke="none" fill="#000000" transform="matrix(0.1 0 0 0.1 383.84 115)" font-style="normal" font-weight="normal" font-size="200px" font-family="Arial" >
CO</text>
<text x="0" y="0" stroke="none" fill="#000000" transform="matrix(0.1 0 0 0.1 413.84 119.4)" font-style="normal" font-weight="normal" font-size="150px" font-family="Arial" >
3</text>
<text x="0" y="0" stroke="none" fill="#000000" transform="matrix(0.1 0 0 0.1 422.183 115)" font-style="normal" font-weight="normal" font-size="200px" font-family="Arial" >
 </text>
<text x="0" y="0" stroke="none" fill="#000000" transform="matrix(0.1 0 0 0.1 427.739 115)" font-style="normal" font-weight="normal" font-size="200px" font-family="Arial" >
(3 </text>
<text x="0" y="0" stroke="none" fill="#000000" transform="matrix(0.1 0 0 0.1 451.079 115)" font-style="normal" font-weight="normal" font-size="200px" font-family="Arial" >
eq.)</text>
<text x="0" y="0" stroke="none" fill="#000000" transform="matrix(0.1 0 0 0.1 350.85 146)" font-style="normal" font-weight="normal" font-size="200px" font-family="Arial" >
Solvent, </text>
<text x="0" y="0" stroke="none" fill="#000000" transform="matrix(0.1 0 0 0.1 428.672 146)" font-style="normal" font-weight="normal" font-size="200px" font-family="Arial" >
110 </text>
<text x="0" y="0" stroke="none" fill="#000000" transform="matrix(0.1 0 0 0.1 467.598 146)" font-style="normal" font-weight="normal" font-size="200px" font-family="Arial" >
°C</text>
<path stroke="none" fill="#000000" transform="matrix(0.1 0 0 0.1 -10.65 -383)" d="M 5629.45,4952.45 L 5641.46,4959.38 L 5641.46,5240.62 L 5629.45,5247.55 L 5629.45,4952.45 Z " />
<path stroke="none" fill="#000000" transform="matrix(0.1 0 0 0.1 -10.65 -383)" d="M 5681.44,4985.93 L 5693.44,4985.93 L 5693.44,5214.07 L 5681.44,5214.07 L 5681.44,4985.93 Z " />
<path stroke="none" fill="#000000" transform="matrix(0.1 0 0 0.1 -10.65 -383)" d="M 5629.45,5247.55 L 5641.46,5240.62 L 5885,5381.23 L 5885,5395.1 L 5629.45,5247.55 Z " />
<path stroke="none" fill="#000000" transform="matrix(0.1 0 0 0.1 -10.65 -383)" d="M 5885,5395.1 L 5885,5381.23 L 6128.54,5240.62 L 6140.55,5247.55 L 5885,5395.1 Z " />
<path stroke="none" fill="#000000" transform="matrix(0.1 0 0 0.1 -10.65 -383)" d="M 5888,5333.34 L 5882,5322.95 L 6079.56,5208.88 L 6085.56,5219.27 L 5888,5333.34 Z " />
<path stroke="none" fill="#000000" transform="matrix(0.1 0 0 0.1 -10.65 -383)" d="M 6140.55,5247.55 L 6128.54,5240.62 L 6128.54,4959.38 L 6134.4,4956 L 6140.26,4959.38 L 6140.55,5247.55 Z " />
<path stroke="none" fill="#000000" transform="matrix(0.1 0 0 0.1 -10.65 -383)" d="M 6134.4,4949.23 L 6134.4,4956 L 6128.54,4959.38 L 5885,4818.77 L 5885,4804.9 L 6134.4,4949.23 Z " />
<path stroke="none" fill="#000000" transform="matrix(0.1 0 0 0.1 -10.65 -383)" d="M 6085.56,4980.73 L 6079.56,4991.12 L 5882,4877.05 L 5888,4866.66 L 6085.56,4980.73 Z " />
<path stroke="none" fill="#000000" transform="matrix(0.1 0 0 0.1 -10.65 -383)" d="M 5885,4804.9 L 5885,4818.77 L 5641.46,4959.38 L 5629.45,4952.45 L 5885,4804.9 Z " />
<path stroke="none" fill="#000000" transform="matrix(0.1 0 0 0.1 -10.65 -383)" d="M 6140.26,4959.38 L 6134.4,4956 L 6134.4,4949.23 L 6383.89,4804.85 L 6383.9,4818.71 L 6140.26,4959.38 Z " />
<text x="0" y="0" stroke="none" fill="#000000" transform="matrix(0.1 0 0 0.1 645.448 120.4)" font-style="normal" font-weight="normal" font-size="200px" font-family="Arial" >
N</text>
<text x="0" y="0" stroke="none" fill="#000000" transform="matrix(0.1 0 0 0.1 645.448 137.083)" font-style="normal" font-weight="normal" font-size="200px" font-family="Arial" >
H</text>
<path stroke="none" fill="#000000" transform="matrix(0.1 0 0 0.1 -10.65 -383)" d="M 6383.9,4818.71 L 6383.89,4804.85 L 6539.12,4894.75 L 6533.12,4905.14 L 6383.9,4818.71 Z " />
<text x="0" y="0" stroke="none" fill="#000000" transform="matrix(0.1 0 0 0.1 619.952 77.2)" font-style="normal" font-weight="normal" font-size="200px" font-family="Arial" >
O</text>
<path stroke="none" fill="#000000" transform="matrix(0.1 0 0 0.1 -10.65 -383)" d="M 6363.88,4826.97 L 6351.88,4826.97 L 6351.88,4635.67 L 6363.88,4635.67 L 6363.88,4826.97 Z " />
<path stroke="none" fill="#000000" transform="matrix(0.1 0 0 0.1 -10.65 -383)" d="M 6415.72,4826.97 L 6403.72,4826.97 L 6403.72,4635.67 L 6415.72,4635.67 L 6415.72,4826.97 Z " />
<text x="0" y="0" stroke="none" fill="#000000" transform="matrix(0.1 0 0 0.1 834.3 30.05)" font-style="normal" font-weight="bold" font-size="200px" font-family="Arial" >
[Pd-NHC]</text>
<text x="0" y="0" stroke="none" fill="#000000" transform="matrix(0.1 0 0 0.1 844.908 104.72)" font-style="normal" font-weight="normal" font-size="200px" font-family="Arial" >
N</text>
<text x="0" y="0" stroke="none" fill="#000000" transform="matrix(0.1 0 0 0.1 891.508 104.1)" font-style="normal" font-weight="normal" font-size="200px" font-family="Arial" >
N</text>
<path stroke="none" fill="#000000" transform="matrix(0.1 0 0 0.1 -10.65 -383)" d="M 8708.31,4518.07 L 8717.19,4529.97 L 8665.65,4697.31 L 8654.19,4693.76 L 8708.31,4518.07 Z " />
<path stroke="none" fill="#000000" transform="matrix(0.1 0 0 0.1 -10.65 -383)" d="M 8724.05,4874.56 L 8730.97,4864.76 L 8862.91,4958.36 L 8863,4965.4 L 8857.04,4968.25 L 8724.05,4874.56 Z " />
<path stroke="none" fill="#000000" transform="matrix(0.1 0 0 0.1 -10.65 -383)" d="M 8868.8,4968.29 L 8863,4965.4 L 8862.91,4958.36 L 8991.49,4861.93 L 8998.67,4871.55 L 8868.8,4968.29 Z " />
<path stroke="none" fill="#000000" transform="matrix(0.1 0 0 0.1 -10.65 -383)" d="M 9064.16,4687.32 L 9052.8,4691.18 L 8996.97,4526.28 L 9005.53,4514.15 L 9064.16,4687.32 Z " />
<path stroke="none" fill="#000000" transform="matrix(0.1 0 0 0.1 -10.65 -383)" d="M 9005.53,4514.15 L 8996.97,4526.28 L 8717.19,4529.97 L 8708.31,4518.07 L 9005.53,4514.15 Z " />
<path stroke="none" fill="#000000" transform="matrix(0.1 0 0 0.1 -10.65 -383)" d="M 8963.97,4566.74 L 8964.13,4578.74 L 8751.45,4581.54 L 8751.29,4569.54 L 8963.97,4566.74 Z " />
<text x="0" y="0" stroke="none" fill="#000000" transform="matrix(0.0999391 0.00348995 -0.00348995 0.0999391 867.592 158.882)" font-style="normal" font-weight="normal" font-size="200px" font-family="Arial" >
Pd</text>
<path stroke="none" fill="#000000" transform="matrix(0.1 0 0 0.1 -10.65 -383)" d="M 8857.04,4968.25 L 8863,4965.4 L 8868.8,4968.29 L 8860.64,5247.34 L 8848.65,5246.99 L 8857.04,4968.25 Z " />
<text x="0" y="0" stroke="none" fill="#000000" transform="matrix(0.1 0 0 0.1 832.385 172.54)" font-style="normal" font-weight="normal" font-size="200px" font-family="Arial" >
Cl</text>
<path stroke="none" fill="#000000" transform="matrix(0.1 0 0 0.1 -10.65 -383)" d="M 8749.62,5390.24 L 8755.21,5400.85 L 8652.97,5454.7 L 8647.37,5444.09 L 8749.62,5390.24 Z " />
<path stroke="none" fill="#000000" transform="matrix(0.1 0 0 0.1 -10.65 -383)" d="M 9056.25,5406.55 L 9062.66,5396.4 L 9221.01,5496.53 L 9214.59,5506.67 L 9056.25,5406.55 Z " />
<path stroke="none" fill="#000000" transform="matrix(0.1 0 0 0.1 -10.65 -383)" d="M 9345,5289.65 L 9357,5289.55 L 9359.37,5581.1 L 9347.32,5574.26 L 9345,5289.65 Z " />
<path stroke="none" fill="#000000" transform="matrix(0.1 0 0 0.1 -10.65 -383)" d="M 9347.32,5574.26 L 9359.37,5581.1 L 9110.61,5726.79 L 9098.55,5719.93 L 9347.32,5574.26 Z " />
<text x="0" y="0" stroke="none" fill="#000000" transform="matrix(0.1 0 0 0.1 893.38 225.94)" font-style="normal" font-weight="normal" font-size="200px" font-family="Arial" >
Ph</text>
<path stroke="none" fill="#000000" transform="matrix(0.1 0 0 0.1 -10.65 -383)" d="M 9098.55,5719.93 L 9110.61,5726.79 L 9112.28,5916.53 L 9100.28,5916.62 L 9098.55,5719.93 Z " />
<path stroke="#000000" stroke-width="12" fill="none" transform="matrix(0.1 0 0 0.1 -10.65 -383)" d="M 9123.81,5663.14 C 9237.7,5654.19 9322.89,5554.48 9313.94,5440.59 C 9311.11,5404.57 9298.65,5369.37 9278.19,5339.59 " />
<path stroke="#000000" stroke-width="12" fill="none" transform="matrix(0.1 0 0 0.1 -10.65 -383)" d="M 8736.15,4799.42 C 8761.44,4868.11 8837.72,4903.34 8906.42,4878.05 C 8944.48,4864.04 8975.17,4831.74 8987.23,4793.01 " />
<path stroke="none" fill="#000000" transform="matrix(0.1 0 0 0.1 -10.65 -383)" d="M 8539.94,4789.66 L 8539.46,4801.65 L 8398.92,4793.9 L 8369.4,4788.8 L 8371.77,4783.04 L 8539.94,4789.66 Z " />
<path stroke="none" fill="#000000" transform="matrix(0.1 0 0 0.1 -10.65 -383)" d="M 9181.57,4799.18 L 9181.59,4787.18 L 9379.98,4787.73 L 9382.2,4793.6 L 9350.44,4797.63 L 9181.57,4799.18 Z " />
<path stroke="none" fill="#000000" transform="matrix(0.1 0 0 0.1 -10.65 -383)" d="M 8200.35,4632.32 L 8195.84,4644.32 L 7856.96,4644.32 L 7852.45,4632.32 L 8200.35,4632.32 Z " />
<path stroke="none" fill="#000000" transform="matrix(0.1 0 0 0.1 -10.65 -383)" d="M 8174.74,4694.18 L 8174.74,4706.18 L 7878.06,4706.18 L 7878.06,4694.18 L 8174.74,4694.18 Z " />
<path stroke="none" fill="#000000" transform="matrix(0.1 0 0 0.1 -10.65 -383)" d="M 7852.45,4632.32 L 7856.96,4644.32 L 7701.34,4779.68 L 7661.43,4798.49 L 7852.45,4632.32 Z " />
<path stroke="none" fill="#000000" transform="matrix(0.1 0 0 0.1 -10.65 -383)" d="M 7661.43,4798.49 L 7701.34,4779.68 L 7861.02,4919.92 L 7846.39,4960.18 L 7661.43,4798.49 Z " />
<path stroke="none" fill="#000000" transform="matrix(0.1 0 0 0.1 -10.65 -383)" d="M 7762.9,4793.31 L 7770.82,4784.29 L 7879.48,4879.64 L 7871.57,4888.66 L 7762.9,4793.31 Z " />
<path stroke="none" fill="#000000" transform="matrix(0.1 0 0 0.1 -10.65 -383)" d="M 7846.39,4960.18 L 7861.02,4919.92 L 8191.78,4919.92 L 8198,4939.2 L 8189.34,4958.19 L 7846.39,4960.18 Z " />
<path stroke="none" fill="#000000" transform="matrix(0.1 0 0 0.1 -10.65 -383)" d="M 8219.86,4943.45 L 8198,4939.2 L 8191.78,4919.92 L 8351.46,4779.68 L 8369.4,4788.8 L 8398.92,4793.9 L 8219.86,4943.45 Z " />
<path stroke="none" fill="#000000" transform="matrix(0.1 0 0 0.1 -10.65 -383)" d="M 8181.23,4888.66 L 8173.32,4879.64 L 8281.98,4784.29 L 8289.9,4793.31 L 8181.23,4888.66 Z " />
<path stroke="none" fill="#000000" transform="matrix(0.1 0 0 0.1 -10.65 -383)" d="M 8371.77,4783.04 L 8369.4,4788.8 L 8351.46,4779.68 L 8195.84,4644.32 L 8200.35,4632.32 L 8371.77,4783.04 Z " />
<path stroke="none" fill="#000000" transform="matrix(0.1 0 0 0.1 -10.65 -383)" d="M 9551.3,4953.09 L 9542.4,4934.2 L 9548.49,4914.96 L 9856.91,4914.96 L 9871.47,4955.26 L 9551.3,4953.09 Z " />
<path stroke="none" fill="#000000" transform="matrix(0.1 0 0 0.1 -10.65 -383)" d="M 9871.47,4955.26 L 9856.91,4914.96 L 10005.4,4784.49 L 10045.4,4803.32 L 9871.47,4955.26 Z " />
<path stroke="none" fill="#000000" transform="matrix(0.1 0 0 0.1 -10.65 -383)" d="M 9847.24,4886.34 L 9839.32,4877.32 L 9939.82,4789.12 L 9947.74,4798.14 L 9847.24,4886.34 Z " />
<path stroke="none" fill="#000000" transform="matrix(0.1 0 0 0.1 -10.65 -383)" d="M 10045.4,4803.32 L 10005.4,4784.49 L 9860.85,4659.12 L 9865.35,4647.11 L 10045.4,4803.32 Z " />
<path stroke="none" fill="#000000" transform="matrix(0.1 0 0 0.1 -10.65 -383)" d="M 9865.35,4647.11 L 9860.85,4659.12 L 9544.55,4659.12 L 9540.05,4647.11 L 9865.35,4647.11 Z " />
<path stroke="none" fill="#000000" transform="matrix(0.1 0 0 0.1 -10.65 -383)" d="M 9841.29,4704.91 L 9841.29,4716.91 L 9564.11,4716.91 L 9564.11,4704.91 L 9841.29,4704.91 Z " />
<path stroke="none" fill="#000000" transform="matrix(0.1 0 0 0.1 -10.65 -383)" d="M 9540.05,4647.11 L 9544.55,4659.12 L 9400.04,4784.49 L 9382.2,4793.6 L 9379.98,4787.73 L 9540.05,4647.11 Z " />
<path stroke="none" fill="#000000" transform="matrix(0.1 0 0 0.1 -10.65 -383)" d="M 9350.44,4797.63 L 9382.2,4793.6 L 9400.04,4784.49 L 9548.49,4914.96 L 9542.4,4934.2 L 9521.67,4939.63 L 9350.44,4797.63 Z " />
<path stroke="none" fill="#000000" transform="matrix(0.1 0 0 0.1 -10.65 -383)" d="M 9457.66,4798.14 L 9465.58,4789.12 L 9566.08,4877.32 L 9558.16,4886.34 L 9457.66,4798.14 Z " />
<text x="0" y="0" stroke="none" fill="#000000" transform="matrix(0.1 0 0 0.1 822.844 136.28)" font-style="normal" font-weight="normal" font-size="150px" font-family="Arial" >
i</text>
<text x="0" y="0" stroke="none" fill="#000000" transform="matrix(0.1 0 0 0.1 826.176 144.08)" font-style="normal" font-weight="normal" font-size="200px" font-family="Arial" >
Pr</text>
<path stroke="none" fill="#000000" transform="matrix(0.1 0 0 0.1 -10.65 -383)" d="M 8189.34,4958.19 L 8198,4939.2 L 8219.86,4943.45 L 8303.52,5074.81 L 8269.3,5095.53 L 8189.34,4958.19 Z " />
<text x="0" y="0" stroke="none" fill="#000000" transform="matrix(0.1 0 0 0.1 823.624 60.88)" font-style="normal" font-weight="normal" font-size="150px" font-family="Arial" >
i</text>
<text x="0" y="0" stroke="none" fill="#000000" transform="matrix(0.1 0 0 0.1 826.956 68.68)" font-style="normal" font-weight="normal" font-size="200px" font-family="Arial" >
Pr</text>
<path stroke="none" fill="#000000" transform="matrix(0.1 0 0 0.1 -10.65 -383)" d="M 8234.21,4603.16 L 8224.88,4595.62 L 8230.93,4585.08 L 8243.25,4595.04 L 8234.21,4603.16 Z " />
<path stroke="none" fill="#000000" transform="matrix(0.1 0 0 0.1 -10.65 -383)" d="M 8286.02,4556.64 L 8259.52,4535.22 L 8265.57,4524.68 L 8295.06,4548.52 L 8286.02,4556.64 Z " />
<path stroke="none" fill="#000000" transform="matrix(0.1 0 0 0.1 -10.65 -383)" d="M 8337.83,4510.13 L 8294.17,4474.82 L 8300.22,4464.28 L 8346.87,4502.01 L 8337.83,4510.13 Z " />
<text x="0" y="0" stroke="none" fill="#000000" transform="matrix(0.1 0 0 0.1 914.128 129.24)" font-style="normal" font-weight="normal" font-size="150px" font-family="Arial" >
i</text>
<text x="0" y="0" stroke="none" fill="#000000" transform="matrix(0.1 0 0 0.1 917.46 137.04)" font-style="normal" font-weight="normal" font-size="200px" font-family="Arial" >
Pr</text>
<path stroke="none" fill="#000000" transform="matrix(0.1 0 0 0.1 -10.65 -383)" d="M 9521.67,4939.63 L 9542.4,4934.2 L 9551.3,4953.09 L 9495.39,5072.26 L 9459.65,5054.3 L 9521.67,4939.63 Z " />
<text x="0" y="0" stroke="none" fill="#000000" transform="matrix(0.1 0 0 0.1 909.448 58.36)" font-style="normal" font-weight="normal" font-size="150px" font-family="Arial" >
i</text>
<text x="0" y="0" stroke="none" fill="#000000" transform="matrix(0.1 0 0 0.1 912.78 66.16)" font-style="normal" font-weight="normal" font-size="200px" font-family="Arial" >
Pr</text>
<path stroke="none" fill="#000000" transform="matrix(0.1 0 0 0.1 -10.65 -383)" d="M 9522.13,4607.05 L 9511.8,4613.15 L 9503.81,4603.94 L 9517.93,4595.6 L 9522.13,4607.05 Z " />
<path stroke="none" fill="#000000" transform="matrix(0.1 0 0 0.1 -10.65 -383)" d="M 9501.25,4550.22 L 9472.14,4567.41 L 9464.15,4558.19 L 9497.05,4538.77 L 9501.25,4550.22 Z " />
<path stroke="none" fill="#000000" transform="matrix(0.1 0 0 0.1 -10.65 -383)" d="M 9480.38,4493.4 L 9432.49,4521.66 L 9424.5,4512.44 L 9476.17,4481.94 L 9480.38,4493.4 Z " />
<clipPath id="1" >
<path clip-rule="evenodd" d="M 739.85,-5.12006 L 1012.65,-5.12006 L 1012.65,243.8 L 739.85,243.8 L 739.85,-5.12006 M 749.85,221.8 C 749.85,221.8 749.85,12.0798 749.85,12.0798 C 749.85,8.10571 753.076,4.87994 757.05,4.87994 C 757.05,4.87994 990.65,4.87994 990.65,4.87994 C 994.624,4.87994 997.85,8.10571 997.85,12.0798 C 997.85,12.0798 997.85,221.8 997.85,221.8 C 997.85,225.774 994.624,229 990.65,229 C 990.65,229 757.05,229 757.05,229 C 753.076,229 749.85,225.774 749.85,221.8 " />
</clipPath>
<g clip-path="url(#1)" >
<path stroke="none" fill="#000000" transform="matrix(0.1 0 0 0.1 -47 -383)" fill-opacity="0.247059" d="M 8016.5,6096 C 8016.5,6096 8016.5,3998.8 8016.5,3998.8 C 8016.5,3959.06 8048.76,3926.8 8088.5,3926.8 C 8088.5,3926.8 10424.5,3926.8 10424.5,3926.8 C 10464.2,3926.8 10496.5,3959.06 10496.5,3998.8 C 10496.5,3998.8 10496.5,6096 10496.5,6096 C 10496.5,6135.74 10464.2,6168 10424.5,6168 C 10424.5,6168 8088.5,6168 8088.5,6168 C 8048.76,6168 8016.5,6135.74 8016.5,6096 " />
</g>
<path stroke="#000000" stroke-width="12" fill="none" transform="matrix(0.1 0 0 0.1 -10.65 -383)" d="M 7605,6048 C 7605,6048 7605,3950.8 7605,3950.8 C 7605,3911.06 7637.26,3878.8 7677,3878.8 C 7677,3878.8 10013,3878.8 10013,3878.8 C 10052.7,3878.8 10085,3911.06 10085,3950.8 C 10085,3950.8 10085,6048 10085,6048 C 10085,6087.74 10052.7,6120 10013,6120 C 10013,6120 7677,6120 7677,6120 C 7637.26,6120 7605,6087.74 7605,6048 " />
<text x="0" y="0" stroke="none" fill="#000000" transform="matrix(0.1 0 0 0.1 174.747 104)" font-style="normal" font-weight="normal" font-size="200px" font-family="Arial" >
Me</text>
<path stroke="none" fill="#000000" transform="matrix(0.1 0 0 0.1 -10.65 -383)" d="M 2325.52,4929.28 L 2325.6,4936 L 2319.74,4939.29 L 2158.52,4846.47 L 2164.52,4836.07 L 2325.52,4929.28 Z " />
<text x="0" y="0" stroke="none" fill="#000000" transform="matrix(0.1 0 0 0.1 288.402 104)" font-style="normal" font-weight="normal" font-size="200px" font-family="Arial" >
Me</text>
<path stroke="none" fill="#000000" transform="matrix(0.1 0 0 0.1 -10.65 -383)" d="M 2830.26,4939.24 L 2824.4,4936 L 2824.53,4929.3 L 2957.6,4852.17 L 2963.6,4862.56 L 2830.26,4939.24 Z " />
<text x="0" y="0" stroke="none" fill="#000000" transform="matrix(0.1 0 0 0.1 239.628 75.2)" font-style="normal" font-weight="normal" font-size="200px" font-family="Arial" >
NH</text>
<text x="0" y="0" stroke="none" fill="#000000" transform="matrix(0.1 0 0 0.1 268.515 79.6)" font-style="normal" font-weight="normal" font-size="150px" font-family="Arial" >
2</text>
<path stroke="none" fill="#000000" transform="matrix(0.1 0 0 0.1 -10.65 -383)" d="M 2580.77,4788.56 L 2575,4792 L 2569.23,4788.56 L 2569,4615.17 L 2581,4615.17 L 2580.77,4788.56 Z " />
<path stroke="none" fill="#000000" transform="matrix(0.1 0 0 0.1 -10.65 -383)" d="M 6734.72,4916.53 L 6729.76,4905.6 L 6912.32,4822.97 L 6917.47,4827.03 L 6916.35,4833.88 L 6734.72,4916.53 Z " />
<path stroke="none" fill="#000000" transform="matrix(0.1 0 0 0.1 -10.65 -383)" d="M 6916.35,4833.88 L 6917.47,4827.03 L 6923.91,4824.94 L 7132.95,5013.07 L 7131.55,5019.68 L 7125.14,5021.81 L 6916.35,4833.88 Z " />
<path stroke="none" fill="#000000" transform="matrix(0.1 0 0 0.1 -10.65 -383)" d="M 6970.38,4812.98 L 6978.41,4804.06 L 7147.99,4956.67 L 7139.96,4965.59 L 6970.38,4812.98 Z " />
<path stroke="none" fill="#000000" transform="matrix(0.1 0 0 0.1 -10.65 -383)" d="M 7136.53,5024.23 L 7131.55,5019.68 L 7132.95,5013.07 L 7400.4,4926.07 L 7410.71,4935.34 L 7136.53,5024.23 Z " />
<path stroke="none" fill="#000000" transform="matrix(0.1 0 0 0.1 -10.65 -383)" d="M 7410.71,4935.34 L 7400.4,4926.07 L 7458.79,4650.96 L 7471.98,4646.67 L 7410.71,4935.34 Z " />
<path stroke="none" fill="#000000" transform="matrix(0.1 0 0 0.1 -10.65 -383)" d="M 7366.81,4891.8 L 7355.07,4889.31 L 7402.43,4666.14 L 7414.17,4668.63 L 7366.81,4891.8 Z " />
<path stroke="none" fill="#000000" transform="matrix(0.1 0 0 0.1 -10.65 -383)" d="M 7471.98,4646.67 L 7458.79,4650.96 L 7249.73,4462.83 L 7252.61,4449.27 L 7471.98,4646.67 Z " />
<path stroke="none" fill="#000000" transform="matrix(0.1 0 0 0.1 -10.65 -383)" d="M 7252.61,4449.27 L 7249.73,4462.83 L 6982.3,4549.83 L 6977.27,4545.3 L 6978.57,4538.71 L 7252.61,4449.27 Z " />
<path stroke="none" fill="#000000" transform="matrix(0.1 0 0 0.1 -10.65 -383)" d="M 7236.86,4509.06 L 7240.57,4520.47 L 7023.62,4591.05 L 7019.91,4579.64 L 7236.86,4509.06 Z " />
<path stroke="none" fill="#000000" transform="matrix(0.1 0 0 0.1 -10.65 -383)" d="M 6970.85,4547.3 L 6977.27,4545.3 L 6982.3,4549.83 L 6923.91,4824.94 L 6917.47,4827.03 L 6912.32,4822.97 L 6970.85,4547.3 Z " />
<text x="0" y="0" stroke="none" fill="#000000" transform="matrix(0.1 0 0 0.1 643.446 60.0664)" font-style="normal" font-weight="normal" font-size="200px" font-family="Arial" >
Me</text>
<path stroke="none" fill="#000000" transform="matrix(0.1 0 0 0.1 -10.65 -383)" d="M 6978.57,4538.71 L 6977.27,4545.3 L 6970.85,4547.3 L 6837.12,4427.27 L 6845.14,4418.35 L 6978.57,4538.71 Z " />
<text x="0" y="0" stroke="none" fill="#000000" transform="matrix(0.1 0 0 0.1 674.303 154.941)" font-style="normal" font-weight="normal" font-size="200px" font-family="Arial" >
Me</text>
<path stroke="none" fill="#000000" transform="matrix(0.1 0 0 0.1 -10.65 -383)" d="M 7125.14,5021.81 L 7131.55,5019.68 L 7136.53,5024.23 L 7089.77,5245.4 L 7078.03,5242.91 L 7125.14,5021.81 Z " />
</svg>
