<?xml version="1.0" standalone="no" ?>
<!DOCTYPE svg PUBLIC "-//W3C//DTD SVG 1.1//EN" "http://www.w3.org/Graphics/SVG/1.1/DTD/svg11.dtd">
<svg width="588px" height="136px" viewBox="0 0 588 136" style="background-color: #ffffff00" xmlns="http://www.w3.org/2000/svg" xmlns:xlink="http://www.w3.org/1999/xlink" version="1.1" >
<text x="0" y="0" stroke="none" fill="#000000" transform="matrix(0.1 0 0 0.1 31.6283 80.8)" font-style="normal" font-weight="normal" font-size="200px" font-family="Arial" >
R</text>
<text x="0" y="0" stroke="none" fill="#000000" transform="matrix(0.1 0 0 0.1 46.0717 73)" font-style="normal" font-weight="normal" font-size="150px" font-family="Arial" >
1</text>
<text x="0" y="0" stroke="none" fill="#000000" transform="matrix(0.1 0 0 0.1 71.9801 80.8)" font-style="normal" font-weight="normal" font-size="200px" font-family="Arial" >
X</text>
<path stroke="none" fill="#000000" transform="matrix(0.1 0 0 0.1 -22.65 -79)" d="M 774.783,1526 L 774.783,1514 L 918.301,1514 L 918.301,1526 L 774.783,1526 Z " />
<path stroke="none" fill="#000000" transform="matrix(0.1 0 0 0.1 -22.65 -79)" d="M 2039.72,1536 L 1285,1536 L 1285,1524 L 2039.72,1524 Z " />
<path stroke="none" fill="#000000" transform="matrix(0.1 0 0 0.1 -22.65 -79)" d="M 2275,1530 C 2275,1530 2005,1598.56 2005,1598.56 C 2005,1598.56 2038.72,1560 2038.72,1530 C 2038.72,1499.56 2005,1460.44 2005,1460.44 C 2005,1460.44 2275,1530 2275,1530 C 2275,1530 2275,1530 2275,1530 " />
<path stroke="#000000" stroke-width="1" fill="none" transform="matrix(0.1 0 0 0.1 -22.65 -79)" d="M 2275,1530 C 2275,1530 2005,1598.56 2005,1598.56 C 2005,1598.56 2038.72,1560 2038.72,1530 C 2038.72,1499.56 2005,1460.44 2005,1460.44 C 2005,1460.44 2275,1530 2275,1530 C 2275,1530 2275,1530 2275,1530 " />
<text x="0" y="0" stroke="none" fill="#000000" transform="matrix(0.1 0 0 0.1 128.85 66)" font-style="normal" font-weight="normal" font-size="200px" font-family="Arial" >
Mg</text>
<text x="0" y="0" stroke="none" fill="#000000" transform="matrix(0.1 0 0 0.1 156.633 58.2)" font-style="normal" font-weight="normal" font-size="150px" font-family="Arial" >
0</text>
<path stroke="none" fill="#000000" transform="matrix(0.1 0 0 0.1 -22.65 -79)" d="M 4739.72,1536 L 3505,1536 L 3505,1524 L 4739.72,1524 Z " />
<path stroke="none" fill="#000000" transform="matrix(0.1 0 0 0.1 -22.65 -79)" d="M 4975,1530 C 4975,1530 4705,1598.56 4705,1598.56 C 4705,1598.56 4738.72,1560 4738.72,1530 C 4738.72,1499.56 4705,1460.44 4705,1460.44 C 4705,1460.44 4975,1530 4975,1530 C 4975,1530 4975,1530 4975,1530 " />
<path stroke="#000000" stroke-width="1" fill="none" transform="matrix(0.1 0 0 0.1 -22.65 -79)" d="M 4975,1530 C 4975,1530 4705,1598.56 4705,1598.56 C 4705,1598.56 4738.72,1560 4738.72,1530 C 4738.72,1499.56 4705,1460.44 4705,1460.44 C 4705,1460.44 4975,1530 4975,1530 C 4975,1530 4975,1530 4975,1530 " />
<text x="0" y="0" stroke="none" fill="#000000" transform="matrix(0.1 0 0 0.1 353.628 64.8)" font-style="normal" font-weight="normal" font-size="200px" font-family="Arial" >
R</text>
<text x="0" y="0" stroke="none" fill="#000000" transform="matrix(0.1 0 0 0.1 368.072 57)" font-style="normal" font-weight="normal" font-size="150px" font-family="Arial" >
2</text>
<path stroke="none" fill="#000000" transform="matrix(0.1 0 0 0.1 -22.65 -79)" d="M 4017.87,1275.71 L 4012.53,1264.96 L 4124.53,1208.87 L 4124.08,1222.51 L 4017.87,1275.71 Z " />
<text x="0" y="0" stroke="none" fill="#000000" transform="matrix(0.1 0 0 0.1 407.508 64.8)" font-style="normal" font-weight="normal" font-size="200px" font-family="Arial" >
R</text>
<text x="0" y="0" stroke="none" fill="#000000" transform="matrix(0.1 0 0 0.1 421.952 57)" font-style="normal" font-weight="normal" font-size="150px" font-family="Arial" >
3</text>
<path stroke="none" fill="#000000" transform="matrix(0.1 0 0 0.1 -22.65 -79)" d="M 4124.08,1222.51 L 4124.53,1208.87 L 4279.65,1298.71 L 4273.65,1309.1 L 4124.08,1222.51 Z " />
<text x="0" y="0" stroke="none" fill="#000000" transform="matrix(0.1 0 0 0.1 382.012 21.6)" font-style="normal" font-weight="normal" font-size="200px" font-family="Arial" >
O</text>
<path stroke="none" fill="#000000" transform="matrix(0.1 0 0 0.1 -22.65 -79)" d="M 4104.48,1228.9 L 4092.48,1228.9 L 4092.48,1039.67 L 4104.48,1039.67 L 4104.48,1228.9 Z " />
<path stroke="none" fill="#000000" transform="matrix(0.1 0 0 0.1 -22.65 -79)" d="M 4156.32,1230.97 L 4144.32,1230.97 L 4144.32,1039.67 L 4156.32,1039.67 L 4156.32,1230.97 Z " />
<text x="0" y="0" stroke="none" fill="#000000" transform="matrix(0.1 0 0 0.1 331.934 97)" font-style="italic" font-weight="normal" font-size="200px" font-family="Arial" >
Nucleophilic </text>
<text x="0" y="0" stroke="none" fill="#000000" transform="matrix(0.1 0 0 0.1 349.712 119.9)" font-style="italic" font-weight="normal" font-size="200px" font-family="Arial" >
Addition</text>
<text x="0" y="0" stroke="none" fill="#000000" transform="matrix(0.1 0 0 0.1 231.628 80.8)" font-style="normal" font-weight="normal" font-size="200px" font-family="Arial" >
R</text>
<text x="0" y="0" stroke="none" fill="#000000" transform="matrix(0.1 0 0 0.1 246.072 73)" font-style="normal" font-weight="normal" font-size="150px" font-family="Arial" >
1</text>
<text x="0" y="0" stroke="none" fill="#000000" transform="matrix(0.1 0 0 0.1 270.32 80.8)" font-style="normal" font-weight="normal" font-size="200px" font-family="Arial" >
MgX</text>
<path stroke="none" fill="#000000" transform="matrix(0.1 0 0 0.1 -22.65 -79)" d="M 2774.78,1526 L 2774.78,1514 L 2912.7,1514 L 2912.7,1526 L 2774.78,1526 Z " />
<text x="0" y="0" stroke="none" fill="#000000" transform="matrix(0.1 0 0 0.1 504.628 91.8)" font-style="normal" font-weight="normal" font-size="200px" font-family="Arial" >
R</text>
<text x="0" y="0" stroke="none" fill="#000000" transform="matrix(0.1 0 0 0.1 519.072 84)" font-style="normal" font-weight="normal" font-size="150px" font-family="Arial" >
2</text>
<path stroke="none" fill="#000000" transform="matrix(0.1 0 0 0.1 -22.65 -79)" d="M 5527.87,1545.71 L 5522.53,1534.96 L 5634.53,1478.87 L 5634.08,1492.51 L 5527.87,1545.71 Z " />
<text x="0" y="0" stroke="none" fill="#000000" transform="matrix(0.1 0 0 0.1 558.508 91.8)" font-style="normal" font-weight="normal" font-size="200px" font-family="Arial" >
R</text>
<text x="0" y="0" stroke="none" fill="#000000" transform="matrix(0.1 0 0 0.1 572.952 84)" font-style="normal" font-weight="normal" font-size="150px" font-family="Arial" >
3</text>
<path stroke="none" fill="#000000" transform="matrix(0.1 0 0 0.1 -22.65 -79)" d="M 5634.08,1492.51 L 5634.53,1478.87 L 5789.65,1568.71 L 5783.65,1579.1 L 5634.08,1492.51 Z " />
<text x="0" y="0" stroke="none" fill="#000000" transform="matrix(0.1 0 0 0.1 510.168 51.46)" font-style="normal" font-weight="normal" font-size="200px" font-family="Arial" >
R</text>
<text x="0" y="0" stroke="none" fill="#000000" transform="matrix(0.1 0 0 0.1 524.612 43.66)" font-style="normal" font-weight="normal" font-size="150px" font-family="Arial" >
1</text>
<path stroke="#000000" stroke-width="12" fill="none" transform="matrix(0.1 0 0 0.1 -22.65 -79)" d="M 5634.4,1486 C 5642.6,1478.61 5643.76,1466.52 5636.99,1459.01 C 5630.23,1451.51 5618.08,1451.43 5609.88,1458.82 C 5601.69,1466.22 5589.54,1466.13 5582.77,1458.63 C 5576.01,1451.13 5577.17,1439.04 5585.37,1431.64 C 5593.56,1424.25 5594.72,1412.16 5587.96,1404.66 C 5581.19,1397.16 5569.05,1397.07 5560.85,1404.47 C 5552.65,1411.86 5540.51,1411.77 5533.74,1404.27 C 5526.97,1396.77 5528.14,1384.68 5536.33,1377.29 C 5544.53,1369.89 5545.69,1357.8 5538.92,1350.3 C 5532.16,1342.8 5520.01,1342.72 5511.82,1350.11 C 5503.62,1357.5 5491.47,1357.42 5484.71,1349.92 " />
<text x="0" y="0" stroke="none" fill="#000000" transform="matrix(0.1 0 0 0.1 553.372 57.04)" font-style="normal" font-weight="normal" font-size="200px" font-family="Arial" >
OH</text>
<path stroke="#000000" stroke-width="12" fill="none" transform="matrix(0.1 0 0 0.1 -22.65 -79)" d="M 5634.4,1486 C 5642.21,1493.81 5654.24,1494.45 5661.25,1487.43 C 5668.27,1480.41 5667.63,1468.38 5659.82,1460.57 C 5652.02,1452.77 5651.38,1440.74 5658.39,1433.72 C 5665.41,1426.7 5677.44,1427.34 5685.25,1435.15 C 5693.06,1442.96 5705.09,1443.6 5712.1,1436.58 C 5719.12,1429.56 5718.48,1417.53 5710.67,1409.73 C 5702.87,1401.92 5702.23,1389.89 5709.24,1382.87 C 5716.26,1375.85 5728.29,1376.49 5736.1,1384.3 C 5743.91,1392.11 5755.94,1392.75 5762.95,1385.73 " />
<text x="0" y="0" stroke="none" fill="#000000" transform="matrix(0.1 0 0 0.1 4.85 126)" font-style="normal" font-weight="normal" font-size="200px" font-family="Arial" >
X </text>
<text x="0" y="0" stroke="none" fill="#000000" transform="matrix(0.1 0 0 0.1 23.7465 126)" font-style="normal" font-weight="normal" font-size="200px" font-family="Arial" >
= </text>
<text x="0" y="0" stroke="none" fill="#000000" transform="matrix(0.1 0 0 0.1 40.9828 126)" font-style="normal" font-weight="normal" font-size="200px" font-family="Arial" >
Cl, </text>
<text x="0" y="0" stroke="none" fill="#000000" transform="matrix(0.1 0 0 0.1 70.9828 126)" font-style="normal" font-weight="normal" font-size="200px" font-family="Arial" >
Br, </text>
<text x="0" y="0" stroke="none" fill="#000000" transform="matrix(0.1 0 0 0.1 102.096 126)" font-style="normal" font-weight="normal" font-size="200px" font-family="Arial" >
I</text>
</svg>
