<?xml version="1.0" standalone="no" ?>
<!DOCTYPE svg PUBLIC "-//W3C//DTD SVG 1.1//EN" "http://www.w3.org/Graphics/SVG/1.1/DTD/svg11.dtd">
<svg width="768px" height="227px" viewBox="0 0 768 227" style="background-color: #ffffff00" xmlns="http://www.w3.org/2000/svg" xmlns:xlink="http://www.w3.org/1999/xlink" version="1.1" >
<path stroke="none" fill="#000000" transform="matrix(0.1 0 0 0.1 1.35 -466)" d="M 5299.75,5395.87 L 3715.13,5395.87 L 3715.13,5383.87 L 5299.75,5383.87 Z " />
<path stroke="none" fill="#000000" transform="matrix(0.1 0 0 0.1 1.35 -466)" d="M 5535,5389.87 C 5535,5389.87 5265,5458.37 5265,5458.37 C 5265,5458.37 5298.75,5419.84 5298.75,5389.87 C 5298.75,5359.47 5265,5320.37 5265,5320.37 C 5265,5320.37 5535,5389.87 5535,5389.87 C 5535,5389.87 5535,5389.87 5535,5389.87 " />
<path stroke="#000000" stroke-width="1" fill="none" transform="matrix(0.1 0 0 0.1 1.35 -466)" d="M 5535,5389.87 C 5535,5389.87 5265,5458.37 5265,5458.37 C 5265,5458.37 5298.75,5419.84 5298.75,5389.87 C 5298.75,5359.47 5265,5320.37 5265,5320.37 C 5265,5320.37 5535,5389.87 5535,5389.87 C 5535,5389.87 5535,5389.87 5535,5389.87 " />
<text x="0" y="0" stroke="none" fill="#000000" transform="matrix(0.1 0 0 0.1 131.994 85)" font-style="normal" font-weight="normal" font-size="200px" font-family="Arial" >
Pd(OAc)</text>
<text x="0" y="0" stroke="none" fill="#000000" transform="matrix(0.1 0 0 0.1 208.674 89.4)" font-style="normal" font-weight="normal" font-size="150px" font-family="Arial" >
2</text>
<text x="0" y="0" stroke="none" fill="#000000" transform="matrix(0.1 0 0 0.1 217.016 85)" font-style="normal" font-weight="normal" font-size="200px" font-family="Arial" >
 </text>
<text x="0" y="0" stroke="none" fill="#000000" transform="matrix(0.1 0 0 0.1 222.573 85)" font-style="normal" font-weight="normal" font-size="200px" font-family="Arial" >
(10 </text>
<text x="0" y="0" stroke="none" fill="#000000" transform="matrix(0.1 0 0 0.1 257.036 85)" font-style="normal" font-weight="normal" font-size="200px" font-family="Arial" >
mol%)</text>
<text x="0" y="0" stroke="none" fill="#000000" transform="matrix(0.1 0 0 0.1 170.329 108)" font-style="normal" font-weight="normal" font-size="200px" font-family="Arial" >
NEt</text>
<text x="0" y="0" stroke="none" fill="#000000" transform="matrix(0.1 0 0 0.1 203.669 112.4)" font-style="normal" font-weight="normal" font-size="150px" font-family="Arial" >
3</text>
<text x="0" y="0" stroke="none" fill="#000000" transform="matrix(0.1 0 0 0.1 212.011 108)" font-style="normal" font-weight="normal" font-size="200px" font-family="Arial" >
 </text>
<text x="0" y="0" stroke="none" fill="#000000" transform="matrix(0.1 0 0 0.1 217.568 108)" font-style="normal" font-weight="normal" font-size="200px" font-family="Arial" >
(1 </text>
<text x="0" y="0" stroke="none" fill="#000000" transform="matrix(0.1 0 0 0.1 240.908 108)" font-style="normal" font-weight="normal" font-size="200px" font-family="Arial" >
eq.)</text>
<text x="0" y="0" stroke="none" fill="#000000" transform="matrix(0.1 0 0 0.1 114.85 141)" font-style="normal" font-weight="normal" font-size="200px" font-family="Arial" >
Solvent, </text>
<text x="0" y="0" stroke="none" fill="#000000" transform="matrix(0.1 0 0 0.1 192.672 141)" font-style="normal" font-weight="normal" font-size="200px" font-family="Arial" >
100 </text>
<text x="0" y="0" stroke="none" fill="#000000" transform="matrix(0.1 0 0 0.1 231.598 141)" font-style="normal" font-weight="normal" font-size="200px" font-family="Arial" >
°C, </text>
<text x="0" y="0" stroke="none" fill="#000000" transform="matrix(0.1 0 0 0.1 265.153 141)" font-style="normal" font-weight="normal" font-size="200px" font-family="Arial" >
24hrs</text>
<path stroke="none" fill="#000000" transform="matrix(0.1 0 0 0.1 1.35 -466)" d="M 4118,6335.2 L 4112,6324.8 L 4364.5,6178.85 L 4364.51,6192.72 L 4118,6335.2 Z " />
<path stroke="none" fill="#000000" transform="matrix(0.1 0 0 0.1 1.35 -466)" d="M 4143.92,6380.09 L 4137.92,6369.7 L 4361.42,6240.66 L 4367.42,6251.06 L 4143.92,6380.09 Z " />
<text x="0" y="0" stroke="none" fill="#000000" transform="matrix(0.1 0 0 0.1 456.063 174.8)" font-style="normal" font-weight="normal" font-size="200px" font-family="Arial" >
Ph</text>
<path stroke="none" fill="#000000" transform="matrix(0.1 0 0 0.1 1.35 -466)" d="M 4364.51,6192.72 L 4364.5,6178.85 L 4523.89,6271.14 L 4517.89,6281.53 L 4364.51,6192.72 Z " />
<path stroke="none" fill="#000000" transform="matrix(0.1 0 0 0.1 1.35 -466)" d="M 3265,5846 L 1065,5846 L 1065,5834 L 3265,5834 Z " />
<path stroke="none" fill="#000000" transform="matrix(0.1 0 0 0.1 1.35 -466)" d="M 3719.13,5393.87 L 3269,5844 L 3261,5836 L 3711.13,5385.87 Z " />
<path stroke="none" fill="#000000" transform="matrix(0.1 0 0 0.1 1.35 -466)" d="M 3786.07,6507.13 L 3260.5,5843.5 L 3269.5,5836.5 L 3795.07,6500.13 Z " />
<path stroke="none" fill="#000000" transform="matrix(0.1 0 0 0.1 1.35 -466)" d="M 4155,5237.1 L 4155,5223.23 L 4404.49,5078.86 L 4404.5,5092.72 L 4155,5237.1 Z " />
<path stroke="none" fill="#000000" transform="matrix(0.1 0 0 0.1 1.35 -466)" d="M 4155,5223.23 L 4155,5237.1 L 3902.58,5091.2 L 3908.58,5080.8 L 4155,5223.23 Z " />
<path stroke="none" fill="#000000" transform="matrix(0.1 0 0 0.1 1.35 -466)" d="M 4158,5164.94 L 4152,5175.34 L 3928.5,5046.3 L 3934.5,5035.91 L 4158,5164.94 Z " />
<text x="0" y="0" stroke="none" fill="#000000" transform="matrix(0.1 0 0 0.1 458.955 64.8)" font-style="normal" font-weight="normal" font-size="200px" font-family="Arial" >
OMe</text>
<path stroke="none" fill="#000000" transform="matrix(0.1 0 0 0.1 1.35 -466)" d="M 4404.5,5092.72 L 4404.49,5078.86 L 4571.35,5175.45 L 4565.35,5185.84 L 4404.5,5092.72 Z " />
<text x="0" y="0" stroke="none" fill="#000000" transform="matrix(0.1 0 0 0.1 434.013 21.6)" font-style="normal" font-weight="normal" font-size="200px" font-family="Arial" >
O</text>
<path stroke="none" fill="#000000" transform="matrix(0.1 0 0 0.1 1.35 -466)" d="M 4384.5,5100.96 L 4372.5,5100.96 L 4372.5,4909.67 L 4384.5,4909.67 L 4384.5,5100.96 Z " />
<path stroke="none" fill="#000000" transform="matrix(0.1 0 0 0.1 1.35 -466)" d="M 4436.34,5100.96 L 4424.34,5100.96 L 4424.34,4909.67 L 4436.34,4909.67 L 4436.34,5100.96 Z " />
<path stroke="none" fill="#000000" transform="matrix(0.1 0 0 0.1 1.35 -466)" d="M 5304.16,6509.63 L 3790.57,6509.63 L 3790.57,6497.63 L 5304.16,6497.63 Z " />
<path stroke="none" fill="#000000" transform="matrix(0.1 0 0 0.1 1.35 -466)" d="M 5539.44,6503.63 C 5539.44,6503.63 5269.44,6572.19 5269.44,6572.19 C 5269.44,6572.19 5303.16,6533.63 5303.16,6503.63 C 5303.16,6473.2 5269.44,6434.07 5269.44,6434.07 C 5269.44,6434.07 5539.44,6503.63 5539.44,6503.63 C 5539.44,6503.63 5539.44,6503.63 5539.44,6503.63 " />
<path stroke="#000000" stroke-width="1" fill="none" transform="matrix(0.1 0 0 0.1 1.35 -466)" d="M 5539.44,6503.63 C 5539.44,6503.63 5269.44,6572.19 5269.44,6572.19 C 5269.44,6572.19 5303.16,6533.63 5303.16,6503.63 C 5303.16,6473.2 5269.44,6434.07 5269.44,6434.07 C 5269.44,6434.07 5539.44,6503.63 5539.44,6503.63 C 5539.44,6503.63 5539.44,6503.63 5539.44,6503.63 " />
<path stroke="none" fill="#000000" transform="matrix(0.1 0 0 0.1 1.35 -466)" d="M 27.9011,5860 L 41.7654,5860 L 182.383,6103.56 L 175.451,6115.56 L 27.9011,5860 Z " />
<path stroke="none" fill="#000000" transform="matrix(0.1 0 0 0.1 1.35 -466)" d="M 89.6636,5863 L 100.056,5857 L 214.126,6054.58 L 203.734,6060.58 L 89.6636,5863 Z " />
<path stroke="none" fill="#000000" transform="matrix(0.1 0 0 0.1 1.35 -466)" d="M 175.451,6115.56 L 182.383,6103.56 L 463.617,6103.56 L 470.549,6115.56 L 175.451,6115.56 Z " />
<path stroke="none" fill="#000000" transform="matrix(0.1 0 0 0.1 1.35 -466)" d="M 470.549,6115.56 L 463.617,6103.56 L 604.234,5860 L 611,5860 L 614.398,5865.83 L 470.549,6115.56 Z " />
<path stroke="none" fill="#000000" transform="matrix(0.1 0 0 0.1 1.35 -466)" d="M 442.266,6060.58 L 431.874,6054.58 L 545.944,5857 L 556.336,5863 L 442.266,6060.58 Z " />
<path stroke="none" fill="#000000" transform="matrix(0.1 0 0 0.1 1.35 -466)" d="M 614.398,5854.17 L 611,5860 L 604.234,5860 L 463.617,5616.44 L 470.549,5604.44 L 614.398,5854.17 Z " />
<path stroke="none" fill="#000000" transform="matrix(0.1 0 0 0.1 1.35 -466)" d="M 470.549,5604.44 L 463.617,5616.44 L 182.383,5616.44 L 175.451,5604.44 L 470.549,5604.44 Z " />
<path stroke="none" fill="#000000" transform="matrix(0.1 0 0 0.1 1.35 -466)" d="M 437.07,5656.42 L 437.07,5668.42 L 208.93,5668.42 L 208.93,5656.42 L 437.07,5656.42 Z " />
<path stroke="none" fill="#000000" transform="matrix(0.1 0 0 0.1 1.35 -466)" d="M 175.451,5604.44 L 182.383,5616.44 L 41.7654,5860 L 27.9011,5860 L 175.451,5604.44 Z " />
<text x="0" y="0" stroke="none" fill="#000000" transform="matrix(0.1 0 0 0.1 88.4716 127.8)" font-style="normal" font-weight="normal" font-size="200px" font-family="Arial" >
I</text>
<path stroke="none" fill="#000000" transform="matrix(0.1 0 0 0.1 1.35 -466)" d="M 614.398,5865.83 L 611,5860 L 614.398,5854.17 L 858.217,5854 L 858.217,5866 L 614.398,5865.83 Z " />
<path stroke="none" fill="#000000" transform="matrix(0.1 0 0 0.1 1.35 -466)" d="M 5761,5552.68 L 5773.17,5546.02 L 6013.46,5692.13 L 6013.15,5706 L 5761,5552.68 Z " />
<path stroke="none" fill="#000000" transform="matrix(0.1 0 0 0.1 1.35 -466)" d="M 5816.62,5525.65 L 5822.86,5515.4 L 6017.79,5633.93 L 6011.55,5644.18 L 5816.62,5525.65 Z " />
<path stroke="none" fill="#000000" transform="matrix(0.1 0 0 0.1 1.35 -466)" d="M 6013.15,5706 L 6013.46,5692.13 L 6260.15,5557.09 L 6272,5564.29 L 6013.15,5706 Z " />
<path stroke="none" fill="#000000" transform="matrix(0.1 0 0 0.1 1.35 -466)" d="M 6272,5564.29 L 6260.15,5557.09 L 6266.54,5275.93 L 6272.48,5272.68 L 6278.26,5276.19 L 6272,5564.29 Z " />
<path stroke="none" fill="#000000" transform="matrix(0.1 0 0 0.1 1.35 -466)" d="M 6220.78,5529.64 L 6208.79,5529.37 L 6213.97,5301.29 L 6225.97,5301.56 L 6220.78,5529.64 Z " />
<path stroke="none" fill="#000000" transform="matrix(0.1 0 0 0.1 1.35 -466)" d="M 6272.63,5265.91 L 6272.48,5272.68 L 6266.54,5275.93 L 6026.25,5129.81 L 6026.56,5115.95 L 6272.63,5265.91 Z " />
<path stroke="none" fill="#000000" transform="matrix(0.1 0 0 0.1 1.35 -466)" d="M 6026.56,5115.95 L 6026.25,5129.81 L 5779.56,5264.86 L 5767.71,5257.65 L 6026.56,5115.95 Z " />
<path stroke="none" fill="#000000" transform="matrix(0.1 0 0 0.1 1.35 -466)" d="M 6022.16,5177.63 L 6027.92,5188.15 L 5827.8,5297.71 L 5822.04,5287.18 L 6022.16,5177.63 Z " />
<path stroke="none" fill="#000000" transform="matrix(0.1 0 0 0.1 1.35 -466)" d="M 5767.71,5257.65 L 5779.56,5264.86 L 5773.17,5546.02 L 5761,5552.68 L 5767.71,5257.65 Z " />
<path stroke="none" fill="#000000" transform="matrix(0.1 0 0 0.1 1.35 -466)" d="M 6278.26,5276.19 L 6272.48,5272.68 L 6272.63,5265.91 L 6525.26,5127.29 L 6524.95,5141.15 L 6278.26,5276.19 Z " />
<path stroke="none" fill="#000000" transform="matrix(0.1 0 0 0.1 1.35 -466)" d="M 6524.95,5141.15 L 6525.26,5127.29 L 6771.33,5277.25 L 6771.02,5291.11 L 6524.95,5141.15 Z " />
<path stroke="none" fill="#000000" transform="matrix(0.1 0 0 0.1 1.35 -466)" d="M 6548.92,5095.22 L 6555.15,5084.96 L 6775.66,5219.04 L 6769.42,5229.3 L 6548.92,5095.22 Z " />
<path stroke="none" fill="#000000" transform="matrix(0.1 0 0 0.1 1.35 -466)" d="M 6771.02,5291.11 L 6771.33,5277.25 L 7024.04,5138.58 L 7023.73,5152.44 L 6771.02,5291.11 Z " />
<text x="0" y="0" stroke="none" fill="#000000" transform="matrix(0.1 0 0 0.1 720.56 71.3352)" font-style="normal" font-weight="normal" font-size="200px" font-family="Arial" >
OMe</text>
<path stroke="none" fill="#000000" transform="matrix(0.1 0 0 0.1 1.35 -466)" d="M 7023.73,5152.44 L 7024.04,5138.58 L 7188.67,5238.95 L 7182.44,5249.2 L 7023.73,5152.44 Z " />
<text x="0" y="0" stroke="none" fill="#000000" transform="matrix(0.1 0 0 0.1 696.607 27.5795)" font-style="normal" font-weight="normal" font-size="200px" font-family="Arial" >
O</text>
<path stroke="none" fill="#000000" transform="matrix(0.1 0 0 0.1 1.35 -466)" d="M 7003.55,5160.23 L 6991.55,5159.96 L 6995.9,4968.69 L 7007.9,4968.96 L 7003.55,5160.23 Z " />
<path stroke="none" fill="#000000" transform="matrix(0.1 0 0 0.1 1.35 -466)" d="M 7055.37,5161.41 L 7043.38,5161.13 L 7047.73,4969.86 L 7059.72,4970.14 L 7055.37,5161.41 Z " />
<path stroke="none" fill="#000000" transform="matrix(0.1 0 0 0.1 1.35 -466)" d="M 5791,6732.68 L 5803.17,6726.02 L 6043.46,6872.13 L 6043.15,6886 L 5791,6732.68 Z " />
<path stroke="none" fill="#000000" transform="matrix(0.1 0 0 0.1 1.35 -466)" d="M 5846.62,6705.65 L 5852.86,6695.4 L 6047.79,6813.93 L 6041.55,6824.18 L 5846.62,6705.65 Z " />
<path stroke="none" fill="#000000" transform="matrix(0.1 0 0 0.1 1.35 -466)" d="M 6043.15,6886 L 6043.46,6872.13 L 6290.15,6737.09 L 6302,6744.29 L 6043.15,6886 Z " />
<path stroke="none" fill="#000000" transform="matrix(0.1 0 0 0.1 1.35 -466)" d="M 6302,6744.29 L 6290.15,6737.09 L 6296.54,6455.93 L 6302.48,6452.68 L 6308.26,6456.19 L 6302,6744.29 Z " />
<path stroke="none" fill="#000000" transform="matrix(0.1 0 0 0.1 1.35 -466)" d="M 6250.78,6709.64 L 6238.79,6709.37 L 6243.97,6481.29 L 6255.97,6481.56 L 6250.78,6709.64 Z " />
<path stroke="none" fill="#000000" transform="matrix(0.1 0 0 0.1 1.35 -466)" d="M 6302.63,6445.91 L 6302.48,6452.68 L 6296.54,6455.93 L 6056.25,6309.81 L 6056.56,6295.95 L 6302.63,6445.91 Z " />
<path stroke="none" fill="#000000" transform="matrix(0.1 0 0 0.1 1.35 -466)" d="M 6056.56,6295.95 L 6056.25,6309.81 L 5809.56,6444.86 L 5797.71,6437.65 L 6056.56,6295.95 Z " />
<path stroke="none" fill="#000000" transform="matrix(0.1 0 0 0.1 1.35 -466)" d="M 6052.16,6357.63 L 6057.92,6368.15 L 5857.8,6477.7 L 5852.04,6467.18 L 6052.16,6357.63 Z " />
<path stroke="none" fill="#000000" transform="matrix(0.1 0 0 0.1 1.35 -466)" d="M 5797.71,6437.65 L 5809.56,6444.86 L 5803.17,6726.02 L 5791,6732.68 L 5797.71,6437.65 Z " />
<path stroke="none" fill="#000000" transform="matrix(0.1 0 0 0.1 1.35 -466)" d="M 6308.26,6456.19 L 6302.48,6452.68 L 6302.63,6445.91 L 6555.26,6307.29 L 6554.95,6321.15 L 6308.26,6456.19 Z " />
<path stroke="none" fill="#000000" transform="matrix(0.1 0 0 0.1 1.35 -466)" d="M 6554.95,6321.15 L 6555.26,6307.29 L 6801.33,6457.25 L 6801.02,6471.11 L 6554.95,6321.15 Z " />
<path stroke="none" fill="#000000" transform="matrix(0.1 0 0 0.1 1.35 -466)" d="M 6578.92,6275.22 L 6585.15,6264.96 L 6805.66,6399.04 L 6799.42,6409.3 L 6578.92,6275.22 Z " />
<path stroke="none" fill="#000000" transform="matrix(0.1 0 0 0.1 1.35 -466)" d="M 6801.02,6471.11 L 6801.33,6457.25 L 7048.1,6322.16 L 7053.8,6325.72 L 7053.57,6332.52 L 6801.02,6471.11 Z " />
<path stroke="none" fill="#000000" transform="matrix(0.1 0 0 0.1 1.35 -466)" d="M 7053.57,6332.52 L 7053.8,6325.72 L 7059.81,6322.61 L 7296.72,6474.15 L 7296.09,6488 L 7053.57,6332.52 Z " />
<path stroke="none" fill="#000000" transform="matrix(0.1 0 0 0.1 1.35 -466)" d="M 7103.72,6303.23 L 7110.18,6293.12 L 7302.37,6416.05 L 7295.9,6426.16 L 7103.72,6303.23 Z " />
<path stroke="none" fill="#000000" transform="matrix(0.1 0 0 0.1 1.35 -466)" d="M 7296.09,6488 L 7296.72,6474.15 L 7546.42,6344.74 L 7558.1,6352.21 L 7296.09,6488 Z " />
<path stroke="none" fill="#000000" transform="matrix(0.1 0 0 0.1 1.35 -466)" d="M 7558.1,6352.21 L 7546.42,6344.74 L 7559.2,6063.8 L 7571.51,6057.42 L 7558.1,6352.21 Z " />
<path stroke="none" fill="#000000" transform="matrix(0.1 0 0 0.1 1.35 -466)" d="M 7507.69,6316.41 L 7495.7,6315.86 L 7506.07,6087.96 L 7518.05,6088.5 L 7507.69,6316.41 Z " />
<path stroke="none" fill="#000000" transform="matrix(0.1 0 0 0.1 1.35 -466)" d="M 7571.51,6057.42 L 7559.2,6063.8 L 7322.28,5912.26 L 7322.91,5898.41 L 7571.51,6057.42 Z " />
<path stroke="none" fill="#000000" transform="matrix(0.1 0 0 0.1 1.35 -466)" d="M 7322.91,5898.41 L 7322.28,5912.26 L 7072.59,6041.66 L 7060.91,6034.19 L 7322.91,5898.41 Z " />
<path stroke="none" fill="#000000" transform="matrix(0.1 0 0 0.1 1.35 -466)" d="M 7317.11,5959.97 L 7322.63,5970.63 L 7120.08,6075.6 L 7114.56,6064.95 L 7317.11,5959.97 Z " />
<path stroke="none" fill="#000000" transform="matrix(0.1 0 0 0.1 1.35 -466)" d="M 7060.91,6034.19 L 7072.59,6041.66 L 7059.81,6322.61 L 7053.8,6325.72 L 7048.1,6322.16 L 7060.91,6034.19 Z " />
</svg>
