<?xml version="1.0" standalone="no" ?>
<!DOCTYPE svg PUBLIC "-//W3C//DTD SVG 1.1//EN" "http://www.w3.org/Graphics/SVG/1.1/DTD/svg11.dtd">
<svg width="658px" height="105px" viewBox="0 0 658 105" style="background-color: #ffffff00" xmlns="http://www.w3.org/2000/svg" xmlns:xlink="http://www.w3.org/1999/xlink" version="1.1" >
<path stroke="none" fill="#000000" transform="matrix(0.1 0 0 0.1 -40.65 -414)" d="M 488,5145.2 L 482,5134.8 L 728.556,4992.62 L 740.563,4999.55 L 488,5145.2 Z " />
<path stroke="none" fill="#000000" transform="matrix(0.1 0 0 0.1 -40.65 -414)" d="M 462.08,5100.3 L 456.08,5089.91 L 679.575,4960.87 L 685.575,4971.27 L 462.08,5100.3 Z " />
<path stroke="none" fill="#000000" transform="matrix(0.1 0 0 0.1 -40.65 -414)" d="M 740.563,4999.55 L 728.556,4992.62 L 728.263,4704.34 L 740.279,4711.26 L 740.563,4999.55 Z " />
<text x="0" y="0" stroke="none" fill="#000000" transform="matrix(0.1 0 0 0.1 50.5114 50.2)" font-style="normal" font-weight="normal" font-size="200px" font-family="Arial" >
N</text>
<path stroke="none" fill="#000000" transform="matrix(0.1 0 0 0.1 -40.65 -414)" d="M 740.279,4711.26 L 728.263,4704.34 L 877.974,4618.19 L 883.974,4628.58 L 740.279,4711.26 Z " />
<path stroke="none" fill="#000000" transform="matrix(0.1 0 0 0.1 -40.65 -414)" d="M 1082.93,4628.14 L 1088.93,4617.75 L 1239.4,4704.34 L 1227.38,4711.26 L 1082.93,4628.14 Z " />
<path stroke="none" fill="#000000" transform="matrix(0.1 0 0 0.1 -40.65 -414)" d="M 1227.38,4711.26 L 1239.4,4704.34 L 1239.1,4992.62 L 1227.1,4999.55 L 1227.38,4711.26 Z " />
<path stroke="none" fill="#000000" transform="matrix(0.1 0 0 0.1 -40.65 -414)" d="M 1227.1,4999.55 L 1239.1,4992.62 L 1485.66,5134.8 L 1479.66,5145.2 L 1227.1,4999.55 Z " />
<path stroke="none" fill="#000000" transform="matrix(0.1 0 0 0.1 -40.65 -414)" d="M 1282.09,4971.27 L 1288.09,4960.87 L 1511.58,5089.91 L 1505.58,5100.3 L 1282.09,4971.27 Z " />
<text x="0" y="0" stroke="none" fill="#000000" transform="matrix(0.1 0 0 0.1 46.6246 21.4)" font-style="normal" font-weight="normal" font-size="200px" font-family="Arial" >
Ts</text>
<path stroke="none" fill="#000000" transform="matrix(0.1 0 0 0.1 -40.65 -414)" d="M 989.83,4469.17 L 977.831,4469.17 L 977.831,4387.17 L 989.83,4387.17 L 989.83,4469.17 Z " />
<path stroke="none" fill="#000000" transform="matrix(0.1 0 0 0.1 -40.65 -414)" d="M 4572.14,4836 L 1795,4836 L 1795,4824 L 4572.14,4824 Z " />
<path stroke="none" fill="#000000" transform="matrix(0.1 0 0 0.1 -40.65 -414)" d="M 4807.39,4830 C 4807.39,4830 4537.4,4898.5 4537.4,4898.5 C 4537.4,4898.5 4571.14,4859.97 4571.14,4830 C 4571.14,4799.59 4537.4,4760.5 4537.4,4760.5 C 4537.4,4760.5 4807.39,4830 4807.39,4830 C 4807.39,4830 4807.39,4830 4807.39,4830 " />
<path stroke="#000000" stroke-width="1" fill="none" transform="matrix(0.1 0 0 0.1 -40.65 -414)" d="M 4807.39,4830 C 4807.39,4830 4537.4,4898.5 4537.4,4898.5 C 4537.4,4898.5 4571.14,4859.97 4571.14,4830 C 4571.14,4799.59 4537.4,4760.5 4537.4,4760.5 C 4537.4,4760.5 4807.39,4830 4807.39,4830 C 4807.39,4830 4807.39,4830 4807.39,4830 " />
<text x="0" y="0" stroke="none" fill="#000000" transform="matrix(0.1 0 0 0.1 138.85 55)" font-style="normal" font-weight="normal" font-size="200px" font-family="Arial" >
Hoveyda-Grubbs </text>
<text x="0" y="0" stroke="none" fill="#000000" transform="matrix(0.1 0 0 0.1 295.588 55)" font-style="normal" font-weight="normal" font-size="200px" font-family="Arial" >
(0.25 </text>
<text x="0" y="0" stroke="none" fill="#000000" transform="matrix(0.1 0 0 0.1 346.731 55)" font-style="normal" font-weight="normal" font-size="200px" font-family="Arial" >
mol%)</text>
<text x="0" y="0" stroke="none" fill="#000000" transform="matrix(0.1 0 0 0.1 181.85 91)" font-style="normal" font-weight="normal" font-size="200px" font-family="Arial" >
Solvent, </text>
<text x="0" y="0" stroke="none" fill="#000000" transform="matrix(0.1 0 0 0.1 259.672 91)" font-style="normal" font-weight="normal" font-size="200px" font-family="Arial" >
40 </text>
<text x="0" y="0" stroke="none" fill="#000000" transform="matrix(0.1 0 0 0.1 287.475 91)" font-style="normal" font-weight="normal" font-size="200px" font-family="Arial" >
°C, </text>
<text x="0" y="0" stroke="none" fill="#000000" transform="matrix(0.1 0 0 0.1 321.03 91)" font-style="normal" font-weight="normal" font-size="200px" font-family="Arial" >
1hr</text>
<text x="0" y="0" stroke="none" fill="#000000" transform="matrix(0.1 0 0 0.1 473.208 50.2449)" font-style="normal" font-weight="normal" font-size="200px" font-family="Arial" >
N</text>
<path stroke="none" fill="#000000" transform="matrix(0.1 0 0 0.1 -40.65 -414)" d="M 5351.61,5016.29 L 5343.09,5004.13 L 5434.04,4739.65 L 5448.24,4735.31 L 5351.61,5016.29 Z " />
<path stroke="none" fill="#000000" transform="matrix(0.1 0 0 0.1 -40.65 -414)" d="M 5448.24,4735.31 L 5434.04,4739.65 L 5305.44,4643.21 L 5312.66,4633.63 L 5448.24,4735.31 Z " />
<path stroke="none" fill="#000000" transform="matrix(0.1 0 0 0.1 -40.65 -414)" d="M 5107.18,4629.74 L 5114.07,4639.56 L 4981.72,4731.93 L 4967.67,4727.11 L 5107.18,4629.74 Z " />
<path stroke="none" fill="#000000" transform="matrix(0.1 0 0 0.1 -40.65 -414)" d="M 4967.67,4727.11 L 4981.72,4731.93 L 5063.59,4999.36 L 5054.66,5011.22 L 4967.67,4727.11 Z " />
<path stroke="none" fill="#000000" transform="matrix(0.1 0 0 0.1 -40.65 -414)" d="M 5054.66,5011.22 L 5063.59,4999.36 L 5343.09,5004.13 L 5351.61,5016.29 L 5054.66,5011.22 Z " />
<path stroke="none" fill="#000000" transform="matrix(0.1 0 0 0.1 -40.65 -414)" d="M 5097.7,4959.92 L 5097.91,4947.93 L 5310.55,4951.55 L 5310.34,4963.55 L 5097.7,4959.92 Z " />
<text x="0" y="0" stroke="none" fill="#000000" transform="matrix(0.1 0 0 0.1 469.813 21.4491)" font-style="normal" font-weight="normal" font-size="200px" font-family="Arial" >
Ts</text>
<path stroke="none" fill="#000000" transform="matrix(0.1 0 0 0.1 -40.65 -414)" d="M 5218.42,4469.74 L 5206.42,4469.54 L 5207.82,4387.53 L 5219.82,4387.73 L 5218.42,4469.74 Z " />
<text x="0" y="0" stroke="none" fill="#000000" transform="matrix(0.1 0 0 0.1 534.85 75)" font-style="normal" font-weight="normal" font-size="200px" font-family="Arial" >
+</text>
<text x="0" y="0" stroke="none" fill="#000000" transform="matrix(0.1 0 0 0.1 564.843 73.8)" font-style="normal" font-weight="normal" font-size="200px" font-family="Arial" >
H</text>
<text x="0" y="0" stroke="none" fill="#000000" transform="matrix(0.1 0 0 0.1 579.286 78.2)" font-style="normal" font-weight="normal" font-size="150px" font-family="Arial" >
2</text>
<text x="0" y="0" stroke="none" fill="#000000" transform="matrix(0.1 0 0 0.1 587.628 73.8)" font-style="normal" font-weight="normal" font-size="200px" font-family="Arial" >
C</text>
<text x="0" y="0" stroke="none" fill="#000000" transform="matrix(0.1 0 0 0.1 616.428 73.8)" font-style="normal" font-weight="normal" font-size="200px" font-family="Arial" >
CH</text>
<text x="0" y="0" stroke="none" fill="#000000" transform="matrix(0.1 0 0 0.1 645.315 78.2)" font-style="normal" font-weight="normal" font-size="150px" font-family="Arial" >
2</text>
<path stroke="none" fill="#000000" transform="matrix(0.1 0 0 0.1 -40.65 -414)" d="M 6450.93,4780.08 L 6450.93,4768.08 L 6549.78,4768.08 L 6549.78,4780.08 L 6450.93,4780.08 Z " />
<path stroke="none" fill="#000000" transform="matrix(0.1 0 0 0.1 -40.65 -414)" d="M 6450.93,4831.92 L 6450.93,4819.92 L 6549.78,4819.92 L 6549.78,4831.92 L 6450.93,4831.92 Z " />
</svg>
