<?xml version="1.0" standalone="no" ?>
<!DOCTYPE svg PUBLIC "-//W3C//DTD SVG 1.1//EN" "http://www.w3.org/Graphics/SVG/1.1/DTD/svg11.dtd">
<svg width="719px" height="193px" viewBox="0 0 719 193" style="background-color: #ffffff00" xmlns="http://www.w3.org/2000/svg" xmlns:xlink="http://www.w3.org/1999/xlink" version="1.1" >
<path stroke="none" fill="#000000" transform="matrix(0.1 0 0 0.1 -22.65 -444)" d="M 488.288,5985.86 L 485,5980 L 488.233,5974.13 L 769.755,5974.14 L 773,5980 L 769.732,5985.86 L 488.288,5985.86 Z " />
<path stroke="none" fill="#000000" transform="matrix(0.1 0 0 0.1 -22.65 -444)" d="M 514.93,5934.16 L 514.93,5922.16 L 743.07,5922.16 L 743.07,5934.16 L 514.93,5934.16 Z " />
<text x="0" y="0" stroke="none" fill="#0000ff" transform="matrix(0.1 0 0 0.1 61.8283 136.858)" font-style="normal" font-weight="normal" font-size="200px" font-family="Arial" >
R</text>
<path stroke="none" fill="#0000ff" transform="matrix(0.1 0 0 0.1 -22.65 -444)" d="M 779.652,5979.98 L 773,5980 L 769.755,5974.14 L 848.335,5837.52 L 858.728,5843.51 L 779.652,5979.98 Z " />
<text x="0" y="0" stroke="none" fill="#0000ff" transform="matrix(0.1 0 0 0.1 4.22833 186.742)" font-style="normal" font-weight="normal" font-size="200px" font-family="Arial" >
R</text>
<path stroke="none" fill="#0000ff" transform="matrix(0.1 0 0 0.1 -22.65 -444)" d="M 478.344,5979.95 L 485,5980 L 488.288,5985.86 L 397.001,6144.42 L 386.609,6138.42 L 478.344,5979.95 Z " />
<text x="0" y="0" stroke="none" fill="#0000ff" transform="matrix(0.1 0 0 0.1 4.22833 136.858)" font-style="normal" font-weight="normal" font-size="200px" font-family="Arial" >
R</text>
<path stroke="none" fill="#0000ff" transform="matrix(0.1 0 0 0.1 -22.65 -444)" d="M 488.233,5974.13 L 485,5980 L 478.344,5979.95 L 402.164,5848.52 L 412.556,5842.52 L 488.233,5974.13 Z " />
<text x="0" y="0" stroke="none" fill="#0000ff" transform="matrix(0.1 0 0 0.1 61.8283 186.742)" font-style="normal" font-weight="normal" font-size="200px" font-family="Arial" >
R</text>
<path stroke="none" fill="#0000ff" transform="matrix(0.1 0 0 0.1 -22.65 -444)" d="M 769.732,5985.86 L 773,5980 L 779.652,5979.98 L 864.934,6127.24 L 854.542,6133.23 L 769.732,5985.86 Z " />
<path stroke="none" fill="#000000" transform="matrix(0.1 0 0 0.1 -22.65 -444)" d="M 1698.2,5985.87 L 1695,5980 L 1698.23,5974.13 L 1979.75,5974.14 L 1983,5980 L 1979.73,5985.86 L 1698.2,5985.87 Z " />
<path stroke="none" fill="#000000" transform="matrix(0.1 0 0 0.1 -22.65 -444)" d="M 1724.93,5934.16 L 1724.93,5922.16 L 1953.07,5922.16 L 1953.07,5934.16 L 1724.93,5934.16 Z " />
<text x="0" y="0" stroke="none" fill="#25ba29" transform="matrix(0.1 0 0 0.1 182.828 136.858)" font-style="normal" font-weight="normal" font-size="200px" font-family="Arial" >
R</text>
<text x="0" y="0" stroke="none" fill="#25ba29" transform="matrix(0.1 0 0 0.1 197.272 129.058)" font-style="normal" font-weight="normal" font-size="150px" font-family="Arial" >
1</text>
<path stroke="none" fill="#25ba29" transform="matrix(0.1 0 0 0.1 -22.65 -444)" d="M 1989.65,5979.98 L 1983,5980 L 1979.75,5974.14 L 2058.41,5837.39 L 2068.8,5843.39 L 1989.65,5979.98 Z " />
<text x="0" y="0" stroke="none" fill="#25ba29" transform="matrix(0.1 0 0 0.1 125.228 186.741)" font-style="normal" font-weight="normal" font-size="200px" font-family="Arial" >
R</text>
<text x="0" y="0" stroke="none" fill="#25ba29" transform="matrix(0.1 0 0 0.1 139.672 178.941)" font-style="normal" font-weight="normal" font-size="150px" font-family="Arial" >
1</text>
<path stroke="none" fill="#25ba29" transform="matrix(0.1 0 0 0.1 -22.65 -444)" d="M 1688.38,5980.03 L 1695,5980 L 1698.2,5985.87 L 1629.28,6105.83 L 1618.89,6099.83 L 1688.38,5980.03 Z " />
<text x="0" y="0" stroke="none" fill="#25ba29" transform="matrix(0.1 0 0 0.1 125.228 136.858)" font-style="normal" font-weight="normal" font-size="200px" font-family="Arial" >
R</text>
<text x="0" y="0" stroke="none" fill="#25ba29" transform="matrix(0.1 0 0 0.1 139.672 129.058)" font-style="normal" font-weight="normal" font-size="150px" font-family="Arial" >
1</text>
<path stroke="none" fill="#25ba29" transform="matrix(0.1 0 0 0.1 -22.65 -444)" d="M 1698.23,5974.13 L 1695,5980 L 1688.38,5980.03 L 1611.84,5847.97 L 1622.23,5841.97 L 1698.23,5974.13 Z " />
<text x="0" y="0" stroke="none" fill="#25ba29" transform="matrix(0.1 0 0 0.1 182.828 186.741)" font-style="normal" font-weight="normal" font-size="200px" font-family="Arial" >
R</text>
<text x="0" y="0" stroke="none" fill="#25ba29" transform="matrix(0.1 0 0 0.1 197.272 178.941)" font-style="normal" font-weight="normal" font-size="150px" font-family="Arial" >
1</text>
<path stroke="none" fill="#25ba29" transform="matrix(0.1 0 0 0.1 -22.65 -444)" d="M 1979.73,5985.86 L 1983,5980 L 1989.65,5979.98 L 2074.86,6127.11 L 2064.47,6133.11 L 1979.73,5985.86 Z " />
<text x="0" y="0" stroke="none" fill="#000000" transform="matrix(0.1 0 0 0.1 92.85 159)" font-style="normal" font-weight="normal" font-size="200px" font-family="Arial" >
+</text>
<path stroke="none" fill="#000000" transform="matrix(0.1 0 0 0.1 -22.65 -444)" d="M 4940.98,5976 L 2565,5976 L 2565,5964 L 4940.98,5964 Z " />
<path stroke="none" fill="#000000" transform="matrix(0.1 0 0 0.1 -22.65 -444)" d="M 5176.23,5970 C 5176.23,5970 4906.23,6038.5 4906.23,6038.5 C 4906.23,6038.5 4939.98,5999.97 4939.98,5970 C 4939.98,5939.59 4906.23,5900.5 4906.23,5900.5 C 4906.23,5900.5 5176.23,5970 5176.23,5970 C 5176.23,5970 5176.23,5970 5176.23,5970 " />
<path stroke="#000000" stroke-width="1" fill="none" transform="matrix(0.1 0 0 0.1 -22.65 -444)" d="M 5176.23,5970 C 5176.23,5970 4906.23,6038.5 4906.23,6038.5 C 4906.23,6038.5 4939.98,5999.97 4939.98,5970 C 4939.98,5939.59 4906.23,5900.5 4906.23,5900.5 C 4906.23,5900.5 5176.23,5970 5176.23,5970 C 5176.23,5970 5176.23,5970 5176.23,5970 " />
<text x="0" y="0" stroke="none" fill="#000000" transform="matrix(0.1 0 0 0.1 335.609 76.1676)" font-style="normal" font-weight="normal" font-size="200px" font-family="Arial" >
Ru</text>
<path stroke="none" fill="#000000" transform="matrix(0.1 0 0 0.1 -22.65 -444)" d="M 3696.83,4838.33 L 3702.59,4835.53 L 3708.49,4838.3 L 3713.84,5028.74 L 3701.85,5029.06 L 3696.83,4838.33 Z " />
<path stroke="none" fill="#000000" transform="matrix(0.1 0 0 0.1 -22.65 -444)" d="M 3855.59,5129.68 L 3855.59,5117.68 L 3995.98,5117.37 L 3989.03,5129.37 L 3855.59,5129.68 Z " />
<path stroke="none" fill="#000000" transform="matrix(0.1 0 0 0.1 -22.65 -444)" d="M 3855.59,5167.45 L 3855.59,5155.45 L 3970.66,5155.45 L 3970.66,5167.45 L 3855.59,5167.45 Z " />
<path stroke="none" fill="#000000" transform="matrix(0.1 0 0 0.1 -22.65 -444)" d="M 3989.03,5129.37 L 3995.98,5117.37 L 4108.58,5313.15 L 4105.22,5318.97 L 4098.5,5318.97 L 3989.03,5129.37 Z " />
<path stroke="none" fill="#000000" transform="matrix(0.1 0 0 0.1 -22.65 -444)" d="M 4098.5,5318.97 L 4105.22,5318.97 L 4108.58,5324.79 L 3999.19,5514.26 L 3992.47,5514.26 L 3989.14,5508.4 L 4098.5,5318.97 Z " />
<path stroke="none" fill="#000000" transform="matrix(0.1 0 0 0.1 -22.65 -444)" d="M 4123.46,5356.56 L 4133.85,5362.56 L 4044.54,5517.26 L 4034.14,5511.26 L 4123.46,5356.56 Z " />
<path stroke="none" fill="#000000" transform="matrix(0.1 0 0 0.1 -22.65 -444)" d="M 3989.02,5519.95 L 3992.47,5514.26 L 3999.19,5514.26 L 4108.58,5703.73 L 4101.65,5715.74 L 3989.02,5519.95 Z " />
<path stroke="none" fill="#000000" transform="matrix(0.1 0 0 0.1 -22.65 -444)" d="M 4101.65,5715.74 L 4108.58,5703.73 L 4327.37,5703.73 L 4334.3,5715.74 L 4101.65,5715.74 Z " />
<path stroke="none" fill="#000000" transform="matrix(0.1 0 0 0.1 -22.65 -444)" d="M 4128.66,5674.96 L 4128.66,5662.96 L 4307.29,5662.96 L 4307.29,5674.96 L 4128.66,5674.96 Z " />
<path stroke="none" fill="#000000" transform="matrix(0.1 0 0 0.1 -22.65 -444)" d="M 4334.3,5715.74 L 4327.37,5703.73 L 4436.76,5514.26 L 4450.63,5514.26 L 4334.3,5715.74 Z " />
<path stroke="none" fill="#000000" transform="matrix(0.1 0 0 0.1 -22.65 -444)" d="M 4450.63,5514.26 L 4436.76,5514.26 L 4327.37,5324.79 L 4334.3,5312.78 L 4450.63,5514.26 Z " />
<path stroke="none" fill="#000000" transform="matrix(0.1 0 0 0.1 -22.65 -444)" d="M 4401.8,5511.26 L 4391.41,5517.26 L 4302.1,5362.56 L 4312.49,5356.56 L 4401.8,5511.26 Z " />
<path stroke="none" fill="#000000" transform="matrix(0.1 0 0 0.1 -22.65 -444)" d="M 4334.3,5312.78 L 4327.37,5324.79 L 4108.58,5324.79 L 4105.22,5318.97 L 4108.58,5313.15 L 4334.3,5312.78 Z " />
<text x="0" y="0" stroke="none" fill="#000000" transform="matrix(0.1 0 0 0.1 340.787 114.443)" font-style="normal" font-weight="normal" font-size="200px" font-family="Arial" >
O</text>
<path stroke="none" fill="#000000" transform="matrix(0.1 0 0 0.1 -22.65 -444)" d="M 3989.14,5508.4 L 3992.47,5514.26 L 3989.02,5519.95 L 3812.14,5515.23 L 3812.48,5503.23 L 3989.14,5508.4 Z " />
<path stroke="none" fill="#000000" transform="matrix(0.1 0 0 0.1 -22.65 -444)" d="M 3717.72,5409.07 L 3705.72,5409.13 L 3704.93,5234.87 L 3716.93,5234.81 L 3717.72,5409.07 Z " />
<path stroke="none" fill="#000000" transform="matrix(0.1 0 0 0.1 -22.65 -444)" d="M 3630.06,5580.04 L 3638.55,5588.53 L 3559.15,5667.41 L 3552.7,5665.89 L 3551.18,5659.44 L 3630.06,5580.04 Z " />
<path stroke="none" fill="#000000" transform="matrix(0.1 0 0 0.1 -22.65 -444)" d="M 3547.95,5670.64 L 3552.7,5665.89 L 3559.15,5667.41 L 3616.86,5882.15 L 3605.27,5885.26 L 3547.95,5670.64 Z " />
<path stroke="none" fill="#000000" transform="matrix(0.1 0 0 0.1 -22.65 -444)" d="M 3551.18,5659.44 L 3552.7,5665.89 L 3547.95,5670.64 L 3333.33,5613.32 L 3336.43,5601.73 L 3551.18,5659.44 Z " />
<text x="0" y="0" stroke="none" fill="#000000" transform="matrix(0.1 0 0 0.1 302.362 90.5748)" font-style="normal" font-weight="normal" font-size="200px" font-family="Arial" >
Cl</text>
<path stroke="none" fill="#000000" transform="matrix(0.1 0 0 0.1 -22.65 -444)" d="M 3548.55,5180.97 L 3554.77,5191.24 L 3492.67,5256.88 L 3461.61,5205.55 L 3548.55,5180.97 Z " />
<text x="0" y="0" stroke="none" fill="#000000" transform="matrix(0.1 0 0 0.1 371.903 55.0051)" font-style="normal" font-weight="normal" font-size="200px" font-family="Arial" >
Cl</text>
<path stroke="none" fill="#000000" transform="matrix(0.1 0 0 0.1 -22.65 -444)" d="M 3844.41,5076.14 L 3836.38,5067.23 L 3843.84,5057.57 L 3854.79,5069.74 L 3844.41,5076.14 Z " />
<path stroke="none" fill="#000000" transform="matrix(0.1 0 0 0.1 -22.65 -444)" d="M 3896.21,5044.19 L 3873.59,5019.06 L 3881.04,5009.41 L 3906.59,5037.79 L 3896.21,5044.19 Z " />
<path stroke="none" fill="#000000" transform="matrix(0.1 0 0 0.1 -22.65 -444)" d="M 3948.01,5012.25 L 3910.79,4970.9 L 3918.25,4961.25 L 3958.39,5005.84 L 3948.01,5012.25 Z " />
<text x="0" y="0" stroke="none" fill="#000000" transform="matrix(0.1 0 0 0.1 358.984 34.5989)" font-style="normal" font-weight="normal" font-size="200px" font-family="Arial" >
N</text>
<text x="0" y="0" stroke="none" fill="#000000" transform="matrix(0.1 0 0 0.1 322.511 34.5989)" font-style="normal" font-weight="normal" font-size="200px" font-family="Arial" >
N</text>
<path stroke="none" fill="#000000" transform="matrix(0.1 0 0 0.1 -22.65 -444)" d="M 3708.49,4838.3 L 3702.59,4835.53 L 3702.62,4828.78 L 3784.55,4772.05 L 3791.34,4781.94 L 3708.49,4838.3 Z " />
<path stroke="none" fill="#000000" transform="matrix(0.1 0 0 0.1 -22.65 -444)" d="M 3863.69,4602.54 L 3852.18,4605.94 L 3820.65,4497.49 L 3829.63,4485.45 L 3863.69,4602.54 Z " />
<path stroke="none" fill="#000000" transform="matrix(0.1 0 0 0.1 -22.65 -444)" d="M 3829.63,4485.45 L 3820.65,4497.49 L 3603.19,4497.5 L 3594.67,4485.46 L 3829.63,4485.45 Z " />
<path stroke="none" fill="#000000" transform="matrix(0.1 0 0 0.1 -22.65 -444)" d="M 3594.67,4485.46 L 3603.19,4497.5 L 3565.64,4606.39 L 3554.31,4602.43 L 3594.67,4485.46 Z " />
<path stroke="none" fill="#000000" transform="matrix(0.1 0 0 0.1 -22.65 -444)" d="M 3619.84,4783.86 L 3626.81,4774.09 L 3702.62,4828.78 L 3702.59,4835.53 L 3696.83,4838.33 L 3619.84,4783.86 Z " />
<path stroke="none" fill="#000000" transform="matrix(0.1 0 0 0.1 -22.65 -444)" d="M 3422.75,4737.82 L 3426.8,4749.12 L 3274.34,4801.37 L 3238.64,4810.14 L 3238.82,4803.85 L 3422.75,4737.82 Z " />
<path stroke="none" fill="#000000" transform="matrix(0.1 0 0 0.1 -22.65 -444)" d="M 3982.88,4737.08 L 3985.72,4725.42 L 4186.55,4774.34 L 4186.94,4780.5 L 4158.49,4778.09 L 3982.88,4737.08 Z " />
<path stroke="none" fill="#000000" transform="matrix(0.1 0 0 0.1 -22.65 -444)" d="M 4277.77,4954.42 L 4272.34,4933.23 L 4283.99,4917.04 L 4521.53,5001.43 L 4521.37,5044.31 L 4277.77,4954.42 Z " />
<path stroke="none" fill="#000000" transform="matrix(0.1 0 0 0.1 -22.65 -444)" d="M 4521.37,5044.31 L 4521.53,5001.43 L 4669.54,4942.28 L 4682.98,4956.7 L 4712.85,4971.81 L 4521.37,5044.31 Z " />
<path stroke="none" fill="#000000" transform="matrix(0.1 0 0 0.1 -22.65 -444)" d="M 4521.68,4978.31 L 4517.24,4967.16 L 4615.71,4928.02 L 4620.14,4939.17 L 4521.68,4978.31 Z " />
<path stroke="none" fill="#000000" transform="matrix(0.1 0 0 0.1 -22.65 -444)" d="M 4686.98,4951.88 L 4682.98,4956.7 L 4669.54,4942.28 L 4593.59,4808.82 L 4601.85,4799 L 4686.98,4951.88 Z " />
<path stroke="none" fill="#000000" transform="matrix(0.1 0 0 0.1 -22.65 -444)" d="M 4601.85,4799 L 4593.59,4808.82 L 4349.59,4722.14 L 4349.37,4709.32 L 4601.85,4799 Z " />
<path stroke="none" fill="#000000" transform="matrix(0.1 0 0 0.1 -22.65 -444)" d="M 4566.93,4836.99 L 4562.91,4848.3 L 4348.48,4772.13 L 4352.5,4760.82 L 4566.93,4836.99 Z " />
<path stroke="none" fill="#000000" transform="matrix(0.1 0 0 0.1 -22.65 -444)" d="M 4349.37,4709.32 L 4349.59,4722.14 L 4206.46,4777.78 L 4186.94,4780.5 L 4186.55,4774.34 L 4349.37,4709.32 Z " />
<path stroke="none" fill="#000000" transform="matrix(0.1 0 0 0.1 -22.65 -444)" d="M 4158.49,4778.09 L 4186.94,4780.5 L 4206.46,4777.78 L 4283.99,4917.04 L 4272.34,4933.23 L 4251.85,4932.66 L 4158.49,4778.09 Z " />
<path stroke="none" fill="#000000" transform="matrix(0.1 0 0 0.1 -22.65 -444)" d="M 4246.75,4806.53 L 4257.22,4800.68 L 4308.94,4893.16 L 4298.46,4899.02 L 4246.75,4806.53 Z " />
<path stroke="none" fill="#000000" transform="matrix(0.1 0 0 0.1 -22.65 -444)" d="M 3080.97,4734.53 L 3080.32,4747.33 L 2837.08,4824.62 L 2829.16,4814.53 L 3080.97,4734.53 Z " />
<path stroke="none" fill="#000000" transform="matrix(0.1 0 0 0.1 -22.65 -444)" d="M 3076.14,4785.18 L 3079.77,4796.62 L 2865.97,4864.55 L 2862.34,4853.11 L 3076.14,4785.18 Z " />
<path stroke="none" fill="#000000" transform="matrix(0.1 0 0 0.1 -22.65 -444)" d="M 2829.16,4814.53 L 2837.08,4824.62 L 2757.94,4953.34 L 2744.06,4967.29 L 2740.23,4962.33 L 2829.16,4814.53 Z " />
<path stroke="none" fill="#000000" transform="matrix(0.1 0 0 0.1 -22.65 -444)" d="M 2713.53,4981.42 L 2744.06,4967.29 L 2757.94,4953.34 L 2901.59,5016.45 L 2900.34,5059.32 L 2713.53,4981.42 Z " />
<path stroke="none" fill="#000000" transform="matrix(0.1 0 0 0.1 -22.65 -444)" d="M 2806.8,4952.09 L 2811.6,4941.09 L 2907.04,4982.8 L 2902.24,4993.8 L 2806.8,4952.09 Z " />
<path stroke="none" fill="#000000" transform="matrix(0.1 0 0 0.1 -22.65 -444)" d="M 2900.34,5059.32 L 2901.59,5016.45 L 3138.37,4941.21 L 3149.42,4957.79 L 3145.67,4978.38 L 2900.34,5059.32 Z " />
<path stroke="none" fill="#000000" transform="matrix(0.1 0 0 0.1 -22.65 -444)" d="M 3170.8,4955.09 L 3149.42,4957.79 L 3138.37,4941.21 L 3219.24,4806.76 L 3238.64,4810.14 L 3274.34,4801.37 L 3170.8,4955.09 Z " />
<path stroke="none" fill="#000000" transform="matrix(0.1 0 0 0.1 -22.65 -444)" d="M 3124.76,4923.09 L 3114.49,4916.89 L 3168.36,4827.74 L 3178.63,4833.94 L 3124.76,4923.09 Z " />
<path stroke="none" fill="#000000" transform="matrix(0.1 0 0 0.1 -22.65 -444)" d="M 3238.82,4803.85 L 3238.64,4810.14 L 3219.24,4806.76 L 3080.32,4747.33 L 3080.97,4734.53 L 3238.82,4803.85 Z " />
<path stroke="none" fill="#000000" transform="matrix(0.1 0 0 0.1 -22.65 -444)" d="M 2740.23,4962.33 L 2744.06,4967.29 L 2713.53,4981.42 L 2530.96,5041.3 L 2527.32,5029.86 L 2740.23,4962.33 Z " />
<path stroke="none" fill="#000000" transform="matrix(0.1 0 0 0.1 -22.65 -444)" d="M 4712.85,4971.81 L 4682.98,4956.7 L 4686.98,4951.88 L 4897.48,5026.53 L 4893.46,5037.84 L 4712.85,4971.81 Z " />
<path stroke="none" fill="#000000" transform="matrix(0.1 0 0 0.1 -22.65 -444)" d="M 3145.67,4978.38 L 3149.42,4957.79 L 3170.8,4955.09 L 3287.4,5065.86 L 3259.3,5094.33 L 3145.67,4978.38 Z " />
<path stroke="none" fill="#000000" transform="matrix(0.1 0 0 0.1 -22.65 -444)" d="M 4251.85,4932.66 L 4272.34,4933.23 L 4277.77,4954.42 L 4198.21,5077.65 L 4165.15,5055.14 L 4251.85,4932.66 Z " />
<path stroke="none" fill="#000000" transform="matrix(0.1 0 0 0.1 -22.65 -444)" d="M 3114.26,4703.62 L 3104.44,4696.71 L 3109.39,4685.52 L 3123.12,4695.19 L 3114.26,4703.62 Z " />
<path stroke="none" fill="#000000" transform="matrix(0.1 0 0 0.1 -22.65 -444)" d="M 3154.18,4665.66 L 3126.71,4646.32 L 3131.65,4635.12 L 3163.05,4657.23 L 3154.18,4665.66 Z " />
<path stroke="none" fill="#000000" transform="matrix(0.1 0 0 0.1 -22.65 -444)" d="M 3194.11,4627.7 L 3148.97,4595.92 L 3153.91,4584.73 L 3202.98,4619.27 L 3194.11,4627.7 Z " />
<path stroke="none" fill="#000000" transform="matrix(0.1 0 0 0.1 -22.65 -444)" d="M 4333.14,4668.11 L 4322.34,4673.33 L 4315.25,4663.42 L 4329.78,4656.4 L 4333.14,4668.11 Z " />
<path stroke="none" fill="#000000" transform="matrix(0.1 0 0 0.1 -22.65 -444)" d="M 4315.3,4605.98 L 4284.75,4620.75 L 4277.66,4610.84 L 4311.94,4594.28 L 4315.3,4605.98 Z " />
<path stroke="none" fill="#000000" transform="matrix(0.1 0 0 0.1 -22.65 -444)" d="M 4297.46,4543.86 L 4247.16,4568.17 L 4240.07,4558.26 L 4294.1,4532.16 L 4297.46,4543.86 Z " />
<text x="0" y="0" stroke="none" fill="#000000" transform="matrix(0.1 0 0 0.1 284.85 176)" font-style="normal" font-weight="normal" font-size="200px" font-family="Arial" >
Hoveyda-Grubbs</text>
<path stroke="none" fill="#000000" transform="matrix(0.1 0 0 0.1 -22.65 -444)" d="M 5658.29,6005.86 L 5655,6000 L 5658.23,5994.13 L 5939.75,5994.14 L 5943,6000 L 5939.73,6005.86 L 5658.29,6005.86 Z " />
<path stroke="none" fill="#000000" transform="matrix(0.1 0 0 0.1 -22.65 -444)" d="M 5684.93,5954.16 L 5684.93,5942.16 L 5913.07,5942.16 L 5913.07,5954.16 L 5684.93,5954.16 Z " />
<text x="0" y="0" stroke="none" fill="#25ba29" transform="matrix(0.1 0 0 0.1 578.828 138.858)" font-style="normal" font-weight="normal" font-size="200px" font-family="Arial" >
R</text>
<text x="0" y="0" stroke="none" fill="#25ba29" transform="matrix(0.1 0 0 0.1 593.272 131.058)" font-style="normal" font-weight="normal" font-size="150px" font-family="Arial" >
1</text>
<path stroke="none" fill="#25ba29" transform="matrix(0.1 0 0 0.1 -22.65 -444)" d="M 5949.65,5999.98 L 5943,6000 L 5939.75,5994.14 L 6018.41,5857.39 L 6028.8,5863.39 L 5949.65,5999.98 Z " />
<text x="0" y="0" stroke="none" fill="#0000ff" transform="matrix(0.1 0 0 0.1 521.228 188.741)" font-style="normal" font-weight="normal" font-size="200px" font-family="Arial" >
R</text>
<path stroke="none" fill="#0000ff" transform="matrix(0.1 0 0 0.1 -22.65 -444)" d="M 5648.34,5999.95 L 5655,6000 L 5658.29,6005.86 L 5567,6164.42 L 5556.61,6158.42 L 5648.34,5999.95 Z " />
<text x="0" y="0" stroke="none" fill="#0000ff" transform="matrix(0.1 0 0 0.1 521.228 138.858)" font-style="normal" font-weight="normal" font-size="200px" font-family="Arial" >
R</text>
<path stroke="none" fill="#0000ff" transform="matrix(0.1 0 0 0.1 -22.65 -444)" d="M 5658.23,5994.13 L 5655,6000 L 5648.34,5999.95 L 5572.16,5868.52 L 5582.56,5862.52 L 5658.23,5994.13 Z " />
<text x="0" y="0" stroke="none" fill="#25ba29" transform="matrix(0.1 0 0 0.1 578.828 188.741)" font-style="normal" font-weight="normal" font-size="200px" font-family="Arial" >
R</text>
<text x="0" y="0" stroke="none" fill="#25ba29" transform="matrix(0.1 0 0 0.1 593.272 180.941)" font-style="normal" font-weight="normal" font-size="150px" font-family="Arial" >
1</text>
<path stroke="none" fill="#25ba29" transform="matrix(0.1 0 0 0.1 -22.65 -444)" d="M 5939.73,6005.86 L 5943,6000 L 5949.65,5999.98 L 6034.86,6147.11 L 6024.47,6153.11 L 5939.73,6005.86 Z " />
<path stroke="none" fill="#000000" transform="matrix(0.1 0 0 0.1 -22.65 -444)" d="M 6868.2,6005.87 L 6865,6000 L 6868.23,5994.13 L 7149.76,5994.14 L 7153,6000 L 7149.73,6005.86 L 6868.2,6005.87 Z " />
<path stroke="none" fill="#000000" transform="matrix(0.1 0 0 0.1 -22.65 -444)" d="M 6894.93,5954.16 L 6894.93,5942.16 L 7123.07,5942.16 L 7123.07,5954.16 L 6894.93,5954.16 Z " />
<text x="0" y="0" stroke="none" fill="#0000ff" transform="matrix(0.1 0 0 0.1 699.828 138.858)" font-style="normal" font-weight="normal" font-size="200px" font-family="Arial" >
R</text>
<path stroke="none" fill="#0000ff" transform="matrix(0.1 0 0 0.1 -22.65 -444)" d="M 7159.65,5999.98 L 7153,6000 L 7149.76,5994.14 L 7228.34,5857.52 L 7238.73,5863.51 L 7159.65,5999.98 Z " />
<text x="0" y="0" stroke="none" fill="#25ba29" transform="matrix(0.1 0 0 0.1 642.228 188.741)" font-style="normal" font-weight="normal" font-size="200px" font-family="Arial" >
R</text>
<text x="0" y="0" stroke="none" fill="#25ba29" transform="matrix(0.1 0 0 0.1 656.672 180.941)" font-style="normal" font-weight="normal" font-size="150px" font-family="Arial" >
1</text>
<path stroke="none" fill="#25ba29" transform="matrix(0.1 0 0 0.1 -22.65 -444)" d="M 6858.38,6000.03 L 6865,6000 L 6868.2,6005.87 L 6799.28,6125.83 L 6788.89,6119.83 L 6858.38,6000.03 Z " />
<text x="0" y="0" stroke="none" fill="#25ba29" transform="matrix(0.1 0 0 0.1 642.228 138.858)" font-style="normal" font-weight="normal" font-size="200px" font-family="Arial" >
R</text>
<text x="0" y="0" stroke="none" fill="#25ba29" transform="matrix(0.1 0 0 0.1 656.672 131.058)" font-style="normal" font-weight="normal" font-size="150px" font-family="Arial" >
1</text>
<path stroke="none" fill="#25ba29" transform="matrix(0.1 0 0 0.1 -22.65 -444)" d="M 6868.23,5994.13 L 6865,6000 L 6858.38,6000.03 L 6781.84,5867.97 L 6792.23,5861.97 L 6868.23,5994.13 Z " />
<text x="0" y="0" stroke="none" fill="#0000ff" transform="matrix(0.1 0 0 0.1 699.828 188.741)" font-style="normal" font-weight="normal" font-size="200px" font-family="Arial" >
R</text>
<path stroke="none" fill="#0000ff" transform="matrix(0.1 0 0 0.1 -22.65 -444)" d="M 7149.73,6005.86 L 7153,6000 L 7159.65,5999.98 L 7244.93,6147.23 L 7234.54,6153.23 L 7149.73,6005.86 Z " />
<text x="0" y="0" stroke="none" fill="#000000" transform="matrix(0.1 0 0 0.1 609.85 161)" font-style="normal" font-weight="normal" font-size="200px" font-family="Arial" >
+</text>
</svg>
