<?xml version="1.0" standalone="no" ?>
<!DOCTYPE svg PUBLIC "-//W3C//DTD SVG 1.1//EN" "http://www.w3.org/Graphics/SVG/1.1/DTD/svg11.dtd">
<svg width="630px" height="158px" viewBox="0 0 630 158" style="background-color: #ffffff00" xmlns="http://www.w3.org/2000/svg" xmlns:xlink="http://www.w3.org/1999/xlink" version="1.1" >
<path stroke="none" fill="#000000" transform="matrix(0.1 0 0 0.1 -56.65 -559)" d="M 609.437,6622.45 L 621.444,6629.38 L 621.444,6910.62 L 609.437,6917.55 L 609.437,6622.45 Z " />
<path stroke="none" fill="#000000" transform="matrix(0.1 0 0 0.1 -56.65 -559)" d="M 661.425,6655.93 L 673.425,6655.93 L 673.425,6884.07 L 661.425,6884.07 L 661.425,6655.93 Z " />
<path stroke="none" fill="#000000" transform="matrix(0.1 0 0 0.1 -56.65 -559)" d="M 609.437,6917.55 L 621.444,6910.62 L 865,7051.23 L 865,7065.1 L 609.437,6917.55 Z " />
<path stroke="none" fill="#000000" transform="matrix(0.1 0 0 0.1 -56.65 -559)" d="M 865,7065.1 L 865,7051.23 L 1108.56,6910.62 L 1114.42,6914 L 1114.42,6920.77 L 865,7065.1 Z " />
<path stroke="none" fill="#000000" transform="matrix(0.1 0 0 0.1 -56.65 -559)" d="M 868,7003.34 L 862,6992.94 L 1059.58,6878.87 L 1065.58,6889.27 L 868,7003.34 Z " />
<path stroke="none" fill="#000000" transform="matrix(0.1 0 0 0.1 -56.65 -559)" d="M 1120.27,6910.62 L 1114.42,6914 L 1108.56,6910.62 L 1108.56,6629.38 L 1114.42,6626 L 1120.27,6629.38 L 1120.27,6910.62 Z " />
<path stroke="none" fill="#000000" transform="matrix(0.1 0 0 0.1 -56.65 -559)" d="M 1114.42,6619.23 L 1114.42,6626 L 1108.56,6629.38 L 865,6488.77 L 865,6482 L 870.762,6478.56 L 1114.42,6619.23 Z " />
<path stroke="none" fill="#000000" transform="matrix(0.1 0 0 0.1 -56.65 -559)" d="M 1065.58,6650.73 L 1059.58,6661.13 L 862,6547.06 L 868,6536.66 L 1065.58,6650.73 Z " />
<path stroke="none" fill="#000000" transform="matrix(0.1 0 0 0.1 -56.65 -559)" d="M 859.238,6478.56 L 865,6482 L 865,6488.77 L 621.444,6629.38 L 609.437,6622.45 L 859.238,6478.56 Z " />
<path stroke="none" fill="#000000" transform="matrix(0.1 0 0 0.1 -56.65 -559)" d="M 1114.42,6920.77 L 1114.42,6914 L 1120.27,6910.62 L 1363.83,7051.23 L 1363.83,7065.1 L 1114.42,6920.77 Z " />
<path stroke="none" fill="#000000" transform="matrix(0.1 0 0 0.1 -56.65 -559)" d="M 1363.83,7065.1 L 1363.83,7051.23 L 1607.39,6910.62 L 1619.39,6917.55 L 1363.83,7065.1 Z " />
<path stroke="none" fill="#000000" transform="matrix(0.1 0 0 0.1 -56.65 -559)" d="M 1366.83,7003.34 L 1360.83,6992.94 L 1558.41,6878.87 L 1564.41,6889.27 L 1366.83,7003.34 Z " />
<path stroke="none" fill="#000000" transform="matrix(0.1 0 0 0.1 -56.65 -559)" d="M 1619.39,6917.55 L 1607.39,6910.62 L 1607.39,6629.38 L 1619.39,6622.45 L 1619.39,6917.55 Z " />
<path stroke="none" fill="#000000" transform="matrix(0.1 0 0 0.1 -56.65 -559)" d="M 1619.39,6622.45 L 1607.39,6629.38 L 1363.83,6488.77 L 1363.83,6474.9 L 1619.39,6622.45 Z " />
<path stroke="none" fill="#000000" transform="matrix(0.1 0 0 0.1 -56.65 -559)" d="M 1564.41,6650.73 L 1558.41,6661.13 L 1360.83,6547.06 L 1366.83,6536.66 L 1564.41,6650.73 Z " />
<path stroke="none" fill="#000000" transform="matrix(0.1 0 0 0.1 -56.65 -559)" d="M 1363.83,6474.9 L 1363.83,6488.77 L 1120.27,6629.38 L 1114.42,6626 L 1114.42,6619.23 L 1363.83,6474.9 Z " />
<text x="0" y="0" stroke="none" fill="#000000" transform="matrix(0.1 0 0 0.1 22.0717 68.2)" font-style="normal" font-weight="normal" font-size="200px" font-family="Arial" >
OSO</text>
<text x="0" y="0" stroke="none" fill="#000000" transform="matrix(0.1 0 0 0.1 66.5248 72.6)" font-style="normal" font-weight="normal" font-size="150px" font-family="Arial" >
2</text>
<text x="0" y="0" stroke="none" fill="#000000" transform="matrix(0.1 0 0 0.1 74.8671 68.2)" font-style="normal" font-weight="normal" font-size="200px" font-family="Arial" >
NMe</text>
<text x="0" y="0" stroke="none" fill="#000000" transform="matrix(0.1 0 0 0.1 117.094 72.6)" font-style="normal" font-weight="normal" font-size="150px" font-family="Arial" >
2</text>
<path stroke="none" fill="#000000" transform="matrix(0.1 0 0 0.1 -56.65 -559)" d="M 870.762,6478.56 L 865,6482 L 859.238,6478.56 L 859,6308 L 871,6308 L 870.762,6478.56 Z " />
<path stroke="none" fill="#000000" transform="matrix(0.1 0 0 0.1 -56.65 -559)" d="M 2229.44,6682.45 L 2241.44,6689.38 L 2241.44,6970.62 L 2229.44,6977.55 L 2229.44,6682.45 Z " />
<path stroke="none" fill="#000000" transform="matrix(0.1 0 0 0.1 -56.65 -559)" d="M 2281.42,6715.93 L 2293.42,6715.93 L 2293.42,6944.07 L 2281.42,6944.07 L 2281.42,6715.93 Z " />
<path stroke="none" fill="#000000" transform="matrix(0.1 0 0 0.1 -56.65 -559)" d="M 2229.44,6977.55 L 2241.44,6970.62 L 2485,7111.23 L 2485,7125.1 L 2229.44,6977.55 Z " />
<path stroke="none" fill="#000000" transform="matrix(0.1 0 0 0.1 -56.65 -559)" d="M 2485,7125.1 L 2485,7111.23 L 2728.56,6970.62 L 2740.56,6977.55 L 2485,7125.1 Z " />
<path stroke="none" fill="#000000" transform="matrix(0.1 0 0 0.1 -56.65 -559)" d="M 2488,7063.34 L 2482,7052.94 L 2679.58,6938.87 L 2685.57,6949.27 L 2488,7063.34 Z " />
<path stroke="none" fill="#000000" transform="matrix(0.1 0 0 0.1 -56.65 -559)" d="M 2740.56,6977.55 L 2728.56,6970.62 L 2728.56,6689.38 L 2740.56,6682.45 L 2740.56,6977.55 Z " />
<path stroke="none" fill="#000000" transform="matrix(0.1 0 0 0.1 -56.65 -559)" d="M 2740.56,6682.45 L 2728.56,6689.38 L 2485,6548.77 L 2485,6542 L 2490.74,6538.54 L 2740.56,6682.45 Z " />
<path stroke="none" fill="#000000" transform="matrix(0.1 0 0 0.1 -56.65 -559)" d="M 2685.57,6710.73 L 2679.58,6721.13 L 2482,6607.06 L 2488,6596.66 L 2685.57,6710.73 Z " />
<path stroke="none" fill="#000000" transform="matrix(0.1 0 0 0.1 -56.65 -559)" d="M 2479.26,6538.54 L 2485,6542 L 2485,6548.77 L 2241.44,6689.38 L 2229.44,6682.45 L 2479.26,6538.54 Z " />
<text x="0" y="0" stroke="none" fill="#000000" transform="matrix(0.1 0 0 0.1 185.18 74.2)" font-style="normal" font-weight="normal" font-size="200px" font-family="Arial" >
B(OH)</text>
<text x="0" y="0" stroke="none" fill="#000000" transform="matrix(0.1 0 0 0.1 241.84 78.6)" font-style="normal" font-weight="normal" font-size="150px" font-family="Arial" >
2</text>
<path stroke="none" fill="#000000" transform="matrix(0.1 0 0 0.1 -56.65 -559)" d="M 2490.74,6538.54 L 2485,6542 L 2479.26,6538.54 L 2479,6384.67 L 2491,6384.67 L 2490.74,6538.54 Z " />
<text x="0" y="0" stroke="none" fill="#000000" transform="matrix(0.1 0 0 0.1 127.85 129)" font-style="normal" font-weight="normal" font-size="200px" font-family="Arial" >
+</text>
<path stroke="none" fill="#000000" transform="matrix(0.1 0 0 0.1 -56.65 -559)" d="M 5409.75,6806 L 3155,6806 L 3155,6794 L 5409.75,6794 Z " />
<path stroke="none" fill="#000000" transform="matrix(0.1 0 0 0.1 -56.65 -559)" d="M 5645,6800 C 5645,6800 5375,6868.5 5375,6868.5 C 5375,6868.5 5408.75,6829.97 5408.75,6800 C 5408.75,6769.59 5375,6730.5 5375,6730.5 C 5375,6730.5 5645,6800 5645,6800 C 5645,6800 5645,6800 5645,6800 " />
<path stroke="#000000" stroke-width="1" fill="none" transform="matrix(0.1 0 0 0.1 -56.65 -559)" d="M 5645,6800 C 5645,6800 5375,6868.5 5375,6868.5 C 5375,6868.5 5408.75,6829.97 5408.75,6800 C 5408.75,6769.59 5375,6730.5 5375,6730.5 C 5375,6730.5 5645,6800 5645,6800 C 5645,6800 5645,6800 5645,6800 " />
<text x="0" y="0" stroke="none" fill="#000000" transform="matrix(0.1 0 0 0.1 261.85 89)" font-style="normal" font-weight="normal" font-size="200px" font-family="Arial" >
NiCl</text>
<text x="0" y="0" stroke="none" fill="#000000" transform="matrix(0.1 0 0 0.1 299.623 93.4)" font-style="normal" font-weight="normal" font-size="150px" font-family="Arial" >
2</text>
<text x="0" y="0" stroke="none" fill="#000000" transform="matrix(0.1 0 0 0.1 307.966 89)" font-style="normal" font-weight="normal" font-size="200px" font-family="Arial" >
(PCy</text>
<text x="0" y="0" stroke="none" fill="#000000" transform="matrix(0.1 0 0 0.1 352.409 93.4)" font-style="normal" font-weight="normal" font-size="150px" font-family="Arial" >
3</text>
<text x="0" y="0" stroke="none" fill="#000000" transform="matrix(0.1 0 0 0.1 360.751 89)" font-style="normal" font-weight="normal" font-size="200px" font-family="Arial" >
)</text>
<text x="0" y="0" stroke="none" fill="#000000" transform="matrix(0.1 0 0 0.1 367.412 93.4)" font-style="normal" font-weight="normal" font-size="150px" font-family="Arial" >
2</text>
<text x="0" y="0" stroke="none" fill="#000000" transform="matrix(0.1 0 0 0.1 375.754 89)" font-style="normal" font-weight="normal" font-size="200px" font-family="Arial" >
 </text>
<text x="0" y="0" stroke="none" fill="#000000" transform="matrix(0.1 0 0 0.1 381.31 89)" font-style="normal" font-weight="normal" font-size="200px" font-family="Arial" >
(5 </text>
<text x="0" y="0" stroke="none" fill="#000000" transform="matrix(0.1 0 0 0.1 404.65 89)" font-style="normal" font-weight="normal" font-size="200px" font-family="Arial" >
mol%)</text>
<text x="0" y="0" stroke="none" fill="#000000" transform="matrix(0.1 0 0 0.1 292.105 112)" font-style="normal" font-weight="normal" font-size="200px" font-family="Arial" >
K</text>
<text x="0" y="0" stroke="none" fill="#000000" transform="matrix(0.1 0 0 0.1 305.445 116.4)" font-style="normal" font-weight="normal" font-size="150px" font-family="Arial" >
3</text>
<text x="0" y="0" stroke="none" fill="#000000" transform="matrix(0.1 0 0 0.1 313.787 112)" font-style="normal" font-weight="normal" font-size="200px" font-family="Arial" >
PO</text>
<text x="0" y="0" stroke="none" fill="#000000" transform="matrix(0.1 0 0 0.1 342.684 116.4)" font-style="normal" font-weight="normal" font-size="150px" font-family="Arial" >
4</text>
<text x="0" y="0" stroke="none" fill="#000000" transform="matrix(0.1 0 0 0.1 351.026 112)" font-style="normal" font-weight="normal" font-size="200px" font-family="Arial" >
 </text>
<text x="0" y="0" stroke="none" fill="#000000" transform="matrix(0.1 0 0 0.1 356.583 112)" font-style="normal" font-weight="normal" font-size="200px" font-family="Arial" >
(4.5 </text>
<text x="0" y="0" stroke="none" fill="#000000" transform="matrix(0.1 0 0 0.1 396.602 112)" font-style="normal" font-weight="normal" font-size="200px" font-family="Arial" >
eq.)</text>
<text x="0" y="0" stroke="none" fill="#000000" transform="matrix(0.1 0 0 0.1 261.85 146)" font-style="normal" font-weight="normal" font-size="200px" font-family="Arial" >
Solvent, </text>
<text x="0" y="0" stroke="none" fill="#000000" transform="matrix(0.1 0 0 0.1 339.672 146)" font-style="normal" font-weight="normal" font-size="200px" font-family="Arial" >
75-110 </text>
<text x="0" y="0" stroke="none" fill="#000000" transform="matrix(0.1 0 0 0.1 407.504 146)" font-style="normal" font-weight="normal" font-size="200px" font-family="Arial" >
°C, </text>
<text x="0" y="0" stroke="none" fill="#000000" transform="matrix(0.1 0 0 0.1 441.059 146)" font-style="normal" font-weight="normal" font-size="200px" font-family="Arial" >
12h</text>
<path stroke="none" fill="#000000" transform="matrix(0.1 0 0 0.1 -56.65 -559)" d="M 5809.44,6642.45 L 5821.44,6649.38 L 5821.44,6930.62 L 5809.44,6937.55 L 5809.44,6642.45 Z " />
<path stroke="none" fill="#000000" transform="matrix(0.1 0 0 0.1 -56.65 -559)" d="M 5861.42,6675.93 L 5873.42,6675.93 L 5873.42,6904.07 L 5861.42,6904.07 L 5861.42,6675.93 Z " />
<path stroke="none" fill="#000000" transform="matrix(0.1 0 0 0.1 -56.65 -559)" d="M 5809.44,6937.55 L 5821.44,6930.62 L 6065,7071.23 L 6065,7085.1 L 5809.44,6937.55 Z " />
<path stroke="none" fill="#000000" transform="matrix(0.1 0 0 0.1 -56.65 -559)" d="M 6065,7085.1 L 6065,7071.23 L 6308.56,6930.62 L 6314.41,6934 L 6314.41,6940.77 L 6065,7085.1 Z " />
<path stroke="none" fill="#000000" transform="matrix(0.1 0 0 0.1 -56.65 -559)" d="M 6068,7023.34 L 6062,7012.94 L 6259.58,6898.87 L 6265.57,6909.27 L 6068,7023.34 Z " />
<path stroke="none" fill="#000000" transform="matrix(0.1 0 0 0.1 -56.65 -559)" d="M 6320.27,6930.62 L 6314.41,6934 L 6308.56,6930.62 L 6308.56,6649.38 L 6314.41,6646 L 6320.27,6649.38 L 6320.27,6930.62 Z " />
<path stroke="none" fill="#000000" transform="matrix(0.1 0 0 0.1 -56.65 -559)" d="M 6314.41,6639.23 L 6314.41,6646 L 6308.56,6649.38 L 6065,6508.77 L 6065,6502 L 6070.86,6498.62 L 6314.41,6639.23 Z " />
<path stroke="none" fill="#000000" transform="matrix(0.1 0 0 0.1 -56.65 -559)" d="M 6265.57,6670.73 L 6259.58,6681.13 L 6062,6567.06 L 6068,6556.66 L 6265.57,6670.73 Z " />
<path stroke="none" fill="#000000" transform="matrix(0.1 0 0 0.1 -56.65 -559)" d="M 6059.14,6498.62 L 6065,6502 L 6065,6508.77 L 5821.44,6649.38 L 5809.44,6642.45 L 6059.14,6498.62 Z " />
<path stroke="none" fill="#000000" transform="matrix(0.1 0 0 0.1 -56.65 -559)" d="M 6314.41,6940.77 L 6314.41,6934 L 6320.27,6930.62 L 6563.83,7071.23 L 6563.83,7085.1 L 6314.41,6940.77 Z " />
<path stroke="none" fill="#000000" transform="matrix(0.1 0 0 0.1 -56.65 -559)" d="M 6563.83,7085.1 L 6563.83,7071.23 L 6807.39,6930.62 L 6819.39,6937.55 L 6563.83,7085.1 Z " />
<path stroke="none" fill="#000000" transform="matrix(0.1 0 0 0.1 -56.65 -559)" d="M 6566.83,7023.34 L 6560.83,7012.94 L 6758.41,6898.87 L 6764.41,6909.27 L 6566.83,7023.34 Z " />
<path stroke="none" fill="#000000" transform="matrix(0.1 0 0 0.1 -56.65 -559)" d="M 6819.39,6937.55 L 6807.39,6930.62 L 6807.39,6649.38 L 6819.39,6642.45 L 6819.39,6937.55 Z " />
<path stroke="none" fill="#000000" transform="matrix(0.1 0 0 0.1 -56.65 -559)" d="M 6819.39,6642.45 L 6807.39,6649.38 L 6563.83,6508.77 L 6563.83,6494.9 L 6819.39,6642.45 Z " />
<path stroke="none" fill="#000000" transform="matrix(0.1 0 0 0.1 -56.65 -559)" d="M 6764.41,6670.73 L 6758.41,6681.13 L 6560.83,6567.06 L 6566.83,6556.66 L 6764.41,6670.73 Z " />
<path stroke="none" fill="#000000" transform="matrix(0.1 0 0 0.1 -56.65 -559)" d="M 6563.83,6494.9 L 6563.83,6508.77 L 6320.27,6649.38 L 6314.41,6646 L 6314.41,6639.23 L 6563.83,6494.9 Z " />
<path stroke="none" fill="#000000" transform="matrix(0.1 0 0 0.1 -56.65 -559)" d="M 6070.86,6498.62 L 6065,6502 L 6059.14,6498.62 L 6059.14,6217.38 L 6065,6214 L 6070.86,6217.38 L 6070.86,6498.62 Z " />
<path stroke="none" fill="#000000" transform="matrix(0.1 0 0 0.1 -56.65 -559)" d="M 6070.86,6217.38 L 6065,6214 L 6065,6207.23 L 6308.56,6066.62 L 6320.56,6073.55 L 6070.86,6217.38 Z " />
<path stroke="none" fill="#000000" transform="matrix(0.1 0 0 0.1 -56.65 -559)" d="M 6068,6159.34 L 6062,6148.94 L 6259.58,6034.87 L 6265.58,6045.27 L 6068,6159.34 Z " />
<path stroke="none" fill="#000000" transform="matrix(0.1 0 0 0.1 -56.65 -559)" d="M 6320.56,6073.55 L 6308.56,6066.62 L 6308.56,5785.38 L 6320.56,5778.45 L 6320.56,6073.55 Z " />
<path stroke="none" fill="#000000" transform="matrix(0.1 0 0 0.1 -56.65 -559)" d="M 6320.56,5778.45 L 6308.56,5785.38 L 6065,5644.77 L 6065,5630.9 L 6320.56,5778.45 Z " />
<path stroke="none" fill="#000000" transform="matrix(0.1 0 0 0.1 -56.65 -559)" d="M 6265.58,5806.73 L 6259.58,5817.13 L 6062,5703.06 L 6068,5692.66 L 6265.58,5806.73 Z " />
<path stroke="none" fill="#000000" transform="matrix(0.1 0 0 0.1 -56.65 -559)" d="M 6065,5630.9 L 6065,5644.77 L 5821.44,5785.38 L 5809.44,5778.45 L 6065,5630.9 Z " />
<path stroke="none" fill="#000000" transform="matrix(0.1 0 0 0.1 -56.65 -559)" d="M 5809.44,5778.45 L 5821.44,5785.38 L 5821.44,6066.62 L 5809.44,6073.55 L 5809.44,5778.45 Z " />
<path stroke="none" fill="#000000" transform="matrix(0.1 0 0 0.1 -56.65 -559)" d="M 5861.42,5811.93 L 5873.42,5811.93 L 5873.42,6040.07 L 5861.42,6040.07 L 5861.42,5811.93 Z " />
<path stroke="none" fill="#000000" transform="matrix(0.1 0 0 0.1 -56.65 -559)" d="M 5809.44,6073.55 L 5821.44,6066.62 L 6065,6207.23 L 6065,6214 L 6059.14,6217.38 L 5809.44,6073.55 Z " />
</svg>
