<?xml version="1.0" standalone="no" ?>
<!DOCTYPE svg PUBLIC "-//W3C//DTD SVG 1.1//EN" "http://www.w3.org/Graphics/SVG/1.1/DTD/svg11.dtd">
<svg width="935px" height="217px" viewBox="0 0 935 217" style="background-color: #ffffff00" xmlns="http://www.w3.org/2000/svg" xmlns:xlink="http://www.w3.org/1999/xlink" version="1.1" >
<path stroke="none" fill="#000000" transform="matrix(0.1 0 0 0.1 -38.65 -288)" d="M 429.452,3952.45 L 441.459,3959.38 L 441.459,4240.62 L 429.452,4247.55 L 429.452,3952.45 Z " />
<path stroke="none" fill="#000000" transform="matrix(0.1 0 0 0.1 -38.65 -288)" d="M 481.44,3985.93 L 493.44,3985.93 L 493.44,4214.07 L 481.44,4214.07 L 481.44,3985.93 Z " />
<path stroke="none" fill="#000000" transform="matrix(0.1 0 0 0.1 -38.65 -288)" d="M 429.452,4247.55 L 441.459,4240.62 L 685,4381.23 L 685,4395.1 L 429.452,4247.55 Z " />
<path stroke="none" fill="#000000" transform="matrix(0.1 0 0 0.1 -38.65 -288)" d="M 685,4395.1 L 685,4381.23 L 928.541,4240.62 L 940.548,4247.55 L 685,4395.1 Z " />
<path stroke="none" fill="#000000" transform="matrix(0.1 0 0 0.1 -38.65 -288)" d="M 688,4333.34 L 682,4322.95 L 879.562,4208.88 L 885.562,4219.27 L 688,4333.34 Z " />
<path stroke="none" fill="#000000" transform="matrix(0.1 0 0 0.1 -38.65 -288)" d="M 940.548,4247.55 L 928.541,4240.62 L 928.541,3959.38 L 934.4,3956 L 940.259,3959.38 L 940.548,4247.55 Z " />
<path stroke="none" fill="#000000" transform="matrix(0.1 0 0 0.1 -38.65 -288)" d="M 934.4,3949.23 L 934.4,3956 L 928.541,3959.38 L 685,3818.77 L 685,3804.9 L 934.4,3949.23 Z " />
<path stroke="none" fill="#000000" transform="matrix(0.1 0 0 0.1 -38.65 -288)" d="M 885.562,3980.73 L 879.562,3991.12 L 682,3877.05 L 688,3866.66 L 885.562,3980.73 Z " />
<path stroke="none" fill="#000000" transform="matrix(0.1 0 0 0.1 -38.65 -288)" d="M 685,3804.9 L 685,3818.77 L 441.459,3959.38 L 429.452,3952.45 L 685,3804.9 Z " />
<path stroke="none" fill="#000000" transform="matrix(0.1 0 0 0.1 -38.65 -288)" d="M 940.259,3959.38 L 934.4,3956 L 934.4,3949.23 L 1183.89,3804.85 L 1183.9,3818.71 L 940.259,3959.38 Z " />
<text x="0" y="0" stroke="none" fill="#000000" transform="matrix(0.1 0 0 0.1 97.4483 115.4)" font-style="normal" font-weight="normal" font-size="200px" font-family="Arial" >
N</text>
<path stroke="none" fill="#000000" transform="matrix(0.1 0 0 0.1 -38.65 -288)" d="M 1183.9,3818.71 L 1183.89,3804.85 L 1339.12,3894.75 L 1333.12,3905.14 L 1183.9,3818.71 Z " />
<text x="0" y="0" stroke="none" fill="#000000" transform="matrix(0.1 0 0 0.1 71.9517 72.2)" font-style="normal" font-weight="normal" font-size="200px" font-family="Arial" >
O</text>
<path stroke="none" fill="#000000" transform="matrix(0.1 0 0 0.1 -38.65 -288)" d="M 1163.88,3826.97 L 1151.88,3826.97 L 1151.88,3635.67 L 1163.88,3635.67 L 1163.88,3826.97 Z " />
<path stroke="none" fill="#000000" transform="matrix(0.1 0 0 0.1 -38.65 -288)" d="M 1215.72,3826.97 L 1203.72,3826.97 L 1203.72,3635.67 L 1215.72,3635.67 L 1215.72,3826.97 Z " />
<text x="0" y="0" stroke="none" fill="#000000" transform="matrix(0.1 0 0 0.1 98.0001 144.2)" font-style="normal" font-weight="normal" font-size="200px" font-family="Arial" >
Ph</text>
<path stroke="none" fill="#000000" transform="matrix(0.1 0 0 0.1 -38.65 -288)" d="M 1427.2,4065.17 L 1439.2,4065.17 L 1439.2,4149.17 L 1427.2,4149.17 L 1427.2,4065.17 Z " />
<text x="0" y="0" stroke="none" fill="#000000" transform="matrix(0.1 0 0 0.1 122.94 101)" font-style="normal" font-weight="normal" font-size="200px" font-family="Arial" >
Boc</text>
<path stroke="none" fill="#000000" transform="matrix(0.1 0 0 0.1 -38.65 -288)" d="M 1532.96,3905.33 L 1526.96,3894.94 L 1581.43,3863.48 L 1587.43,3873.88 L 1532.96,3905.33 Z " />
<text x="0" y="0" stroke="none" fill="#000000" transform="matrix(0.1 0 0 0.1 153.85 135)" font-style="normal" font-weight="normal" font-size="200px" font-family="Arial" >
+</text>
<path stroke="none" fill="#000000" transform="matrix(0.1 0 0 0.1 -38.65 -288)" d="M 2199.45,3952.45 L 2211.46,3959.38 L 2211.46,4240.62 L 2199.45,4247.55 L 2199.45,3952.45 Z " />
<path stroke="none" fill="#000000" transform="matrix(0.1 0 0 0.1 -38.65 -288)" d="M 2251.44,3985.93 L 2263.44,3985.93 L 2263.44,4214.07 L 2251.44,4214.07 L 2251.44,3985.93 Z " />
<path stroke="none" fill="#000000" transform="matrix(0.1 0 0 0.1 -38.65 -288)" d="M 2199.45,4247.55 L 2211.46,4240.62 L 2455,4381.23 L 2455,4388 L 2449.21,4391.43 L 2199.45,4247.55 Z " />
<path stroke="none" fill="#000000" transform="matrix(0.1 0 0 0.1 -38.65 -288)" d="M 2460.79,4391.43 L 2455,4388 L 2455,4381.23 L 2698.54,4240.62 L 2710.55,4247.55 L 2460.79,4391.43 Z " />
<path stroke="none" fill="#000000" transform="matrix(0.1 0 0 0.1 -38.65 -288)" d="M 2458,4333.34 L 2452,4322.95 L 2649.56,4208.88 L 2655.56,4219.27 L 2458,4333.34 Z " />
<path stroke="none" fill="#000000" transform="matrix(0.1 0 0 0.1 -38.65 -288)" d="M 2710.55,4247.55 L 2698.54,4240.62 L 2698.54,3959.38 L 2710.55,3952.45 L 2710.55,4247.55 Z " />
<path stroke="none" fill="#000000" transform="matrix(0.1 0 0 0.1 -38.65 -288)" d="M 2710.55,3952.45 L 2698.54,3959.38 L 2455,3818.77 L 2455,3812 L 2460.74,3808.54 L 2710.55,3952.45 Z " />
<path stroke="none" fill="#000000" transform="matrix(0.1 0 0 0.1 -38.65 -288)" d="M 2655.56,3980.73 L 2649.56,3991.12 L 2452,3877.05 L 2458,3866.66 L 2655.56,3980.73 Z " />
<path stroke="none" fill="#000000" transform="matrix(0.1 0 0 0.1 -38.65 -288)" d="M 2449.26,3808.54 L 2455,3812 L 2455,3818.77 L 2211.46,3959.38 L 2199.45,3952.45 L 2449.26,3808.54 Z " />
<text x="0" y="0" stroke="none" fill="#000000" transform="matrix(0.1 0 0 0.1 198.52 187.4)" font-style="normal" font-weight="normal" font-size="200px" font-family="Arial" >
Me</text>
<path stroke="none" fill="#000000" transform="matrix(0.1 0 0 0.1 -38.65 -288)" d="M 2449.21,4391.43 L 2455,4388 L 2460.79,4391.43 L 2461,4581.17 L 2449,4581.17 L 2449.21,4391.43 Z " />
<text x="0" y="0" stroke="none" fill="#000000" transform="matrix(0.1 0 0 0.1 200.18 72.2)" font-style="normal" font-weight="normal" font-size="200px" font-family="Arial" >
B(OH)</text>
<text x="0" y="0" stroke="none" fill="#000000" transform="matrix(0.1 0 0 0.1 256.84 76.6)" font-style="normal" font-weight="normal" font-size="150px" font-family="Arial" >
2</text>
<path stroke="none" fill="#000000" transform="matrix(0.1 0 0 0.1 -38.65 -288)" d="M 2460.74,3808.54 L 2455,3812 L 2449.26,3808.54 L 2449,3654.67 L 2461,3654.67 L 2460.74,3808.54 Z " />
<path stroke="none" fill="#000000" transform="matrix(0.1 0 0 0.1 -38.65 -288)" d="M 4933.12,4146 L 3095,4146 L 3095,4134 L 4933.12,4134 Z " />
<path stroke="none" fill="#000000" transform="matrix(0.1 0 0 0.1 -38.65 -288)" d="M 5168.4,4140 C 5168.4,4140 4898.4,4208.56 4898.4,4208.56 C 4898.4,4208.56 4932.12,4170 4932.12,4140 C 4932.12,4109.56 4898.4,4070.44 4898.4,4070.44 C 4898.4,4070.44 5168.4,4140 5168.4,4140 C 5168.4,4140 5168.4,4140 5168.4,4140 " />
<path stroke="#000000" stroke-width="1" fill="none" transform="matrix(0.1 0 0 0.1 -38.65 -288)" d="M 5168.4,4140 C 5168.4,4140 4898.4,4208.56 4898.4,4208.56 C 4898.4,4208.56 4932.12,4170 4932.12,4140 C 4932.12,4109.56 4898.4,4070.44 4898.4,4070.44 C 4898.4,4070.44 5168.4,4140 5168.4,4140 C 5168.4,4140 5168.4,4140 5168.4,4140 " />
<text x="0" y="0" stroke="none" fill="#000000" transform="matrix(0.1 0 0 0.1 285.284 70)" font-style="normal" font-weight="normal" font-size="200px" font-family="Arial" >
[Pd-NHC] </text>
<text x="0" y="0" stroke="none" fill="#000000" transform="matrix(0.1 0 0 0.1 376.407 70)" font-style="normal" font-weight="normal" font-size="200px" font-family="Arial" >
(3 </text>
<text x="0" y="0" stroke="none" fill="#000000" transform="matrix(0.1 0 0 0.1 399.746 70)" font-style="normal" font-weight="normal" font-size="200px" font-family="Arial" >
mol%)</text>
<text x="0" y="0" stroke="none" fill="#000000" transform="matrix(0.1 0 0 0.1 309.158 93)" font-style="normal" font-weight="normal" font-size="200px" font-family="Arial" >
K</text>
<text x="0" y="0" stroke="none" fill="#000000" transform="matrix(0.1 0 0 0.1 322.498 97.4)" font-style="normal" font-weight="normal" font-size="150px" font-family="Arial" >
2</text>
<text x="0" y="0" stroke="none" fill="#000000" transform="matrix(0.1 0 0 0.1 330.84 93)" font-style="normal" font-weight="normal" font-size="200px" font-family="Arial" >
CO</text>
<text x="0" y="0" stroke="none" fill="#000000" transform="matrix(0.1 0 0 0.1 360.84 97.4)" font-style="normal" font-weight="normal" font-size="150px" font-family="Arial" >
3</text>
<text x="0" y="0" stroke="none" fill="#000000" transform="matrix(0.1 0 0 0.1 369.183 93)" font-style="normal" font-weight="normal" font-size="200px" font-family="Arial" >
 </text>
<text x="0" y="0" stroke="none" fill="#000000" transform="matrix(0.1 0 0 0.1 374.739 93)" font-style="normal" font-weight="normal" font-size="200px" font-family="Arial" >
(3 </text>
<text x="0" y="0" stroke="none" fill="#000000" transform="matrix(0.1 0 0 0.1 398.079 93)" font-style="normal" font-weight="normal" font-size="200px" font-family="Arial" >
eq.)</text>
<text x="0" y="0" stroke="none" fill="#000000" transform="matrix(0.1 0 0 0.1 319.999 116)" font-style="normal" font-weight="normal" font-size="200px" font-family="Arial" >
H</text>
<text x="0" y="0" stroke="none" fill="#000000" transform="matrix(0.1 0 0 0.1 334.443 120.4)" font-style="normal" font-weight="normal" font-size="150px" font-family="Arial" >
2</text>
<text x="0" y="0" stroke="none" fill="#000000" transform="matrix(0.1 0 0 0.1 342.785 116)" font-style="normal" font-weight="normal" font-size="200px" font-family="Arial" >
O </text>
<text x="0" y="0" stroke="none" fill="#000000" transform="matrix(0.1 0 0 0.1 363.898 116)" font-style="normal" font-weight="normal" font-size="200px" font-family="Arial" >
(5 </text>
<text x="0" y="0" stroke="none" fill="#000000" transform="matrix(0.1 0 0 0.1 387.238 116)" font-style="normal" font-weight="normal" font-size="200px" font-family="Arial" >
eq.)</text>
<text x="0" y="0" stroke="none" fill="#000000" transform="matrix(0.1 0 0 0.1 311.85 150)" font-style="normal" font-weight="normal" font-size="200px" font-family="Arial" >
Solvent, </text>
<text x="0" y="0" stroke="none" fill="#000000" transform="matrix(0.1 0 0 0.1 389.672 150)" font-style="normal" font-weight="normal" font-size="200px" font-family="Arial" >
rT</text>
<path stroke="none" fill="#000000" transform="matrix(0.1 0 0 0.1 -38.65 -288)" d="M 5369.45,4012.45 L 5381.46,4019.38 L 5381.46,4300.62 L 5369.45,4307.55 L 5369.45,4012.45 Z " />
<path stroke="none" fill="#000000" transform="matrix(0.1 0 0 0.1 -38.65 -288)" d="M 5421.44,4045.93 L 5433.44,4045.93 L 5433.44,4274.07 L 5421.44,4274.07 L 5421.44,4045.93 Z " />
<path stroke="none" fill="#000000" transform="matrix(0.1 0 0 0.1 -38.65 -288)" d="M 5369.45,4307.55 L 5381.46,4300.62 L 5625,4441.23 L 5625,4455.1 L 5369.45,4307.55 Z " />
<path stroke="none" fill="#000000" transform="matrix(0.1 0 0 0.1 -38.65 -288)" d="M 5625,4455.1 L 5625,4441.23 L 5868.54,4300.62 L 5880.55,4307.55 L 5625,4455.1 Z " />
<path stroke="none" fill="#000000" transform="matrix(0.1 0 0 0.1 -38.65 -288)" d="M 5628,4393.34 L 5622,4382.95 L 5819.56,4268.88 L 5825.56,4279.27 L 5628,4393.34 Z " />
<path stroke="none" fill="#000000" transform="matrix(0.1 0 0 0.1 -38.65 -288)" d="M 5880.55,4307.55 L 5868.54,4300.62 L 5868.54,4019.38 L 5874.4,4016 L 5880.26,4019.38 L 5880.55,4307.55 Z " />
<path stroke="none" fill="#000000" transform="matrix(0.1 0 0 0.1 -38.65 -288)" d="M 5874.4,4009.23 L 5874.4,4016 L 5868.54,4019.38 L 5625,3878.77 L 5625,3864.9 L 5874.4,4009.23 Z " />
<path stroke="none" fill="#000000" transform="matrix(0.1 0 0 0.1 -38.65 -288)" d="M 5825.56,4040.73 L 5819.56,4051.12 L 5622,3937.05 L 5628,3926.66 L 5825.56,4040.73 Z " />
<path stroke="none" fill="#000000" transform="matrix(0.1 0 0 0.1 -38.65 -288)" d="M 5625,3864.9 L 5625,3878.77 L 5381.46,4019.38 L 5369.45,4012.45 L 5625,3864.9 Z " />
<path stroke="none" fill="#000000" transform="matrix(0.1 0 0 0.1 -38.65 -288)" d="M 5880.26,4019.38 L 5874.4,4016 L 5874.4,4009.23 L 6123.8,3864.9 L 6123.8,3878.77 L 5880.26,4019.38 Z " />
<path stroke="none" fill="#000000" transform="matrix(0.1 0 0 0.1 -38.65 -288)" d="M 6123.8,3878.77 L 6123.8,3864.9 L 6373.2,4009.23 L 6373.2,4016 L 6367.34,4019.38 L 6123.8,3878.77 Z " />
<text x="0" y="0" stroke="none" fill="#000000" transform="matrix(0.1 0 0 0.1 565.952 78.2)" font-style="normal" font-weight="normal" font-size="200px" font-family="Arial" >
O</text>
<path stroke="none" fill="#000000" transform="matrix(0.1 0 0 0.1 -38.65 -288)" d="M 6103.88,3886.97 L 6091.88,3886.97 L 6091.88,3695.67 L 6103.88,3695.67 L 6103.88,3886.97 Z " />
<path stroke="none" fill="#000000" transform="matrix(0.1 0 0 0.1 -38.65 -288)" d="M 6155.72,3886.97 L 6143.72,3886.97 L 6143.72,3695.67 L 6155.72,3695.67 L 6155.72,3886.97 Z " />
<path stroke="none" fill="#000000" transform="matrix(0.1 0 0 0.1 -38.65 -288)" d="M 6367.34,4019.38 L 6373.2,4016 L 6379.06,4019.38 L 6379.06,4300.62 L 6367.05,4307.55 L 6367.34,4019.38 Z " />
<path stroke="none" fill="#000000" transform="matrix(0.1 0 0 0.1 -38.65 -288)" d="M 6419.04,4045.93 L 6431.04,4045.93 L 6431.04,4274.07 L 6419.04,4274.07 L 6419.04,4045.93 Z " />
<path stroke="none" fill="#000000" transform="matrix(0.1 0 0 0.1 -38.65 -288)" d="M 6367.05,4307.55 L 6379.06,4300.62 L 6622.6,4441.23 L 6622.6,4455.1 L 6367.05,4307.55 Z " />
<path stroke="none" fill="#000000" transform="matrix(0.1 0 0 0.1 -38.65 -288)" d="M 6622.6,4455.1 L 6622.6,4441.23 L 6866.14,4300.62 L 6872,4304 L 6872.11,4310.71 L 6622.6,4455.1 Z " />
<path stroke="none" fill="#000000" transform="matrix(0.1 0 0 0.1 -38.65 -288)" d="M 6625.6,4393.34 L 6619.6,4382.95 L 6817.16,4268.88 L 6823.16,4279.27 L 6625.6,4393.34 Z " />
<path stroke="none" fill="#000000" transform="matrix(0.1 0 0 0.1 -38.65 -288)" d="M 6877.86,4300.75 L 6872,4304 L 6866.14,4300.62 L 6866.14,4019.38 L 6878.15,4012.45 L 6877.86,4300.75 Z " />
<path stroke="none" fill="#000000" transform="matrix(0.1 0 0 0.1 -38.65 -288)" d="M 6878.15,4012.45 L 6866.14,4019.38 L 6622.6,3878.77 L 6622.6,3864.9 L 6878.15,4012.45 Z " />
<path stroke="none" fill="#000000" transform="matrix(0.1 0 0 0.1 -38.65 -288)" d="M 6823.16,4040.73 L 6817.16,4051.12 L 6619.6,3937.05 L 6625.6,3926.66 L 6823.16,4040.73 Z " />
<path stroke="none" fill="#000000" transform="matrix(0.1 0 0 0.1 -38.65 -288)" d="M 6622.6,3864.9 L 6622.6,3878.77 L 6379.06,4019.38 L 6373.2,4016 L 6373.2,4009.23 L 6622.6,3864.9 Z " />
<text x="0" y="0" stroke="none" fill="#000000" transform="matrix(0.1 0 0 0.1 665.16 164.6)" font-style="normal" font-weight="normal" font-size="200px" font-family="Arial" >
Me</text>
<path stroke="none" fill="#000000" transform="matrix(0.1 0 0 0.1 -38.65 -288)" d="M 6872.11,4310.71 L 6872,4304 L 6877.86,4300.75 L 7018.26,4381.52 L 7012.26,4391.91 L 6872.11,4310.71 Z " />
<text x="0" y="0" stroke="none" fill="#000000" transform="matrix(0.1 0 0 0.1 772.3 31.05)" font-style="normal" font-weight="bold" font-size="200px" font-family="Arial" >
[Pd-NHC]</text>
<text x="0" y="0" stroke="none" fill="#000000" transform="matrix(0.1 0 0 0.1 788.849 97.5698)" font-style="normal" font-weight="normal" font-size="200px" font-family="Arial" >
N</text>
<text x="0" y="0" stroke="none" fill="#000000" transform="matrix(0.1 0 0 0.1 827.434 97.0565)" font-style="normal" font-weight="normal" font-size="200px" font-family="Arial" >
N</text>
<path stroke="none" fill="#000000" transform="matrix(0.1 0 0 0.1 -38.65 -288)" d="M 8412.95,3543.82 L 8421.84,3555.74 L 8385.06,3675.81 L 8373.6,3672.26 L 8412.95,3543.82 Z " />
<path stroke="none" fill="#000000" transform="matrix(0.1 0 0 0.1 -38.65 -288)" d="M 8443.45,3853.05 L 8450.38,3843.25 L 8541.87,3908.41 L 8541.96,3915.31 L 8536.03,3918.06 L 8443.45,3853.05 Z " />
<path stroke="none" fill="#000000" transform="matrix(0.1 0 0 0.1 -38.65 -288)" d="M 8547.73,3918.1 L 8541.96,3915.31 L 8541.87,3908.41 L 8630.75,3841.5 L 8637.93,3851.11 L 8547.73,3918.1 Z " />
<path stroke="none" fill="#000000" transform="matrix(0.1 0 0 0.1 -38.65 -288)" d="M 8703.42,3666.88 L 8692.06,3670.75 L 8652.29,3552.7 L 8660.85,3540.55 L 8703.42,3666.88 Z " />
<path stroke="none" fill="#000000" transform="matrix(0.1 0 0 0.1 -38.65 -288)" d="M 8660.85,3540.55 L 8652.29,3552.7 L 8421.84,3555.74 L 8412.95,3543.82 L 8660.85,3540.55 Z " />
<path stroke="none" fill="#000000" transform="matrix(0.1 0 0 0.1 -38.65 -288)" d="M 8625.55,3584.19 L 8625.7,3596.19 L 8449.6,3598.51 L 8449.45,3586.51 L 8625.55,3584.19 Z " />
<text x="0" y="0" stroke="none" fill="#000000" transform="matrix(0.0999391 0.00348995 -0.00348995 0.0999391 807.68 142.375)" font-style="normal" font-weight="normal" font-size="200px" font-family="Arial" >
Pd</text>
<path stroke="none" fill="#000000" transform="matrix(0.1 0 0 0.1 -38.65 -288)" d="M 8536.03,3918.06 L 8541.96,3915.31 L 8547.73,3918.1 L 8541.53,4132.27 L 8529.53,4131.92 L 8536.03,3918.06 Z " />
<text x="0" y="0" stroke="none" fill="#000000" transform="matrix(0.1 0 0 0.1 776.856 153.725)" font-style="normal" font-weight="normal" font-size="200px" font-family="Arial" >
Cl</text>
<path stroke="none" fill="#000000" transform="matrix(0.1 0 0 0.1 -38.65 -288)" d="M 8430.5,4275.17 L 8436.09,4285.78 L 8377.67,4316.55 L 8372.08,4305.94 L 8430.5,4275.17 Z " />
<path stroke="none" fill="#000000" transform="matrix(0.1 0 0 0.1 -38.65 -288)" d="M 8737.49,4297.67 L 8744.38,4287.85 L 8839.18,4354.37 L 8832.28,4364.2 L 8737.49,4297.67 Z " />
<path stroke="none" fill="#000000" transform="matrix(0.1 0 0 0.1 -38.65 -288)" d="M 8940.02,4183.8 L 8952.02,4183.7 L 8954.05,4425.74 L 8941.98,4418.89 L 8940.02,4183.8 Z " />
<path stroke="none" fill="#000000" transform="matrix(0.1 0 0 0.1 -38.65 -288)" d="M 8941.98,4418.89 L 8954.05,4425.74 L 8747.9,4546.34 L 8735.85,4539.47 L 8941.98,4418.89 Z " />
<text x="0" y="0" stroke="none" fill="#000000" transform="matrix(0.1 0 0 0.1 829.079 197.94)" font-style="normal" font-weight="normal" font-size="200px" font-family="Arial" >
Ph</text>
<path stroke="none" fill="#000000" transform="matrix(0.1 0 0 0.1 -38.65 -288)" d="M 8735.85,4539.47 L 8747.9,4546.34 L 8749.26,4686.53 L 8737.26,4686.62 L 8735.85,4539.47 Z " />
<path stroke="#000000" stroke-width="12" fill="none" transform="matrix(0.1 0 0 0.1 -38.65 -288)" d="M 8757.91,4493.04 C 8852.21,4485.63 8922.74,4403.07 8915.33,4308.77 C 8912.99,4278.95 8902.67,4249.8 8885.73,4225.14 " />
<path stroke="#000000" stroke-width="12" fill="none" transform="matrix(0.1 0 0 0.1 -38.65 -288)" d="M 8436.92,3777.88 C 8457.86,3834.76 8521.03,3863.93 8577.91,3842.99 C 8609.42,3831.39 8634.84,3804.64 8644.82,3772.57 " />
<path stroke="none" fill="#000000" transform="matrix(0.1 0 0 0.1 -38.65 -288)" d="M 8259.35,3768.16 L 8258.87,3780.15 L 8165.74,3773.29 L 8133.25,3769.09 L 8135.67,3763.39 L 8259.35,3768.16 Z " />
<path stroke="none" fill="#000000" transform="matrix(0.1 0 0 0.1 -38.65 -288)" d="M 8820.83,3778.75 L 8820.85,3766.75 L 8969.62,3767.24 L 8971.85,3773.06 L 8936.76,3776.2 L 8820.83,3778.75 Z " />
<path stroke="none" fill="#000000" transform="matrix(0.1 0 0 0.1 -38.65 -288)" d="M 7993.7,3638.46 L 7989.19,3650.47 L 7709.31,3650.47 L 7704.8,3638.46 L 7993.7,3638.46 Z " />
<path stroke="none" fill="#000000" transform="matrix(0.1 0 0 0.1 -38.65 -288)" d="M 7972.08,3689.71 L 7972.08,3701.71 L 7726.43,3701.71 L 7726.43,3689.71 L 7972.08,3689.71 Z " />
<path stroke="none" fill="#000000" transform="matrix(0.1 0 0 0.1 -38.65 -288)" d="M 7704.8,3638.46 L 7709.31,3650.47 L 7582.87,3759.98 L 7542.73,3778.89 L 7704.8,3638.46 Z " />
<path stroke="none" fill="#000000" transform="matrix(0.1 0 0 0.1 -38.65 -288)" d="M 7542.73,3778.89 L 7582.87,3759.98 L 7712.96,3874.43 L 7698.59,3914.83 L 7542.73,3778.89 Z " />
<path stroke="none" fill="#000000" transform="matrix(0.1 0 0 0.1 -38.65 -288)" d="M 7634.04,3773.6 L 7641.96,3764.58 L 7729.19,3841.12 L 7721.28,3850.14 L 7634.04,3773.6 Z " />
<path stroke="none" fill="#000000" transform="matrix(0.1 0 0 0.1 -38.65 -288)" d="M 7698.59,3914.83 L 7712.96,3874.43 L 7985.54,3874.43 L 7991.34,3893.62 L 7984.45,3912.65 L 7698.59,3914.83 Z " />
<path stroke="none" fill="#000000" transform="matrix(0.1 0 0 0.1 -38.65 -288)" d="M 8011.94,3898.74 L 7991.34,3893.62 L 7985.54,3874.43 L 8115.63,3759.98 L 8133.25,3769.09 L 8165.74,3773.29 L 8011.94,3898.74 Z " />
<path stroke="none" fill="#000000" transform="matrix(0.1 0 0 0.1 -38.65 -288)" d="M 7977.22,3850.14 L 7969.31,3841.12 L 8056.54,3764.58 L 8064.46,3773.6 L 7977.22,3850.14 Z " />
<path stroke="none" fill="#000000" transform="matrix(0.1 0 0 0.1 -38.65 -288)" d="M 8135.67,3763.39 L 8133.25,3769.09 L 8115.63,3759.98 L 7989.19,3650.47 L 7993.7,3638.46 L 8135.67,3763.39 Z " />
<path stroke="none" fill="#000000" transform="matrix(0.1 0 0 0.1 -38.65 -288)" d="M 9111.73,3908.39 L 9104.5,3889.48 L 9110.09,3870.32 L 9364.36,3870.32 L 9378.6,3910.78 L 9111.73,3908.39 Z " />
<path stroke="none" fill="#000000" transform="matrix(0.1 0 0 0.1 -38.65 -288)" d="M 9378.6,3910.78 L 9364.36,3870.32 L 9485.1,3763.97 L 9525.36,3782.9 L 9378.6,3910.78 Z " />
<path stroke="none" fill="#000000" transform="matrix(0.1 0 0 0.1 -38.65 -288)" d="M 9356.68,3848.22 L 9348.76,3839.2 L 9429.23,3768.58 L 9437.15,3777.6 L 9356.68,3848.22 Z " />
<path stroke="none" fill="#000000" transform="matrix(0.1 0 0 0.1 -38.65 -288)" d="M 9525.36,3782.9 L 9485.1,3763.97 L 9367.82,3662.71 L 9372.32,3650.7 L 9525.36,3782.9 Z " />
<path stroke="none" fill="#000000" transform="matrix(0.1 0 0 0.1 -38.65 -288)" d="M 9372.32,3650.7 L 9367.82,3662.71 L 9106.63,3662.71 L 9102.13,3650.7 L 9372.32,3650.7 Z " />
<path stroke="none" fill="#000000" transform="matrix(0.1 0 0 0.1 -38.65 -288)" d="M 9351.98,3698.59 L 9351.98,3710.59 L 9122.47,3710.59 L 9122.47,3698.59 L 9351.98,3698.59 Z " />
<path stroke="none" fill="#000000" transform="matrix(0.1 0 0 0.1 -38.65 -288)" d="M 9102.13,3650.7 L 9106.63,3662.71 L 8989.35,3763.97 L 8971.85,3773.06 L 8969.62,3767.24 L 9102.13,3650.7 Z " />
<path stroke="none" fill="#000000" transform="matrix(0.1 0 0 0.1 -38.65 -288)" d="M 8936.76,3776.2 L 8971.85,3773.06 L 8989.35,3763.97 L 9110.09,3870.32 L 9104.5,3889.48 L 9084.92,3895.71 L 8936.76,3776.2 Z " />
<path stroke="none" fill="#000000" transform="matrix(0.1 0 0 0.1 -38.65 -288)" d="M 9037.31,3777.6 L 9045.22,3768.58 L 9125.69,3839.2 L 9117.78,3848.22 L 9037.31,3777.6 Z " />
<text x="0" y="0" stroke="none" fill="#000000" transform="matrix(0.1 0 0 0.1 771.535 122.36)" font-style="normal" font-weight="normal" font-size="150px" font-family="Arial" >
i</text>
<text x="0" y="0" stroke="none" fill="#000000" transform="matrix(0.1 0 0 0.1 774.868 130.16)" font-style="normal" font-weight="normal" font-size="200px" font-family="Arial" >
Pr</text>
<path stroke="none" fill="#000000" transform="matrix(0.1 0 0 0.1 -38.65 -288)" d="M 7984.45,3912.65 L 7991.34,3893.62 L 8011.94,3898.74 L 8070.43,3985.61 L 8036.22,4006.33 L 7984.45,3912.65 Z " />
<text x="0" y="0" stroke="none" fill="#000000" transform="matrix(0.1 0 0 0.1 772.181 59.9287)" font-style="normal" font-weight="normal" font-size="150px" font-family="Arial" >
i</text>
<text x="0" y="0" stroke="none" fill="#000000" transform="matrix(0.1 0 0 0.1 775.514 67.7287)" font-style="normal" font-weight="normal" font-size="200px" font-family="Arial" >
Pr</text>
<path stroke="none" fill="#000000" transform="matrix(0.1 0 0 0.1 -38.65 -288)" d="M 8027.54,3609.32 L 8018.21,3601.78 L 8023.63,3590.73 L 8037.21,3601.71 L 8027.54,3609.32 Z " />
<path stroke="none" fill="#000000" transform="matrix(0.1 0 0 0.1 -38.65 -288)" d="M 8102.77,3550.11 L 8060.37,3515.82 L 8065.79,3504.77 L 8112.45,3542.49 L 8102.77,3550.11 Z " />
<text x="0" y="0" stroke="none" fill="#000000" transform="matrix(0.1 0 0 0.1 843.965 116.531)" font-style="normal" font-weight="normal" font-size="150px" font-family="Arial" >
i</text>
<text x="0" y="0" stroke="none" fill="#000000" transform="matrix(0.1 0 0 0.1 847.297 124.331)" font-style="normal" font-weight="normal" font-size="200px" font-family="Arial" >
Pr</text>
<path stroke="none" fill="#000000" transform="matrix(0.1 0 0 0.1 -38.65 -288)" d="M 9084.92,3895.71 L 9104.5,3889.48 L 9111.73,3908.39 L 9073.76,3995.17 L 9038.02,3977.21 L 9084.92,3895.71 Z " />
<text x="0" y="0" stroke="none" fill="#000000" transform="matrix(0.1 0 0 0.1 840.089 57.8421)" font-style="normal" font-weight="normal" font-size="150px" font-family="Arial" >
i</text>
<text x="0" y="0" stroke="none" fill="#000000" transform="matrix(0.1 0 0 0.1 843.422 65.6421)" font-style="normal" font-weight="normal" font-size="200px" font-family="Arial" >
Pr</text>
<path stroke="none" fill="#000000" transform="matrix(0.1 0 0 0.1 -38.65 -288)" d="M 9084.2,3610.6 L 9073.86,3616.7 L 9064.78,3608.13 L 9081.08,3598.51 L 9084.2,3610.6 Z " />
<path stroke="none" fill="#000000" transform="matrix(0.1 0 0 0.1 -38.65 -288)" d="M 9065.7,3538.86 L 9020,3565.84 L 9010.91,3557.26 L 9062.59,3526.77 L 9065.7,3538.86 Z " />
<clipPath id="1" >
<path clip-rule="evenodd" d="M 700.592,-5.12006 L 939.824,-5.12006 L 939.824,221.612 L 700.592,221.612 L 700.592,-5.12006 M 710.592,199.612 C 710.592,199.612 710.592,12.0798 710.592,12.0798 C 710.592,8.10571 713.818,4.87994 717.792,4.87994 C 717.792,4.87994 917.824,4.87994 917.824,4.87994 C 921.798,4.87994 925.024,8.10571 925.024,12.0798 C 925.024,12.0798 925.024,199.612 925.024,199.612 C 925.024,203.586 921.798,206.812 917.824,206.812 C 917.824,206.812 717.792,206.812 717.792,206.812 C 713.818,206.812 710.592,203.586 710.592,199.612 " />
</clipPath>
<g clip-path="url(#1)" >
<path stroke="none" fill="#000000" transform="matrix(0.1 0 0 0.1 -75 -288)" fill-opacity="0.247059" d="M 7903.92,4924.12 C 7903.92,4924.12 7903.92,3048.8 7903.92,3048.8 C 7903.92,3009.06 7936.18,2976.8 7975.92,2976.8 C 7975.92,2976.8 9976.24,2976.8 9976.24,2976.8 C 10016,2976.8 10048.2,3009.06 10048.2,3048.8 C 10048.2,3048.8 10048.2,4924.12 10048.2,4924.12 C 10048.2,4963.86 10016,4996.12 9976.24,4996.12 C 9976.24,4996.12 7975.92,4996.12 7975.92,4996.12 C 7936.18,4996.12 7903.92,4963.86 7903.92,4924.12 " />
</g>
<path stroke="#000000" stroke-width="12" fill="none" transform="matrix(0.1 0 0 0.1 -38.65 -288)" d="M 7492.42,4876.12 C 7492.42,4876.12 7492.42,3000.8 7492.42,3000.8 C 7492.42,2961.06 7524.68,2928.8 7564.42,2928.8 C 7564.42,2928.8 9564.74,2928.8 9564.74,2928.8 C 9604.48,2928.8 9636.74,2961.06 9636.74,3000.8 C 9636.74,3000.8 9636.74,4876.12 9636.74,4876.12 C 9636.74,4915.86 9604.48,4948.12 9564.74,4948.12 C 9564.74,4948.12 7564.42,4948.12 7564.42,4948.12 C 7524.68,4948.12 7492.42,4915.86 7492.42,4876.12 " />
</svg>
