<?xml version="1.0" standalone="no" ?>
<!DOCTYPE svg PUBLIC "-//W3C//DTD SVG 1.1//EN" "http://www.w3.org/Graphics/SVG/1.1/DTD/svg11.dtd">
<svg width="639px" height="103px" viewBox="0 0 639 103" style="background-color: #ffffff00" xmlns="http://www.w3.org/2000/svg" xmlns:xlink="http://www.w3.org/1999/xlink" version="1.1" >
<text x="0" y="0" stroke="none" fill="#000000" transform="matrix(0.1 0 0 0.1 257.308 56.4)" font-style="normal" font-weight="normal" font-size="200px" font-family="Arial" >
N</text>
<text x="0" y="0" stroke="none" fill="#000000" transform="matrix(0.1 0 0 0.1 301.628 70.8)" font-style="normal" font-weight="normal" font-size="200px" font-family="Arial" >
N</text>
<path stroke="none" fill="#000000" transform="matrix(0.1 0 0 0.1 -20.65 -245)" d="M 2845.8,3045.17 L 2857.8,3045.17 L 2857.51,3219.73 L 2845.5,3228.46 L 2845.8,3045.17 Z " />
<path stroke="none" fill="#000000" transform="matrix(0.1 0 0 0.1 -20.65 -245)" d="M 2845.5,3228.46 L 2857.51,3219.73 L 3123.72,3306.2 L 3128.31,3320.33 L 2845.5,3228.46 Z " />
<path stroke="none" fill="#000000" transform="matrix(0.1 0 0 0.1 -20.65 -245)" d="M 2901.8,3192.03 L 2905.51,3180.61 L 3107.83,3246.33 L 3104.13,3257.75 L 2901.8,3192.03 Z " />
<path stroke="none" fill="#000000" transform="matrix(0.1 0 0 0.1 -20.65 -245)" d="M 3128.31,3320.33 L 3123.72,3306.2 L 3215.24,3179.62 L 3224.95,3186.67 L 3128.31,3320.33 Z " />
<path stroke="none" fill="#000000" transform="matrix(0.1 0 0 0.1 -20.65 -245)" d="M 3231.77,2982.71 L 3222.06,2989.76 L 3123.63,2853.73 L 3128.23,2839.59 L 3231.77,2982.71 Z " />
<path stroke="none" fill="#000000" transform="matrix(0.1 0 0 0.1 -20.65 -245)" d="M 3189.83,3013.17 L 3180.12,3020.22 L 3101.14,2911.46 L 3110.85,2904.41 L 3189.83,3013.17 Z " />
<path stroke="none" fill="#000000" transform="matrix(0.1 0 0 0.1 -20.65 -245)" d="M 3128.23,2839.59 L 3123.63,2853.73 L 2951.54,2909.91 L 2947.83,2898.5 L 3128.23,2839.59 Z " />
<text x="0" y="0" stroke="none" fill="#000000" transform="matrix(0.1 0 0 0.1 4.18008 80.8)" font-style="normal" font-weight="normal" font-size="200px" font-family="Arial" >
Br</text>
<path stroke="none" fill="#000000" transform="matrix(0.1 0 0 0.1 -20.65 -245)" d="M 479.392,3149.75 L 473.392,3139.36 L 664.37,3028.87 L 664.365,3042.74 L 479.392,3149.75 Z " />
<path stroke="none" fill="#000000" transform="matrix(0.1 0 0 0.1 -20.65 -245)" d="M 664.365,3042.74 L 664.37,3028.87 L 913.83,3173.23 L 913.83,3187.1 L 664.365,3042.74 Z " />
<path stroke="none" fill="#000000" transform="matrix(0.1 0 0 0.1 -20.65 -245)" d="M 913.83,3187.1 L 913.83,3173.23 L 1163.25,3028.9 L 1163.25,3042.77 L 913.83,3187.1 Z " />
<path stroke="none" fill="#000000" transform="matrix(0.1 0 0 0.1 -20.65 -245)" d="M 1163.25,3042.77 L 1163.25,3028.9 L 1412.66,3173.23 L 1412.66,3187.1 L 1163.25,3042.77 Z " />
<path stroke="none" fill="#000000" transform="matrix(0.1 0 0 0.1 -20.65 -245)" d="M 1412.66,3187.1 L 1412.66,3173.23 L 1662.08,3028.9 L 1662.08,3042.77 L 1412.66,3187.1 Z " />
<path stroke="none" fill="#000000" transform="matrix(0.1 0 0 0.1 -20.65 -245)" d="M 1662.08,3042.77 L 1662.08,3028.9 L 1911.49,3173.23 L 1911.49,3187.1 L 1662.08,3042.77 Z " />
<path stroke="none" fill="#000000" transform="matrix(0.1 0 0 0.1 -20.65 -245)" d="M 1911.49,3187.1 L 1911.49,3173.23 L 2157.91,3030.8 L 2163.91,3041.2 L 1911.49,3187.1 Z " />
<text x="0" y="0" stroke="none" fill="#000000" transform="matrix(0.1 0 0 0.1 212.85 73)" font-style="normal" font-weight="normal" font-size="200px" font-family="Arial" >
+</text>
<text x="0" y="0" stroke="none" fill="#000000" transform="matrix(0.1 0 0 0.1 219.009 39.4707)" font-style="normal" font-weight="normal" font-size="200px" font-family="Arial" >
Me</text>
<path stroke="none" fill="#000000" transform="matrix(0.1 0 0 0.1 -20.65 -245)" d="M 2762.77,2863.89 L 2755.71,2873.6 L 2697.72,2831.46 L 2704.78,2821.75 L 2762.77,2863.89 Z " />
<path stroke="none" fill="#000000" transform="matrix(0.1 0 0 0.1 -20.65 -245)" d="M 4849.75,3146 L 3565,3146 L 3565,3134 L 4849.75,3134 Z " />
<path stroke="none" fill="#000000" transform="matrix(0.1 0 0 0.1 -20.65 -245)" d="M 5085,3140 C 5085,3140 4815,3208.5 4815,3208.5 C 4815,3208.5 4848.75,3169.97 4848.75,3140 C 4848.75,3109.59 4815,3070.5 4815,3070.5 C 4815,3070.5 5085,3140 5085,3140 C 5085,3140 5085,3140 5085,3140 " />
<path stroke="#000000" stroke-width="1" fill="none" transform="matrix(0.1 0 0 0.1 -20.65 -245)" d="M 5085,3140 C 5085,3140 4815,3208.5 4815,3208.5 C 4815,3208.5 4848.75,3169.97 4848.75,3140 C 4848.75,3109.59 4815,3070.5 4815,3070.5 C 4815,3070.5 5085,3140 5085,3140 C 5085,3140 5085,3140 5085,3140 " />
<text x="0" y="0" stroke="none" fill="#000000" transform="matrix(0.1 0 0 0.1 358.85 61)" font-style="normal" font-weight="normal" font-size="200px" font-family="Arial" >
Solvent</text>
<text x="0" y="0" stroke="none" fill="#000000" transform="matrix(0.1 0 0 0.1 349.85 93)" font-style="normal" font-weight="normal" font-size="200px" font-family="Arial" >
25 </text>
<text x="0" y="0" stroke="none" fill="#000000" transform="matrix(0.1 0 0 0.1 377.653 93)" font-style="normal" font-weight="normal" font-size="200px" font-family="Arial" >
- </text>
<text x="0" y="0" stroke="none" fill="#000000" transform="matrix(0.1 0 0 0.1 389.87 93)" font-style="normal" font-weight="normal" font-size="200px" font-family="Arial" >
100 </text>
<text x="0" y="0" stroke="none" fill="#000000" transform="matrix(0.1 0 0 0.1 428.795 93)" font-style="normal" font-weight="normal" font-size="200px" font-family="Arial" >
°C</text>
<text x="0" y="0" stroke="none" fill="#000000" transform="matrix(0.1 0 0 0.1 507.308 58.4)" font-style="normal" font-weight="normal" font-size="200px" font-family="Arial" >
N</text>
<text x="0" y="0" stroke="none" fill="#000000" transform="matrix(0.1 0 0 0.1 551.628 72.8)" font-style="normal" font-weight="normal" font-size="200px" font-family="Arial" >
N</text>
<path stroke="none" fill="#000000" transform="matrix(0.1 0 0 0.1 -20.65 -245)" d="M 5345.8,3065.17 L 5357.8,3065.17 L 5357.51,3239.73 L 5345.5,3248.46 L 5345.8,3065.17 Z " />
<path stroke="none" fill="#000000" transform="matrix(0.1 0 0 0.1 -20.65 -245)" d="M 5345.5,3248.46 L 5357.51,3239.73 L 5623.72,3326.2 L 5628.31,3340.33 L 5345.5,3248.46 Z " />
<path stroke="none" fill="#000000" transform="matrix(0.1 0 0 0.1 -20.65 -245)" d="M 5401.8,3212.03 L 5405.51,3200.61 L 5607.83,3266.33 L 5604.13,3277.75 L 5401.8,3212.03 Z " />
<path stroke="none" fill="#000000" transform="matrix(0.1 0 0 0.1 -20.65 -245)" d="M 5628.31,3340.33 L 5623.72,3326.2 L 5715.24,3199.62 L 5724.95,3206.67 L 5628.31,3340.33 Z " />
<path stroke="none" fill="#000000" transform="matrix(0.1 0 0 0.1 -20.65 -245)" d="M 5731.77,3002.71 L 5722.06,3009.76 L 5623.63,2873.73 L 5628.23,2859.59 L 5731.77,3002.71 Z " />
<path stroke="none" fill="#000000" transform="matrix(0.1 0 0 0.1 -20.65 -245)" d="M 5628.23,2859.59 L 5623.63,2873.73 L 5451.54,2929.91 L 5447.83,2918.5 L 5628.23,2859.59 Z " />
<text x="0" y="0" stroke="none" fill="#000000" transform="matrix(0.1 0 0 0.1 469.009 41.4707)" font-style="normal" font-weight="normal" font-size="200px" font-family="Arial" >
Me</text>
<path stroke="none" fill="#000000" transform="matrix(0.1 0 0 0.1 -20.65 -245)" d="M 5262.77,2883.89 L 5255.71,2893.6 L 5197.72,2851.46 L 5204.78,2841.75 L 5262.77,2883.89 Z " />
<text x="0" y="0" stroke="none" fill="#000000" transform="matrix(0.1 0 0 0.1 580.428 72.8)" font-style="normal" font-weight="normal" font-size="200px" font-family="Arial" >
C</text>
<text x="0" y="0" stroke="none" fill="#000000" transform="matrix(0.1 0 0 0.1 594.872 77.2)" font-style="normal" font-weight="normal" font-size="150px" font-family="Arial" >
6</text>
<text x="0" y="0" stroke="none" fill="#000000" transform="matrix(0.1 0 0 0.1 603.214 72.8)" font-style="normal" font-weight="normal" font-size="200px" font-family="Arial" >
H</text>
<text x="0" y="0" stroke="none" fill="#000000" transform="matrix(0.1 0 0 0.1 617.657 77.2)" font-style="normal" font-weight="normal" font-size="150px" font-family="Arial" >
15</text>
<path stroke="none" fill="#000000" transform="matrix(0.1 0 0 0.1 -20.65 -245)" d="M 5882.78,3106 L 5882.78,3094 L 5989.78,3094 L 5989.78,3106 L 5882.78,3106 Z " />
<path stroke="#000000" stroke-width="12" fill="none" transform="matrix(0.1 0 0 0.1 -20.65 -245)" d="M 5704.43,3114.24 C 5715.12,3031.07 5656.28,2954.89 5573.1,2944.21 C 5522.99,2937.77 5470.44,2958.17 5437.79,2996.74 " />
<path stroke="#000000" stroke-width="10" fill="none" transform="matrix(0.1 0 0 0.1 -20.65 -245)" d="M 5463.53,3090.33 A 71.7999,71.7999 0 1 0 5607.13,3090.33A 71.7999,71.7999 0 1 0 5463.53,3090.33Z " />
<path stroke="none" fill="#000000" transform="matrix(0.1 0 0 0.1 -20.65 -245)" d="M 5495.67,3085 L 5574.33,3085 L 5574.33,3095 L 5495.67,3095 Z " />
<path stroke="none" fill="#000000" transform="matrix(0.1 0 0 0.1 -20.65 -245)" d="M 5540,3050.67 L 5540,3129.33 L 5530,3129.33 L 5530,3050.67 Z " />
<text x="0" y="0" stroke="none" fill="#000000" transform="matrix(0.1 0 0 0.1 551.85 37)" font-style="normal" font-weight="normal" font-size="200px" font-family="Arial" >
Br</text>
<path stroke="#000000" stroke-width="10" fill="none" transform="matrix(0.1 0 0 0.1 -20.65 -245)" d="M 5888.24,2573.27 A 71.7999,71.7999 0 1 0 6031.84,2573.27A 71.7999,71.7999 0 1 0 5888.24,2573.27Z " />
<path stroke="none" fill="#000000" transform="matrix(0.1 0 0 0.1 -20.65 -245)" d="M 5920.38,2567.94 L 5999.04,2567.94 L 5999.04,2577.94 L 5920.38,2577.94 Z " />
</svg>
