<?xml version="1.0" standalone="no" ?>
<!DOCTYPE svg PUBLIC "-//W3C//DTD SVG 1.1//EN" "http://www.w3.org/Graphics/SVG/1.1/DTD/svg11.dtd">
<svg width="839px" height="113px" viewBox="0 0 839 113" style="background-color: #ffffff00" xmlns="http://www.w3.org/2000/svg" xmlns:xlink="http://www.w3.org/1999/xlink" version="1.1" >
<path stroke="none" fill="#000000" transform="matrix(0.1 0 0 0.1 -80.65 -298)" d="M 1159.44,3552.45 L 1171.44,3559.38 L 1171.44,3840.62 L 1165.58,3844 L 1159.72,3840.72 L 1159.44,3552.45 Z " />
<path stroke="none" fill="#000000" transform="matrix(0.1 0 0 0.1 -80.65 -298)" d="M 1211.42,3585.93 L 1223.42,3585.93 L 1223.42,3814.07 L 1211.42,3814.07 L 1211.42,3585.93 Z " />
<path stroke="none" fill="#000000" transform="matrix(0.1 0 0 0.1 -80.65 -298)" d="M 1165.49,3850.72 L 1165.58,3844 L 1171.44,3840.62 L 1415,3981.23 L 1415,3995.1 L 1165.49,3850.72 Z " />
<path stroke="none" fill="#000000" transform="matrix(0.1 0 0 0.1 -80.65 -298)" d="M 1415,3995.1 L 1415,3981.23 L 1658.56,3840.62 L 1670.56,3847.55 L 1415,3995.1 Z " />
<path stroke="none" fill="#000000" transform="matrix(0.1 0 0 0.1 -80.65 -298)" d="M 1418,3933.34 L 1412,3922.94 L 1609.58,3808.87 L 1615.58,3819.27 L 1418,3933.34 Z " />
<path stroke="none" fill="#000000" transform="matrix(0.1 0 0 0.1 -80.65 -298)" d="M 1670.56,3847.55 L 1658.56,3840.62 L 1658.56,3559.38 L 1664.42,3556 L 1670.28,3559.28 L 1670.56,3847.55 Z " />
<path stroke="none" fill="#000000" transform="matrix(0.1 0 0 0.1 -80.65 -298)" d="M 1664.5,3549.28 L 1664.42,3556 L 1658.56,3559.38 L 1415,3418.77 L 1415,3404.9 L 1664.5,3549.28 Z " />
<path stroke="none" fill="#000000" transform="matrix(0.1 0 0 0.1 -80.65 -298)" d="M 1615.58,3580.73 L 1609.58,3591.13 L 1412,3477.06 L 1418,3466.66 L 1615.58,3580.73 Z " />
<path stroke="none" fill="#000000" transform="matrix(0.1 0 0 0.1 -80.65 -298)" d="M 1415,3404.9 L 1415,3418.77 L 1171.44,3559.38 L 1159.44,3552.45 L 1415,3404.9 Z " />
<text x="0" y="0" stroke="none" fill="#000000" transform="matrix(0.1 0 0 0.1 104.063 51)" font-style="normal" font-weight="normal" font-size="200px" font-family="Arial" >
S</text>
<path stroke="none" fill="#000000" transform="matrix(0.1 0 0 0.1 -80.65 -298)" d="M 1670.28,3559.28 L 1664.42,3556 L 1664.5,3549.28 L 1819.92,3459.29 L 1825.92,3469.68 L 1670.28,3559.28 Z " />
<path stroke="none" fill="#000000" transform="matrix(0.1 0 0 0.1 -80.65 -298)" d="M 2002.22,3469.96 L 2008.22,3459.57 L 2163.16,3549.28 L 2163.25,3556 L 2157.38,3559.28 L 2002.22,3469.96 Z " />
<path stroke="none" fill="#000000" transform="matrix(0.1 0 0 0.1 -80.65 -298)" d="M 2157.38,3559.28 L 2163.25,3556 L 2169.1,3559.38 L 2169.1,3840.62 L 2157.1,3847.55 L 2157.38,3559.28 Z " />
<path stroke="none" fill="#000000" transform="matrix(0.1 0 0 0.1 -80.65 -298)" d="M 2209.09,3585.93 L 2221.09,3585.93 L 2221.09,3814.07 L 2209.09,3814.07 L 2209.09,3585.93 Z " />
<path stroke="none" fill="#000000" transform="matrix(0.1 0 0 0.1 -80.65 -298)" d="M 2157.1,3847.55 L 2169.1,3840.62 L 2412.66,3981.23 L 2412.66,3995.1 L 2157.1,3847.55 Z " />
<path stroke="none" fill="#000000" transform="matrix(0.1 0 0 0.1 -80.65 -298)" d="M 2412.66,3995.1 L 2412.66,3981.23 L 2656.22,3840.62 L 2662.08,3844 L 2662.16,3850.72 L 2412.66,3995.1 Z " />
<path stroke="none" fill="#000000" transform="matrix(0.1 0 0 0.1 -80.65 -298)" d="M 2415.66,3933.34 L 2409.66,3922.94 L 2607.24,3808.87 L 2613.24,3819.27 L 2415.66,3933.34 Z " />
<path stroke="none" fill="#000000" transform="matrix(0.1 0 0 0.1 -80.65 -298)" d="M 2667.94,3840.71 L 2662.08,3844 L 2656.22,3840.62 L 2656.22,3559.38 L 2668.22,3552.45 L 2667.94,3840.71 Z " />
<path stroke="none" fill="#000000" transform="matrix(0.1 0 0 0.1 -80.65 -298)" d="M 2668.22,3552.45 L 2656.22,3559.38 L 2412.66,3418.77 L 2412.66,3404.9 L 2668.22,3552.45 Z " />
<path stroke="none" fill="#000000" transform="matrix(0.1 0 0 0.1 -80.65 -298)" d="M 2613.24,3580.73 L 2607.24,3591.13 L 2409.66,3477.06 L 2415.66,3466.66 L 2613.24,3580.73 Z " />
<path stroke="none" fill="#000000" transform="matrix(0.1 0 0 0.1 -80.65 -298)" d="M 2412.66,3404.9 L 2412.66,3418.77 L 2169.1,3559.38 L 2163.25,3556 L 2163.16,3549.28 L 2412.66,3404.9 Z " />
<text x="0" y="0" stroke="none" fill="#000000" transform="matrix(0.1 0 0 0.1 204.391 108.6)" font-style="normal" font-weight="normal" font-size="200px" font-family="Arial" >
F</text>
<path stroke="none" fill="#000000" transform="matrix(0.1 0 0 0.1 -80.65 -298)" d="M 2662.16,3850.72 L 2662.08,3844 L 2667.94,3840.71 L 2826.51,3932.01 L 2820.51,3942.4 L 2662.16,3850.72 Z " />
<text x="0" y="0" stroke="none" fill="#000000" transform="matrix(0.1 0 0 0.1 4.85856 108.6)" font-style="normal" font-weight="normal" font-size="200px" font-family="Arial" >
F</text>
<path stroke="none" fill="#000000" transform="matrix(0.1 0 0 0.1 -80.65 -298)" d="M 1159.72,3840.72 L 1165.58,3844 L 1165.49,3850.72 L 1012.28,3939.44 L 1006.28,3929.05 L 1159.72,3840.72 Z " />
<text x="0" y="0" stroke="none" fill="#000000" transform="matrix(0.1 0 0 0.1 229.85 79)" font-style="normal" font-weight="normal" font-size="200px" font-family="Arial" >
+</text>
<path stroke="none" fill="#000000" transform="matrix(0.1 0 0 0.1 -80.65 -298)" d="M 3639.44,3542.45 L 3651.44,3549.38 L 3651.44,3830.62 L 3639.44,3837.55 L 3639.44,3542.45 Z " />
<path stroke="none" fill="#000000" transform="matrix(0.1 0 0 0.1 -80.65 -298)" d="M 3691.42,3575.93 L 3703.42,3575.93 L 3703.42,3804.07 L 3691.42,3804.07 L 3691.42,3575.93 Z " />
<path stroke="none" fill="#000000" transform="matrix(0.1 0 0 0.1 -80.65 -298)" d="M 3639.44,3837.55 L 3651.44,3830.62 L 3895,3971.23 L 3895,3985.1 L 3639.44,3837.55 Z " />
<path stroke="none" fill="#000000" transform="matrix(0.1 0 0 0.1 -80.65 -298)" d="M 3895,3985.1 L 3895,3971.23 L 4138.56,3830.62 L 4150.56,3837.55 L 3895,3985.1 Z " />
<path stroke="none" fill="#000000" transform="matrix(0.1 0 0 0.1 -80.65 -298)" d="M 3898,3923.34 L 3892,3912.94 L 4089.58,3798.87 L 4095.58,3809.27 L 3898,3923.34 Z " />
<path stroke="none" fill="#000000" transform="matrix(0.1 0 0 0.1 -80.65 -298)" d="M 4150.56,3837.55 L 4138.56,3830.62 L 4138.56,3549.38 L 4150.56,3542.45 L 4150.56,3837.55 Z " />
<path stroke="none" fill="#000000" transform="matrix(0.1 0 0 0.1 -80.65 -298)" d="M 4150.56,3542.45 L 4138.56,3549.38 L 3895,3408.77 L 3895,3402 L 3900.77,3398.56 L 4150.56,3542.45 Z " />
<path stroke="none" fill="#000000" transform="matrix(0.1 0 0 0.1 -80.65 -298)" d="M 4095.58,3570.73 L 4089.58,3581.13 L 3892,3467.06 L 3898,3456.66 L 4095.58,3570.73 Z " />
<path stroke="none" fill="#000000" transform="matrix(0.1 0 0 0.1 -80.65 -298)" d="M 3889.23,3398.56 L 3895,3402 L 3895,3408.77 L 3651.44,3549.38 L 3639.44,3542.45 L 3889.23,3398.56 Z " />
<text x="0" y="0" stroke="none" fill="#000000" transform="matrix(0.1 0 0 0.1 301.072 21.2)" font-style="normal" font-weight="normal" font-size="200px" font-family="Arial" >
OH</text>
<path stroke="none" fill="#000000" transform="matrix(0.1 0 0 0.1 -80.65 -298)" d="M 3900.77,3398.56 L 3895,3402 L 3889.23,3398.56 L 3889,3225.67 L 3901,3225.67 L 3900.77,3398.56 Z " />
<text x="0" y="0" stroke="none" fill="#000000" transform="matrix(0.1 0 0 0.1 256.85 79)" font-style="normal" font-weight="normal" font-size="200px" font-family="Arial" >
2</text>
<path stroke="none" fill="#000000" transform="matrix(0.1 0 0 0.1 -80.65 -298)" d="M 6239.75,3696 L 4425,3696 L 4425,3684 L 6239.75,3684 Z " />
<path stroke="none" fill="#000000" transform="matrix(0.1 0 0 0.1 -80.65 -298)" d="M 6475,3690 C 6475,3690 6205,3758.5 6205,3758.5 C 6205,3758.5 6238.75,3719.97 6238.75,3690 C 6238.75,3659.59 6205,3620.5 6205,3620.5 C 6205,3620.5 6475,3690 6475,3690 C 6475,3690 6475,3690 6475,3690 " />
<path stroke="#000000" stroke-width="1" fill="none" transform="matrix(0.1 0 0 0.1 -80.65 -298)" d="M 6475,3690 C 6475,3690 6205,3758.5 6205,3758.5 C 6205,3758.5 6238.75,3719.97 6238.75,3690 C 6238.75,3659.59 6205,3620.5 6205,3620.5 C 6205,3620.5 6475,3690 6475,3690 C 6475,3690 6475,3690 6475,3690 " />
<text x="0" y="0" stroke="none" fill="#000000" transform="matrix(0.1 0 0 0.1 420.85 60)" font-style="normal" font-weight="normal" font-size="200px" font-family="Arial" >
K</text>
<text x="0" y="0" stroke="none" fill="#000000" transform="matrix(0.1 0 0 0.1 434.19 64.4)" font-style="normal" font-weight="normal" font-size="150px" font-family="Arial" >
2</text>
<text x="0" y="0" stroke="none" fill="#000000" transform="matrix(0.1 0 0 0.1 442.532 60)" font-style="normal" font-weight="normal" font-size="200px" font-family="Arial" >
CO</text>
<text x="0" y="0" stroke="none" fill="#000000" transform="matrix(0.1 0 0 0.1 472.532 64.4)" font-style="normal" font-weight="normal" font-size="150px" font-family="Arial" >
3</text>
<text x="0" y="0" stroke="none" fill="#000000" transform="matrix(0.1 0 0 0.1 368.85 98)" font-style="normal" font-weight="normal" font-size="200px" font-family="Arial" >
Solvent, </text>
<text x="0" y="0" stroke="none" fill="#000000" transform="matrix(0.1 0 0 0.1 446.672 98)" font-style="normal" font-weight="normal" font-size="200px" font-family="Arial" >
160 </text>
<text x="0" y="0" stroke="none" fill="#000000" transform="matrix(0.1 0 0 0.1 485.598 98)" font-style="normal" font-weight="normal" font-size="200px" font-family="Arial" >
°C, </text>
<text x="0" y="0" stroke="none" fill="#000000" transform="matrix(0.1 0 0 0.1 519.153 98)" font-style="normal" font-weight="normal" font-size="200px" font-family="Arial" >
6h</text>
<path stroke="none" fill="#000000" transform="matrix(0.1 0 0 0.1 -80.65 -298)" d="M 7079.44,3522.45 L 7091.44,3529.38 L 7091.44,3810.62 L 7085.58,3814 L 7079.72,3810.71 L 7079.44,3522.45 Z " />
<path stroke="none" fill="#000000" transform="matrix(0.1 0 0 0.1 -80.65 -298)" d="M 7131.42,3555.93 L 7143.42,3555.93 L 7143.42,3784.07 L 7131.42,3784.07 L 7131.42,3555.93 Z " />
<path stroke="none" fill="#000000" transform="matrix(0.1 0 0 0.1 -80.65 -298)" d="M 7085.5,3820.72 L 7085.58,3814 L 7091.44,3810.62 L 7335,3951.23 L 7335,3965.1 L 7085.5,3820.72 Z " />
<path stroke="none" fill="#000000" transform="matrix(0.1 0 0 0.1 -80.65 -298)" d="M 7335,3965.1 L 7335,3951.23 L 7578.56,3810.62 L 7590.56,3817.55 L 7335,3965.1 Z " />
<path stroke="none" fill="#000000" transform="matrix(0.1 0 0 0.1 -80.65 -298)" d="M 7338,3903.34 L 7332,3892.94 L 7529.58,3778.87 L 7535.57,3789.27 L 7338,3903.34 Z " />
<path stroke="none" fill="#000000" transform="matrix(0.1 0 0 0.1 -80.65 -298)" d="M 7590.56,3817.55 L 7578.56,3810.62 L 7578.56,3529.38 L 7584.41,3526 L 7590.28,3529.28 L 7590.56,3817.55 Z " />
<path stroke="none" fill="#000000" transform="matrix(0.1 0 0 0.1 -80.65 -298)" d="M 7584.5,3519.28 L 7584.41,3526 L 7578.56,3529.38 L 7335,3388.77 L 7335,3374.9 L 7584.5,3519.28 Z " />
<path stroke="none" fill="#000000" transform="matrix(0.1 0 0 0.1 -80.65 -298)" d="M 7535.57,3550.73 L 7529.58,3561.13 L 7332,3447.06 L 7338,3436.66 L 7535.57,3550.73 Z " />
<path stroke="none" fill="#000000" transform="matrix(0.1 0 0 0.1 -80.65 -298)" d="M 7335,3374.9 L 7335,3388.77 L 7091.44,3529.38 L 7079.44,3522.45 L 7335,3374.9 Z " />
<text x="0" y="0" stroke="none" fill="#000000" transform="matrix(0.1 0 0 0.1 696.063 48)" font-style="normal" font-weight="normal" font-size="200px" font-family="Arial" >
S</text>
<path stroke="none" fill="#000000" transform="matrix(0.1 0 0 0.1 -80.65 -298)" d="M 7590.28,3529.28 L 7584.41,3526 L 7584.5,3519.28 L 7739.92,3429.29 L 7745.92,3439.68 L 7590.28,3529.28 Z " />
<path stroke="none" fill="#000000" transform="matrix(0.1 0 0 0.1 -80.65 -298)" d="M 7922.22,3439.96 L 7928.22,3429.57 L 8083.16,3519.28 L 8083.25,3526 L 8077.38,3529.28 L 7922.22,3439.96 Z " />
<path stroke="none" fill="#000000" transform="matrix(0.1 0 0 0.1 -80.65 -298)" d="M 8077.38,3529.28 L 8083.25,3526 L 8089.1,3529.38 L 8089.1,3810.62 L 8077.1,3817.55 L 8077.38,3529.28 Z " />
<path stroke="none" fill="#000000" transform="matrix(0.1 0 0 0.1 -80.65 -298)" d="M 8129.09,3555.93 L 8141.09,3555.93 L 8141.09,3784.07 L 8129.09,3784.07 L 8129.09,3555.93 Z " />
<path stroke="none" fill="#000000" transform="matrix(0.1 0 0 0.1 -80.65 -298)" d="M 8077.1,3817.55 L 8089.1,3810.62 L 8332.66,3951.23 L 8332.66,3965.1 L 8077.1,3817.55 Z " />
<path stroke="none" fill="#000000" transform="matrix(0.1 0 0 0.1 -80.65 -298)" d="M 8332.66,3965.1 L 8332.66,3951.23 L 8576.22,3810.62 L 8582.08,3814 L 8582.16,3820.72 L 8332.66,3965.1 Z " />
<path stroke="none" fill="#000000" transform="matrix(0.1 0 0 0.1 -80.65 -298)" d="M 8335.66,3903.34 L 8329.66,3892.94 L 8527.24,3778.87 L 8533.24,3789.27 L 8335.66,3903.34 Z " />
<path stroke="none" fill="#000000" transform="matrix(0.1 0 0 0.1 -80.65 -298)" d="M 8587.94,3810.71 L 8582.08,3814 L 8576.22,3810.62 L 8576.22,3529.38 L 8588.22,3522.45 L 8587.94,3810.71 Z " />
<path stroke="none" fill="#000000" transform="matrix(0.1 0 0 0.1 -80.65 -298)" d="M 8588.22,3522.45 L 8576.22,3529.38 L 8332.66,3388.77 L 8332.66,3374.9 L 8588.22,3522.45 Z " />
<path stroke="none" fill="#000000" transform="matrix(0.1 0 0 0.1 -80.65 -298)" d="M 8533.24,3550.73 L 8527.24,3561.13 L 8329.66,3447.06 L 8335.66,3436.66 L 8533.24,3550.73 Z " />
<path stroke="none" fill="#000000" transform="matrix(0.1 0 0 0.1 -80.65 -298)" d="M 8332.66,3374.9 L 8332.66,3388.77 L 8089.1,3529.38 L 8083.25,3526 L 8083.16,3519.28 L 8332.66,3374.9 Z " />
<text x="0" y="0" stroke="none" fill="#000000" transform="matrix(0.1 0 0 0.1 794.721 105.6)" font-style="normal" font-weight="normal" font-size="200px" font-family="Arial" >
OPh</text>
<path stroke="none" fill="#000000" transform="matrix(0.1 0 0 0.1 -80.65 -298)" d="M 8582.16,3820.72 L 8582.08,3814 L 8587.94,3810.71 L 8749.01,3903.45 L 8743.01,3913.84 L 8582.16,3820.72 Z " />
<text x="0" y="0" stroke="none" fill="#000000" transform="matrix(0.1 0 0 0.1 570.726 105.6)" font-style="normal" font-weight="normal" font-size="200px" font-family="Arial" >
PhO</text>
<path stroke="none" fill="#000000" transform="matrix(0.1 0 0 0.1 -80.65 -298)" d="M 7079.72,3810.71 L 7085.58,3814 L 7085.5,3820.72 L 6925.06,3913.61 L 6919.06,3903.22 L 7079.72,3810.71 Z " />
<text x="0" y="0" stroke="none" fill="#000000" transform="matrix(0.1 0 0 0.1 82.5901 30.6353)" font-style="normal" font-weight="normal" font-size="200px" font-family="Arial" >
O</text>
<path stroke="none" fill="#000000" transform="matrix(0.1 0 0 0.1 -80.65 -298)" d="M 1830.6,3356.94 L 1822.12,3365.43 L 1766.18,3309.49 L 1774.67,3301.01 L 1830.6,3356.94 Z " />
<path stroke="none" fill="#000000" transform="matrix(0.1 0 0 0.1 -80.65 -298)" d="M 1867.26,3320.29 L 1858.77,3328.77 L 1802.84,3272.84 L 1811.32,3264.35 L 1867.26,3320.29 Z " />
<text x="0" y="0" stroke="none" fill="#000000" transform="matrix(0.1 0 0 0.1 120.487 28.1514)" font-style="normal" font-weight="normal" font-size="200px" font-family="Arial" >
O</text>
<path stroke="none" fill="#000000" transform="matrix(0.1 0 0 0.1 -80.65 -298)" d="M 1957.2,3322.76 L 1947.68,3315.45 L 1995.81,3252.72 L 2005.33,3260.03 L 1957.2,3322.76 Z " />
<path stroke="none" fill="#000000" transform="matrix(0.1 0 0 0.1 -80.65 -298)" d="M 1998.33,3354.31 L 1988.81,3347.01 L 2036.94,3284.28 L 2046.46,3291.59 L 1998.33,3354.31 Z " />
<text x="0" y="0" stroke="none" fill="#000000" transform="matrix(0.1 0 0 0.1 674.59 27.6353)" font-style="normal" font-weight="normal" font-size="200px" font-family="Arial" >
O</text>
<path stroke="none" fill="#000000" transform="matrix(0.1 0 0 0.1 -80.65 -298)" d="M 7750.6,3326.94 L 7742.12,3335.43 L 7686.18,3279.49 L 7694.67,3271.01 L 7750.6,3326.94 Z " />
<path stroke="none" fill="#000000" transform="matrix(0.1 0 0 0.1 -80.65 -298)" d="M 7787.26,3290.29 L 7778.77,3298.77 L 7722.84,3242.84 L 7731.32,3234.35 L 7787.26,3290.29 Z " />
<text x="0" y="0" stroke="none" fill="#000000" transform="matrix(0.1 0 0 0.1 712.487 25.1514)" font-style="normal" font-weight="normal" font-size="200px" font-family="Arial" >
O</text>
<path stroke="none" fill="#000000" transform="matrix(0.1 0 0 0.1 -80.65 -298)" d="M 7877.2,3292.76 L 7867.68,3285.45 L 7915.81,3222.72 L 7925.33,3230.03 L 7877.2,3292.76 Z " />
<path stroke="none" fill="#000000" transform="matrix(0.1 0 0 0.1 -80.65 -298)" d="M 7918.33,3324.31 L 7908.81,3317.01 L 7956.94,3254.28 L 7966.46,3261.59 L 7918.33,3324.31 Z " />
</svg>
