<?xml version="1.0" standalone="no" ?>
<!DOCTYPE svg PUBLIC "-//W3C//DTD SVG 1.1//EN" "http://www.w3.org/Graphics/SVG/1.1/DTD/svg11.dtd">
<svg width="659px" height="250px" viewBox="0 0 659 250" style="background-color: #ffffff00" xmlns="http://www.w3.org/2000/svg" xmlns:xlink="http://www.w3.org/1999/xlink" version="1.1" >
<text x="0" y="0" stroke="none" fill="#000000" transform="matrix(0.1 0 0 0.1 6.85 23)" font-style="normal" font-weight="bold" font-size="200px" font-family="Arial" >
S</text>
<text x="0" y="0" stroke="none" fill="#000000" transform="matrix(0.1 0 0 0.1 20.1898 27.3)" font-style="normal" font-weight="bold" font-size="150px" font-family="Arial" >
N</text>
<text x="0" y="0" stroke="none" fill="#000000" transform="matrix(0.1 0 0 0.1 31.0224 23)" font-style="normal" font-weight="bold" font-size="200px" font-family="Arial" >
Ar</text>
<path stroke="none" fill="#000000" transform="matrix(0.1 0 0 0.1 -25.65 -126)" d="M 309.437,1942.45 L 321.444,1949.38 L 321.444,2230.62 L 309.437,2237.55 L 309.437,1942.45 Z " />
<path stroke="none" fill="#000000" transform="matrix(0.1 0 0 0.1 -25.65 -126)" d="M 361.425,1975.93 L 373.425,1975.93 L 373.425,2204.07 L 361.425,2204.07 L 361.425,1975.93 Z " />
<path stroke="none" fill="#000000" transform="matrix(0.1 0 0 0.1 -25.65 -126)" d="M 309.437,2237.55 L 321.444,2230.62 L 565,2371.23 L 565,2385.1 L 309.437,2237.55 Z " />
<path stroke="none" fill="#000000" transform="matrix(0.1 0 0 0.1 -25.65 -126)" d="M 565,2385.1 L 565,2371.23 L 808.556,2230.62 L 820.563,2237.55 L 565,2385.1 Z " />
<path stroke="none" fill="#000000" transform="matrix(0.1 0 0 0.1 -25.65 -126)" d="M 568,2323.34 L 562,2312.94 L 759.575,2198.87 L 765.575,2209.27 L 568,2323.34 Z " />
<path stroke="none" fill="#000000" transform="matrix(0.1 0 0 0.1 -25.65 -126)" d="M 820.563,2237.55 L 808.556,2230.62 L 808.556,1949.38 L 814.415,1946 L 820.279,1949.27 L 820.563,2237.55 Z " />
<path stroke="none" fill="#000000" transform="matrix(0.1 0 0 0.1 -25.65 -126)" d="M 814.514,1939.29 L 814.415,1946 L 808.556,1949.38 L 565,1808.77 L 565,1794.9 L 814.514,1939.29 Z " />
<path stroke="none" fill="#000000" transform="matrix(0.1 0 0 0.1 -25.65 -126)" d="M 765.575,1970.73 L 759.575,1981.13 L 562,1867.06 L 568,1856.66 L 765.575,1970.73 Z " />
<path stroke="none" fill="#000000" transform="matrix(0.1 0 0 0.1 -25.65 -126)" d="M 565,1794.9 L 565,1808.77 L 321.444,1949.38 L 309.437,1942.45 L 565,1794.9 Z " />
<text x="0" y="0" stroke="none" fill="#000000" transform="matrix(0.1 0 0 0.1 74.0631 62)" font-style="normal" font-weight="normal" font-size="200px" font-family="Arial" >
EWG</text>
<path stroke="none" fill="#000000" transform="matrix(0.1 0 0 0.1 -25.65 -126)" d="M 820.279,1949.27 L 814.415,1946 L 814.514,1939.29 L 963.628,1852.92 L 969.628,1863.32 L 820.279,1949.27 Z " />
<text x="0" y="0" stroke="none" fill="#000000" transform="matrix(0.1 0 0 0.1 149.57 238.4)" font-style="normal" font-weight="normal" font-size="200px" font-family="Arial" >
Nu</text>
<text x="0" y="0" stroke="none" fill="#000000" transform="matrix(0.1 0 0 0.1 121.85 240)" font-style="normal" font-weight="normal" font-size="200px" font-family="Arial" >
+</text>
<path stroke="none" fill="#000000" transform="matrix(0.1 0 0 0.1 -25.65 -126)" d="M 1902.12,3408.16 A 16.6667,16.6667 0 1 0 1935.45,3408.16A 16.6667,16.6667 0 1 0 1902.12,3408.16Z " />
<path stroke="none" fill="#000000" transform="matrix(0.1 0 0 0.1 -25.65 -126)" d="M 1827.12,3407.57 A 16.6667,16.6667 0 1 0 1860.45,3407.57A 16.6667,16.6667 0 1 0 1827.12,3407.57Z " />
<path stroke="none" fill="#000000" transform="matrix(0.1 0 0 0.1 -25.65 -126)" d="M 2675,2176 L 1955,2176 L 1955,2164 L 2675,2164 Z " />
<text x="0" y="0" stroke="none" fill="#000000" transform="matrix(0.1 0 0 0.1 179.85 84)" font-style="normal" font-weight="normal" font-size="200px" font-family="Arial" >
Base</text>
<path stroke="none" fill="#000000" transform="matrix(0.1 0 0 0.1 -25.65 -126)" d="M 2869.44,2142.45 L 2881.44,2149.38 L 2881.44,2430.62 L 2869.44,2437.55 L 2869.44,2142.45 Z " />
<path stroke="none" fill="#000000" transform="matrix(0.1 0 0 0.1 -25.65 -126)" d="M 2869.44,2437.55 L 2881.44,2430.62 L 3125,2571.23 L 3125,2585.1 L 2869.44,2437.55 Z " />
<path stroke="none" fill="#000000" transform="matrix(0.1 0 0 0.1 -25.65 -126)" d="M 3125,2585.1 L 3125,2571.23 L 3368.56,2430.62 L 3380.56,2437.55 L 3125,2585.1 Z " />
<path stroke="none" fill="#000000" transform="matrix(0.1 0 0 0.1 -25.65 -126)" d="M 3380.56,2437.55 L 3368.56,2430.62 L 3368.56,2149.38 L 3374.41,2146 L 3380.13,2152.88 L 3380.56,2437.55 Z " />
<path stroke="none" fill="#000000" transform="matrix(0.1 0 0 0.1 -25.65 -126)" d="M 3371.04,2137.47 L 3374.41,2146 L 3368.56,2149.38 L 3125,2008.77 L 3125,1994.9 L 3371.04,2137.47 Z " />
<path stroke="none" fill="#000000" transform="matrix(0.1 0 0 0.1 -25.65 -126)" d="M 3125,1994.9 L 3125,2008.77 L 2881.44,2149.38 L 2869.44,2142.45 L 3125,1994.9 Z " />
<path stroke="#000000" stroke-width="12" fill="none" transform="matrix(0.1 0 0 0.1 -25.65 -126)" d="M 3156.77,2134.79 C 3060.8,2111.82 2964.25,2171.07 2941.27,2267.04 C 2918.3,2363 2977.55,2459.55 3073.52,2482.53 C 3165.48,2504.54 3266.99,2442.25 3289.01,2350.29 " />
<path stroke="#000000" stroke-width="10" fill="none" transform="matrix(0.1 0 0 0.1 -25.65 -126)" d="M 3043.53,2300.33 A 71.7999,71.7999 0 1 0 3187.13,2300.33A 71.7999,71.7999 0 1 0 3043.53,2300.33Z " />
<path stroke="none" fill="#000000" transform="matrix(0.1 0 0 0.1 -25.65 -126)" d="M 3075.67,2295 L 3154.33,2295 L 3154.33,2305 L 3075.67,2305 Z " />
<path stroke="none" fill="#000000" transform="matrix(0.1 0 0 0.1 -25.65 -126)" d="M 3120,2260.67 L 3120,2339.33 L 3110,2339.33 L 3110,2260.67 Z " />
<text x="0" y="0" stroke="none" fill="#000000" transform="matrix(0.1 0 0 0.1 312.576 68.5814)" font-style="normal" font-weight="normal" font-size="200px" font-family="Arial" >
EWG</text>
<path stroke="none" fill="#000000" transform="matrix(0.1 0 0 0.1 -25.65 -126)" d="M 3381.34,2141.68 L 3374.41,2146 L 3371.04,2137.47 L 3411.56,1984.17 L 3423.16,1987.28 L 3381.34,2141.68 Z " />
<text x="0" y="0" stroke="none" fill="#000000" transform="matrix(0.1 0 0 0.1 333.37 102.4)" font-style="normal" font-weight="normal" font-size="200px" font-family="Arial" >
Nu</text>
<path stroke="none" fill="#000000" transform="matrix(0.1 0 0 0.1 -25.65 -126)" d="M 3380.13,2152.88 L 3374.41,2146 L 3381.34,2141.68 L 3568.48,2180.3 L 3566.04,2192.05 L 3380.13,2152.88 Z " />
<path stroke="#000000" stroke-width="12" fill="none" transform="matrix(0.1 0 0 0.1 -25.65 -126)" d="M 3955.1,1570 L 4035,1570 " />
<path stroke="#000000" stroke-width="12" fill="none" transform="matrix(0.1 0 0 0.1 -25.65 -126)" d="M 4035,1570 L 4035,2670 " />
<path stroke="#000000" stroke-width="12" fill="none" transform="matrix(0.1 0 0 0.1 -25.65 -126)" d="M 4035,2670 L 3955.1,2670 " />
<path stroke="#000000" stroke-width="12" fill="none" transform="matrix(0.1 0 0 0.1 -25.65 -126)" d="M 2764.9,2670 L 2685,2670 " />
<path stroke="#000000" stroke-width="12" fill="none" transform="matrix(0.1 0 0 0.1 -25.65 -126)" d="M 2685,2670 L 2685,1570 " />
<path stroke="#000000" stroke-width="12" fill="none" transform="matrix(0.1 0 0 0.1 -25.65 -126)" d="M 2685,1570 L 2764.9,1570 " />
<text x="0" y="0" stroke="none" fill="#000000" transform="matrix(0.1 0 0 0.1 297.85 44)" font-style="italic" font-weight="normal" font-size="200px" font-family="Arial" >
via</text>
<path stroke="none" fill="#000000" transform="matrix(0.1 0 0 0.1 -25.65 -126)" d="M 4691.16,2196 L 4035,2196 L 4035,2184 L 4691.16,2184 Z " />
<path stroke="none" fill="#000000" transform="matrix(0.1 0 0 0.1 -25.65 -126)" d="M 4926.4,2190 C 4926.4,2190 4656.41,2258.5 4656.41,2258.5 C 4656.41,2258.5 4690.16,2219.97 4690.16,2190 C 4690.16,2159.59 4656.41,2120.5 4656.41,2120.5 C 4656.41,2120.5 4926.4,2190 4926.4,2190 C 4926.4,2190 4926.4,2190 4926.4,2190 " />
<path stroke="#000000" stroke-width="1" fill="none" transform="matrix(0.1 0 0 0.1 -25.65 -126)" d="M 4926.4,2190 C 4926.4,2190 4656.41,2258.5 4656.41,2258.5 C 4656.41,2258.5 4690.16,2219.97 4690.16,2190 C 4690.16,2159.59 4656.41,2120.5 4656.41,2120.5 C 4656.41,2120.5 4926.4,2190 4926.4,2190 C 4926.4,2190 4926.4,2190 4926.4,2190 " />
<path stroke="none" fill="#000000" transform="matrix(0.1 0 0 0.1 -25.65 -126)" d="M 5139.44,2002.45 L 5151.44,2009.38 L 5151.44,2290.62 L 5139.44,2297.55 L 5139.44,2002.45 Z " />
<path stroke="none" fill="#000000" transform="matrix(0.1 0 0 0.1 -25.65 -126)" d="M 5191.42,2035.93 L 5203.42,2035.93 L 5203.42,2264.07 L 5191.42,2264.07 L 5191.42,2035.93 Z " />
<path stroke="none" fill="#000000" transform="matrix(0.1 0 0 0.1 -25.65 -126)" d="M 5139.44,2297.55 L 5151.44,2290.62 L 5395,2431.23 L 5395,2445.1 L 5139.44,2297.55 Z " />
<path stroke="none" fill="#000000" transform="matrix(0.1 0 0 0.1 -25.65 -126)" d="M 5395,2445.1 L 5395,2431.23 L 5638.56,2290.62 L 5650.56,2297.55 L 5395,2445.1 Z " />
<path stroke="none" fill="#000000" transform="matrix(0.1 0 0 0.1 -25.65 -126)" d="M 5398,2383.34 L 5392,2372.94 L 5589.58,2258.87 L 5595.57,2269.27 L 5398,2383.34 Z " />
<path stroke="none" fill="#000000" transform="matrix(0.1 0 0 0.1 -25.65 -126)" d="M 5650.56,2297.55 L 5638.56,2290.62 L 5638.56,2009.38 L 5644.41,2006 L 5650.28,2009.26 L 5650.56,2297.55 Z " />
<path stroke="none" fill="#000000" transform="matrix(0.1 0 0 0.1 -25.65 -126)" d="M 5644.52,1999.29 L 5644.41,2006 L 5638.56,2009.38 L 5395,1868.77 L 5395,1854.9 L 5644.52,1999.29 Z " />
<path stroke="none" fill="#000000" transform="matrix(0.1 0 0 0.1 -25.65 -126)" d="M 5595.57,2030.73 L 5589.58,2041.13 L 5392,1927.06 L 5398,1916.66 L 5595.57,2030.73 Z " />
<path stroke="none" fill="#000000" transform="matrix(0.1 0 0 0.1 -25.65 -126)" d="M 5395,1854.9 L 5395,1868.77 L 5151.44,2009.38 L 5139.44,2002.45 L 5395,1854.9 Z " />
<text x="0" y="0" stroke="none" fill="#000000" transform="matrix(0.1 0 0 0.1 556.511 68)" font-style="normal" font-weight="normal" font-size="200px" font-family="Arial" >
Nu</text>
<path stroke="none" fill="#000000" transform="matrix(0.1 0 0 0.1 -25.65 -126)" d="M 5650.28,2009.26 L 5644.41,2006 L 5644.52,1999.29 L 5787.97,1916.19 L 5793.97,1926.58 L 5650.28,2009.26 Z " />
<text x="0" y="0" stroke="none" fill="#000000" transform="matrix(0.1 0 0 0.1 563.85 109)" font-style="normal" font-weight="normal" font-size="200px" font-family="Arial" >
+</text>
<text x="0" y="0" stroke="none" fill="#000000" transform="matrix(0.1 0 0 0.1 591.85 110)" font-style="normal" font-weight="normal" font-size="200px" font-family="Arial" >
HEWG</text>
<text x="0" y="0" stroke="none" fill="#000000" transform="matrix(0.1 0 0 0.1 7.85 189)" font-style="normal" font-weight="bold" font-size="200px" font-family="Arial" >
S</text>
<text x="0" y="0" stroke="none" fill="#000000" transform="matrix(0.1 0 0 0.1 21.1898 193.3)" font-style="normal" font-weight="bold" font-size="150px" font-family="Arial" >
N</text>
<text x="0" y="0" stroke="none" fill="#000000" transform="matrix(0.1 0 0 0.1 32.0224 189)" font-style="normal" font-weight="bold" font-size="200px" font-family="Arial" >
2</text>
<text x="0" y="0" stroke="none" fill="#000000" transform="matrix(0.1 0 0 0.1 4.6868 238.4)" font-style="normal" font-weight="normal" font-size="200px" font-family="Arial" >
R</text>
<text x="0" y="0" stroke="none" fill="#000000" transform="matrix(0.1 0 0 0.1 19.1302 230.6)" font-style="normal" font-weight="normal" font-size="150px" font-family="Arial" >
1</text>
<path stroke="none" fill="#000000" transform="matrix(0.1 0 0 0.1 -25.65 -126)" d="M 546.797,3468.8 L 540.558,3458.55 L 644.803,3394.66 L 644.942,3408.64 L 546.797,3468.8 Z " />
<text x="0" y="0" stroke="none" fill="#000000" transform="matrix(0.1 0 0 0.1 57.1216 236.4)" font-style="normal" font-weight="normal" font-size="200px" font-family="Arial" >
EWG</text>
<path stroke="none" fill="#000000" transform="matrix(0.1 0 0 0.1 -25.65 -126)" d="M 644.942,3408.64 L 644.803,3394.66 L 804.687,3487.27 L 798.687,3497.66 L 644.942,3408.64 Z " />
<path stroke="none" fill="#000000" transform="matrix(0.1 0 0 0.1 -25.65 -126)" d="M 3059.75,3566 L 2245,3566 L 2245,3554 L 3059.75,3554 Z " />
<path stroke="none" fill="#000000" transform="matrix(0.1 0 0 0.1 -25.65 -126)" d="M 3295,3560 C 3295,3560 3025,3628.5 3025,3628.5 C 3025,3628.5 3058.75,3589.97 3058.75,3560 C 3058.75,3529.59 3025,3490.5 3025,3490.5 C 3025,3490.5 3295,3560 3295,3560 C 3295,3560 3295,3560 3295,3560 " />
<path stroke="#000000" stroke-width="1" fill="none" transform="matrix(0.1 0 0 0.1 -25.65 -126)" d="M 3295,3560 C 3295,3560 3025,3628.5 3025,3628.5 C 3025,3628.5 3058.75,3589.97 3058.75,3560 C 3058.75,3529.59 3025,3490.5 3025,3490.5 C 3025,3490.5 3295,3560 3295,3560 C 3295,3560 3295,3560 3295,3560 " />
<text x="0" y="0" stroke="none" fill="#000000" transform="matrix(0.1 0 0 0.1 215.85 222)" font-style="normal" font-weight="normal" font-size="200px" font-family="Arial" >
Base</text>
<text x="0" y="0" stroke="none" fill="#000000" transform="matrix(0.1 0 0 0.1 324.687 240.4)" font-style="normal" font-weight="normal" font-size="200px" font-family="Arial" >
R</text>
<text x="0" y="0" stroke="none" fill="#000000" transform="matrix(0.1 0 0 0.1 339.13 232.6)" font-style="normal" font-weight="normal" font-size="150px" font-family="Arial" >
1</text>
<path stroke="none" fill="#000000" transform="matrix(0.1 0 0 0.1 -25.65 -126)" d="M 3746.8,3488.8 L 3740.56,3478.55 L 3844.81,3414.66 L 3844.95,3428.64 L 3746.8,3488.8 Z " />
<text x="0" y="0" stroke="none" fill="#000000" transform="matrix(0.1 0 0 0.1 376.57 238.4)" font-style="normal" font-weight="normal" font-size="200px" font-family="Arial" >
Nu</text>
<path stroke="none" fill="#000000" transform="matrix(0.1 0 0 0.1 -25.65 -126)" d="M 3844.95,3428.64 L 3844.81,3414.66 L 4000.33,3504.75 L 3994.33,3515.15 L 3844.95,3428.64 Z " />
<text x="0" y="0" stroke="none" fill="#000000" transform="matrix(0.1 0 0 0.1 421.85 239)" font-style="normal" font-weight="normal" font-size="200px" font-family="Arial" >
+</text>
<text x="0" y="0" stroke="none" fill="#000000" transform="matrix(0.1 0 0 0.1 441.85 240)" font-style="normal" font-weight="normal" font-size="200px" font-family="Arial" >
HEWG</text>
<text x="0" y="0" stroke="none" fill="#000000" transform="matrix(0.1 0 0 0.1 122.57 99.4)" font-style="normal" font-weight="normal" font-size="200px" font-family="Arial" >
Nu</text>
<text x="0" y="0" stroke="none" fill="#000000" transform="matrix(0.1 0 0 0.1 94.85 101)" font-style="normal" font-weight="normal" font-size="200px" font-family="Arial" >
+</text>
<path stroke="none" fill="#000000" transform="matrix(0.1 0 0 0.1 -25.65 -126)" d="M 1632.12,2018.16 A 16.6666,16.6666 0 1 0 1665.45,2018.16A 16.6666,16.6666 0 1 0 1632.12,2018.16Z " />
<path stroke="none" fill="#000000" transform="matrix(0.1 0 0 0.1 -25.65 -126)" d="M 1557.12,2017.57 A 16.6666,16.6666 0 1 0 1590.45,2017.57A 16.6666,16.6666 0 1 0 1557.12,2017.57Z " />
</svg>
